<svg xmlns="http://www.w3.org/2000/svg" viewBox="0 0 500 500"><g id="freepik--background-complete--inject-184"><path d="M14.27,167.62H238.89S235.57,160.51,231,157s-11.23,0-11.23,0,.74-6.34-3.26-9.9a8.63,8.63,0,0,0-8.54-1.74s3.24-15.34-7.71-24.74c-12.36-10.61-23.14-2.12-23.14-2.12s1.07-5-2.41-8.25a6.37,6.37,0,0,0-7.3-1.09s-3.83-25.68-24.06-29.31C120.64,75.72,111.06,101,111.06,101s-7.3-9.59-17.25-5.89C85.08,98.39,85,112,85,112s-5.31-4-9.69-1.38-4.21,8.17-4.21,8.17A19.75,19.75,0,0,0,53.94,120c-9,5-7.21,16.27-7.21,16.27s-5-1-8.09,1.93-2,7.25-2,7.25a12.39,12.39,0,0,0-9.71,1.71c-4.57,3.18-3.81,11.88-3.81,11.88S16.85,159.42,14.27,167.62Z" style="fill:#ebebeb;opacity:0.5"></path><path d="M485.73,75.19H305.26s4.06-12.64,16.7-9.46c0,0,2.59-7.67,9.62-11.66s16,0,16,0,1.91-6,6.89-8.12S365,46,365,46s5.59-16.83,23.08-16.83C406.65,29.12,409.8,44,409.8,44a21,21,0,0,1,21.64-8.38c12,2.46,14.43,16,14.43,16a10.15,10.15,0,0,1,7.37,0c4,1.56,4.3,6.21,4.3,6.21s5-2.6,9.84,0c5.52,3,4.23,10.15,4.23,10.15A18.43,18.43,0,0,1,485.73,75.19Z" style="fill:#ebebeb;opacity:0.5"></path><path d="M46.91,368.63c.59,1.13,1.21,2.25,1.85,3.35.32.55.64,1.1,1,1.63A21.27,21.27,0,0,0,46.91,368.63Z" style="fill:#dbdbdb"></path><path d="M50.85,375.16a14.1,14.1,0,0,1-1.11-1.55c3.07,7.61,2.06,16.29,6.68,24.19,3.17,4.08,6.45,8,9.67,11.93s6.48,7.91,9.54,11.91c.76,1,1.52,2,2.18,3,.16.25.31.49.44.71l.09.15a.2.2,0,0,1,0,.09s0,.08,0,.14c.11.41-1.2,45.94-4.75,74.07l11.71.06c-.17-10.25-.42-39.71-.84-50l-.09-2.34q2.91-3.54,5.73-7.13,1.59-2,3.15-4.09c.52-.69,1-1.39,1.54-2.11l.75-1.11a11,11,0,0,0,.76-1.34,2.61,2.61,0,0,0,.2-.44c0-.17.11-.38.13-.49.06-.29.09-.53.12-.77.06-.47.1-.92.13-1.36.06-.89.09-1.75.12-2.61l0-.75.54-.33c.47-.31.87-.63,1.26-.93.77-.63,1.45-1.27,2.13-1.9,1.34-1.29,2.61-2.59,3.87-3.89s2.5-2.6,3.76-3.84c.31-.31.62-.61.94-.89a8.37,8.37,0,0,1,.86-.72,11.23,11.23,0,0,1,2.22-.94c3.34-1.06,6.91-1.63,10.45-2.67a6.67,6.67,0,0,0,1.37-.57,1.18,1.18,0,0,0,.38-.34l.19-.26.41-.53,1.67-2.12,3.38-4.22-3.79,3.85L124.85,407l-.47.5-.24.26s0,0-.13.09a6.31,6.31,0,0,1-1.17.33c-3.48.64-7.1.82-10.75,1.57a13.22,13.22,0,0,0-2.85.89,10,10,0,0,0-1.33.85l-1.12.86c-1.44,1.16-2.81,2.32-4.2,3.47s-2.75,2.3-4.14,3.37l-1.25.93c0-3.12.09-6.23.26-9.32,0-.84.11-1.67.19-2.5A13.46,13.46,0,0,1,98,406a8,8,0,0,1,1.2-1.86c.51-.66,1-1.32,1.57-2,2.14-2.63,4.34-5.25,6.45-7.94,1-1.35,2.09-2.72,3-4.15L111,389c.21-.37.41-.77.6-1.17a7.74,7.74,0,0,0,.54-2.59,38.31,38.31,0,0,0-.05-5.14c-.12-1.7-.3-3.39-.52-5.08.13,1.69.22,3.4.24,5.09a37.19,37.19,0,0,1-.23,5.07,7.4,7.4,0,0,1-.62,2.35c-.19.36-.4.72-.62,1.07l-.72,1c-1,1.34-2.11,2.63-3.22,3.91-1.82,2.08-3.69,4.1-5.57,6.14-.83-1.23-1.65-2.48-2.43-3.73-1-1.57-1.94-3.18-2.75-4.8-.18-.41-.37-.81-.51-1.21a4.6,4.6,0,0,1-.21-1.19c-.08-.88-.08-1.81-.07-2.74,0-1.86.13-3.74.22-5.61s.19-3.76.24-5.64a44.91,44.91,0,0,0-.1-5.68,10.2,10.2,0,0,0-.25-1.43l-.11-.36-.16-.35a5.29,5.29,0,0,0-.48-.58,21.67,21.67,0,0,1-1.68-2.23c-1-1.55-2-3.16-2.93-4.8.83,1.68,1.71,3.34,2.69,5a22.53,22.53,0,0,0,1.6,2.34l.23.28c.07.09.1.17.17.25l.11.29.08.32a8.74,8.74,0,0,1,.17,1.35,45.53,45.53,0,0,1-.18,5.59c-.15,1.87-.34,3.74-.52,5.61s-.38,3.73-.5,5.63c-.06.95-.11,1.9-.09,2.89a6.63,6.63,0,0,0,.23,1.59c.15.5.33,1,.51,1.41a55.54,55.54,0,0,0,2.59,5.11c.84,1.5,1.7,3,2.59,4.42-.49.54-1,1.09-1.46,1.66-.29.32-.57.67-.85,1l-.42.59a3.52,3.52,0,0,0-.38.75,16.54,16.54,0,0,0-.61,2.69c-.14.87-.25,1.73-.34,2.59-.37,3.42-.6,6.83-.85,10.23L94,425.92c-.08.84-.15,1.68-.25,2.49,0,.41-.11.81-.18,1.17,0,.19-.07.36-.1.49s0,.09,0,.13-6.29,5.21-9.46,7.82c-.07-1.17-.15-2.33-.24-3.5-.21-2.58-.41-5.13-.85-7.81a15.32,15.32,0,0,0-.48-2.16,4.51,4.51,0,0,0-.31-.76,1.79,1.79,0,0,0-.18-.33l-.16-.25c-.21-.32-.41-.61-.62-.88-.82-1.1-1.65-2.08-2.49-3.08s-1.65-1.9-2.48-2.85l.81-1.13L78.58,413c1.09-1.54,2.18-3.1,3.2-4.76a27.86,27.86,0,0,0,1.43-2.59c.12-.23.22-.48.33-.72a8.11,8.11,0,0,0,.29-.76,5.47,5.47,0,0,0,.23-.85,4.65,4.65,0,0,0,.12-.93,21.05,21.05,0,0,0-.27-3c-.15-.94-.32-1.88-.5-2.81-.71-3.71-1.57-7.35-2.46-11l-.35-1.36c0-.21-.13-.49-.16-.66a2.6,2.6,0,0,1,0-.56A17.56,17.56,0,0,1,81,380.3c.51-1.79,1.12-3.56,1.76-5.31-.82,1.68-1.59,3.38-2.29,5.13a18,18,0,0,0-.89,2.72,3,3,0,0,0-.07.83c0,.29.07.47.1.72l.21,1.38c.51,3.69,1,7.4,1.33,11.09.08.92.15,1.84.2,2.74a18.29,18.29,0,0,1,0,2.58,6.09,6.09,0,0,1-.88,2c-.46.72-1,1.45-1.5,2.16-1.1,1.43-2.29,2.83-3.5,4.22l-1.85,2.09-.44.48-4.84-5.33c-1.55-1.71-3.13-3.41-4.68-5.12,1.13-4.14,2.31-8.3,3.57-12.4.65-2.1,1.31-4.25,2.11-6.19l.14-.36a5.89,5.89,0,0,0,.21-.59,5,5,0,0,0,.14-1.06,8.78,8.78,0,0,0-.12-1.87,24,24,0,0,0-.83-3.37,120.18,120.18,0,0,0-5-12.45c-.45-1-.9-2-1.32-3.05a9.35,9.35,0,0,1-.52-1.51,3.88,3.88,0,0,1,.12-1.54,19.45,19.45,0,0,1,3.09-5.8,19.42,19.42,0,0,0-3.54,5.67,4.23,4.23,0,0,0-.25,1.75,9.27,9.27,0,0,0,.44,1.67c.35,1.07.73,2.11,1.11,3.16a122,122,0,0,1,4.06,12.59,24,24,0,0,1,.54,3.14,7.79,7.79,0,0,1,0,1.45,4.08,4.08,0,0,1-.12.59l-.09.19-.19.39c-1,2.11-1.82,4.17-2.65,6.26-1.31,3.38-2.55,6.77-3.76,10.19-.91-1-1.81-2-2.71-3.07A14.81,14.81,0,0,1,57,395.08a10.92,10.92,0,0,1-.76-1.57c-.46-1.14-.83-2.34-1.2-3.55-.72-2.43-1.34-4.9-2-7.37l-1-3.72c-.17-.62-.34-1.24-.54-1.85A8.06,8.06,0,0,0,50.85,375.16Z" style="fill:#dbdbdb"></path><path d="M41,499.86s3.69-100.5,4.09-102.1,1.54-27.32,2.19-29.34,21.56-4.59,24.95-5.79,14.18-4,17.17-3.19,24.35,12.37,27.75,13.57,33.53-3.39,33.53-3.39-20.76.8-22.16.6,2-5.09,2.7-5.69,1.49-10.78,1.49-10.78-2.49,9.68-3,10.08-3.79,5.69-4.79,5.89-6.89-.9-7.88-1.4S92.65,354,89.16,353.25s-18.56,3.1-19.56,3-17.47-.4-17.86-1.2,7.78-12.68,9.78-13.18S101.34,331,102.8,329.1s9.45-18.76,9.45-18.76-10.11,15.3-11.84,16.36-20.23,4.4-21.16,4.4,3.59-9.72,4.39-10.52,11.58-7.18,11.58-7.18-13.44,5.19-14.78,6.52-5.58,10.38-6.12,10.78-15.3,4.92-17,5.59-17,21.82-17.53,21.95-1.5-14-1.5-14.9S53.83,330.43,54.9,329s5.45-20.63,6-22-2.13-11.84-2.13-11.84.4,9.71,0,10.91-6.52,19.56-7.85,20.49-12.5,8.22-13,8.22-1.73-21.13-2.79-23S22.43,292,21.5,290.51s1.59-15.7,1.59-15.7S17.77,288.65,19,292.24,22.56,301,22.56,301l-8.25-1.86c-1.2-.27-5.72-7.19-5.72-7.19s2.93,8.65,3.72,9.32,12.51,4.79,13,5.32a46,46,0,0,1,4,7.72c.26,1.2.93,12.77.93,12.77s-12-7.85-13.71-10-9.31-9.05-9.31-9.05,7.58,10.12,8.38,10.92,14.77,12.9,14.77,12.9-1.58,43.31-2.33,46.91c-2,9.53-18.63,121.06-18.63,121.06Z" style="fill:#ebebeb"></path><path d="M445.67,300.31q-1.35,2.6-2.81,5.11c-.5.83-1,1.67-1.49,2.47A31.85,31.85,0,0,1,445.67,300.31Z" style="fill:#dbdbdb"></path><path d="M439.67,310.25a23.13,23.13,0,0,0,1.7-2.36c-4.68,11.58-3.14,24.78-10.16,36.79-4.83,6.2-9.81,12.12-14.71,18.14s-9.84,12-14.51,18.11c-1.15,1.52-2.3,3.05-3.31,4.56-.24.37-.48.75-.67,1.07l-.14.24a.61.61,0,0,0-.06.13c0-.06,0,.12-.05.22-.16.62,1.84,69.85,7.23,112.61l-17.81.1c.26-15.58.65-60.39,1.28-76,0-1.19.1-2.38.15-3.56-3-3.6-5.86-7.19-8.73-10.85-1.61-2-3.21-4.11-4.78-6.21q-1.19-1.57-2.34-3.21l-1.14-1.69a18.4,18.4,0,0,1-1.17-2,4.79,4.79,0,0,1-.29-.67,5.15,5.15,0,0,1-.19-.75,9.6,9.6,0,0,1-.19-1.16c-.1-.72-.15-1.4-.2-2.07-.09-1.35-.14-2.66-.19-4l0-1.15c-.3-.18-.57-.33-.83-.5-.71-.47-1.32-.95-1.9-1.42-1.18-1-2.22-1.92-3.25-2.89-2.05-1.95-4-3.93-5.89-5.91s-3.8-4-5.71-5.83c-.47-.47-1-.93-1.43-1.36a12,12,0,0,0-1.31-1.09,15.74,15.74,0,0,0-3.37-1.43c-5.08-1.61-10.52-2.48-15.89-4.06a10,10,0,0,1-2.09-.86,2.11,2.11,0,0,1-.57-.52l-.3-.4-.62-.81-2.53-3.23-5.15-6.41,5.77,5.86,2.86,3,.71.76.36.4a1,1,0,0,0,.21.13,9.76,9.76,0,0,0,1.78.51c5.28,1,10.79,1.24,16.33,2.39a19.29,19.29,0,0,1,4.34,1.34,14.82,14.82,0,0,1,2,1.3c.59.43,1.15.88,1.7,1.31,2.19,1.75,4.29,3.52,6.39,5.28s4.19,3.49,6.3,5.11c.63.49,1.27,1,1.9,1.42-.08-4.75-.14-9.48-.4-14.17-.06-1.27-.16-2.54-.28-3.8a21.41,21.41,0,0,0-.58-3.51,12.42,12.42,0,0,0-1.83-2.82c-.77-1-1.58-2-2.38-3-3.27-4-6.61-8-9.82-12.07-1.58-2.06-3.17-4.13-4.61-6.32l-1.05-1.68c-.32-.57-.63-1.17-.92-1.78a12,12,0,0,1-.82-3.94,58.12,58.12,0,0,1,.08-7.81c.18-2.59.45-5.16.8-7.73-.21,2.58-.34,5.17-.37,7.75a53.45,53.45,0,0,0,.35,7.7,11.17,11.17,0,0,0,.93,3.58c.3.54.61,1.09.95,1.61l1.1,1.57c1.53,2.05,3.21,4,4.89,6,2.76,3.15,5.62,6.23,8.47,9.32,1.26-1.86,2.5-3.76,3.69-5.66a82.39,82.39,0,0,0,4.18-7.3c.28-.62.56-1.24.78-1.84a7.3,7.3,0,0,0,.33-1.81c.11-1.34.11-2.76.09-4.17,0-2.83-.2-5.68-.33-8.53s-.29-5.72-.36-8.58a67.26,67.26,0,0,1,.15-8.63,13.71,13.71,0,0,1,.38-2.17l.17-.55.24-.53a7.42,7.42,0,0,1,.73-.89,35.68,35.68,0,0,0,2.56-3.38c1.59-2.37,3.06-4.81,4.44-7.31-1.25,2.56-2.6,5.08-4.08,7.54a35.1,35.1,0,0,1-2.43,3.57l-.35.42c-.12.14-.16.25-.26.37l-.17.46-.13.48a15.46,15.46,0,0,0-.25,2.06,71.29,71.29,0,0,0,.28,8.5c.22,2.83.51,5.67.79,8.51s.57,5.69.76,8.57c.09,1.44.17,2.89.13,4.4a9.24,9.24,0,0,1-.35,2.41,20.23,20.23,0,0,1-.78,2.15,83.32,83.32,0,0,1-3.94,7.78c-1.26,2.27-2.58,4.49-3.94,6.7.76.83,1.51,1.66,2.24,2.53.44.48.85,1,1.28,1.54.22.29.42.6.64.9a4.2,4.2,0,0,1,.57,1.14,22.51,22.51,0,0,1,.94,4.09c.21,1.31.38,2.63.52,3.93.56,5.21.91,10.39,1.28,15.55l.59,7.71c.12,1.27.24,2.55.4,3.78.07.62.16,1.23.26,1.78.05.28.1.54.16.75s.06.13.06.19,9.58,7.92,14.4,11.89c.11-1.77.23-3.54.36-5.32.32-3.92.63-7.8,1.29-11.87a22.85,22.85,0,0,1,.74-3.3,6.76,6.76,0,0,1,.46-1.14,3,3,0,0,1,.28-.51l.24-.38c.32-.49.63-.92.95-1.34,1.25-1.66,2.5-3.16,3.78-4.67s2.51-2.9,3.77-4.34L400,371.25l-2.5-3.49c-1.66-2.34-3.31-4.71-4.86-7.24a45,45,0,0,1-2.19-3.94c-.17-.34-.32-.73-.48-1.09a10.84,10.84,0,0,1-.45-1.16,8.16,8.16,0,0,1-.35-1.28,7,7,0,0,1-.18-1.42,31.71,31.71,0,0,1,.41-4.6c.23-1.43.48-2.86.75-4.27,1.08-5.63,2.39-11.17,3.75-16.7l.52-2.08c.08-.33.21-.74.25-1a4.78,4.78,0,0,0,0-.85,26.33,26.33,0,0,0-.9-4.07c-.77-2.71-1.69-5.4-2.67-8.07,1.24,2.56,2.42,5.15,3.48,7.8a28.27,28.27,0,0,1,1.36,4.14,4.47,4.47,0,0,1,.1,1.26c0,.45-.11.72-.15,1.09l-.31,2.1c-.79,5.61-1.52,11.25-2,16.86-.12,1.4-.23,2.8-.3,4.18a28.08,28.08,0,0,0,0,3.91,9.19,9.19,0,0,0,1.34,3,37.54,37.54,0,0,0,2.29,3.29c1.66,2.18,3.47,4.3,5.32,6.41l2.81,3.18.66.74c2.45-2.71,4.9-5.4,7.36-8.1l7.12-7.79c-1.71-6.3-3.51-12.63-5.42-18.87-1-3.18-2-6.45-3.21-9.4l-.22-.55a9.44,9.44,0,0,1-.32-.89,7.86,7.86,0,0,1-.22-1.61,14.5,14.5,0,0,1,.2-2.85,36.6,36.6,0,0,1,1.25-5.13,182.33,182.33,0,0,1,7.61-18.93c.68-1.55,1.36-3.09,2-4.63a13.65,13.65,0,0,0,.79-2.3,5.7,5.7,0,0,0-.18-2.34,29.58,29.58,0,0,0-4.7-8.82,29.63,29.63,0,0,1,5.39,8.62,6.49,6.49,0,0,1,.37,2.66,13.88,13.88,0,0,1-.66,2.54c-.53,1.63-1.11,3.21-1.68,4.81A181.27,181.27,0,0,0,415,313.52a36,36,0,0,0-.82,4.78,10.1,10.1,0,0,0,0,2.2,5,5,0,0,0,.18.89c0,.1.09.19.13.29l.3.6c1.58,3.2,2.77,6.34,4,9.52,2,5.14,3.88,10.3,5.72,15.5,1.38-1.56,2.75-3.11,4.11-4.68a22.42,22.42,0,0,0,1.66-2.08,17.15,17.15,0,0,0,1.15-2.39c.69-1.73,1.27-3.56,1.82-5.4,1.1-3.68,2-7.44,3-11.21l1.46-5.65c.25-.94.51-1.88.81-2.82A12.93,12.93,0,0,1,439.67,310.25Z" style="fill:#dbdbdb"></path><path d="M460.28,499.86s-2.74-74.66-3-75.84-1.14-20.3-1.63-21.8-16-3.41-18.54-4.3-10.53-3-12.75-2.37-18.09,9.19-20.61,10.08-24.91-2.52-24.91-2.52,15.42.59,16.46.44-1.48-3.78-2-4.22-1.12-8-1.12-8,1.86,7.19,2.23,7.49,2.82,4.23,3.56,4.37a23.06,23.06,0,0,0,5.85-1c.75-.37,18.09-10.68,20.69-11.2s13.79,2.3,14.53,2.23,13-.3,13.27-.89-5.78-9.42-7.27-9.79-29.58-8.11-30.66-9.49-7-13.94-7-13.94,7.51,11.37,8.8,12.16,15,3.26,15.71,3.26-2.67-7.21-3.26-7.81-8.6-5.33-8.6-5.33,10,3.85,11,4.84,4.15,7.71,4.55,8,11.37,3.65,12.65,4.15,12.63,16.21,13,16.31,1.11-10.38,1.11-11.07-11.57-9.59-12.36-10.68-4.05-15.32-4.45-16.31,1.59-8.8,1.59-8.8-.3,7.22,0,8.11,4.84,14.53,5.83,15.22,9.29,6.11,9.68,6.11,1.29-15.7,2.08-17.08,9.39-14.73,10.08-15.82-1.18-11.66-1.18-11.66,3.95,10.28,3.06,12.95-2.67,6.52-2.67,6.52l6.13-1.38c.89-.2,4.25-5.34,4.25-5.34s-2.17,6.43-2.77,6.92-9.29,3.56-9.68,3.95a34.59,34.59,0,0,0-3,5.74c-.2.89-.69,9.49-.69,9.49s8.9-5.83,10.18-7.42,6.92-6.72,6.92-6.72-5.63,7.51-6.23,8.11-11,9.59-11,9.59,1.18,32.16,1.73,34.84c1.46,7.08,13.84,89.93,13.84,89.93Z" style="fill:#ebebeb"></path><path d="M325.1,499.86s2.2-59.84,2.43-60.79.92-16.26,1.31-17.47,12.84-2.73,14.86-3.44,8.43-2.38,10.22-1.9,14.49,7.37,16.51,8.08,20-2,20-2-12.36.47-13.19.35,1.19-3,1.6-3.38.89-6.42.89-6.42a59.48,59.48,0,0,1-1.78,6c-.3.24-2.26,3.39-2.85,3.51a18.8,18.8,0,0,1-4.69-.83c-.6-.3-14.5-8.56-16.58-9s-11.05,1.85-11.65,1.79-10.4-.24-10.63-.72,4.63-7.54,5.82-7.84,23.71-6.5,24.58-7.61S367.54,387,367.54,387s-6,9.11-7.05,9.75-12,2.61-12.59,2.61,2.13-5.78,2.61-6.26,6.89-4.27,6.89-4.27-8,3.09-8.79,3.88-3.33,6.18-3.65,6.41-9.11,2.94-10.14,3.33-10.12,13-10.43,13.07-.9-8.31-.9-8.87,9.27-7.68,9.91-8.56S336.65,385.84,337,385s-1.27-7.05-1.27-7.05a58.33,58.33,0,0,1,0,6.5c-.23.71-3.88,11.64-4.67,12.2s-7.45,4.89-7.76,4.89-1-12.58-1.67-13.69-7.52-11.8-8.08-12.67.95-9.35.95-9.35-3.17,8.24-2.45,10.38,2.14,5.23,2.14,5.23l-4.92-1.11c-.71-.16-3.4-4.28-3.4-4.28s1.74,5.15,2.22,5.55,7.44,2.85,7.76,3.17a27.34,27.34,0,0,1,2.38,4.59c.15.71.55,7.61.55,7.61s-7.13-4.68-8.16-5.95-5.55-5.38-5.55-5.38,4.52,6,5,6.49,8.79,7.69,8.79,7.69-.94,25.78-1.39,27.92c-1.17,5.68-11.09,72.08-11.09,72.08Z" style="fill:#ebebeb"></path></g><g id="freepik--Moon--inject-184"><circle cx="321.59" cy="161.16" r="117.17" style="fill:#fff"></circle><circle cx="321.59" cy="161.16" r="117.17" style="fill:#FF81AE"></circle><circle cx="321.59" cy="161.16" r="117.17" style="fill:#fff;opacity:0.7000000000000001"></circle><path d="M261.18,213.56a10.44,10.44,0,0,1,3.35,7.52,11.5,11.5,0,0,1-3.32,8.28,10.27,10.27,0,0,1-8.58,2.94,12.23,12.23,0,0,1-7.37-3.52,37.89,37.89,0,0,0,7.28-.5,9.12,9.12,0,0,0,5-2.51,11.92,11.92,0,0,0,3-5.1A21.67,21.67,0,0,0,261.18,213.56Z" style="opacity:0.1"></path><path d="M246.67,224.94a6.7,6.7,0,0,1-2.91-5.19,8,8,0,0,1,2.31-6.14,7.29,7.29,0,0,1,6.41-2.07,7.62,7.62,0,0,1,5,3,40.19,40.19,0,0,0-4.94,1,6.16,6.16,0,0,0-2.85,1.65,8.91,8.91,0,0,0-2,3A17.43,17.43,0,0,0,246.67,224.94Z" style="opacity:0.1"></path><path d="M404.33,103.27a10.46,10.46,0,0,1-2.5,7.85,11.49,11.49,0,0,1-8,4,10.27,10.27,0,0,1-8.37-3.5,12.28,12.28,0,0,1-3.16-7.53,38.49,38.49,0,0,0,5.77,4.46,9.08,9.08,0,0,0,5.43,1.47,12,12,0,0,0,5.6-1.84A21.61,21.61,0,0,0,404.33,103.27Z" style="opacity:0.1"></path><path d="M385.92,102.13a6.71,6.71,0,0,1,1.27-5.81,8,8,0,0,1,5.81-3A7.27,7.27,0,0,1,399.16,96a7.64,7.64,0,0,1,1.74,5.61A38.16,38.16,0,0,0,396.56,99a6.29,6.29,0,0,0-3.23-.67,9.14,9.14,0,0,0-3.43.91A17.34,17.34,0,0,0,385.92,102.13Z" style="opacity:0.1"></path><g style="opacity:0.1"><path d="M389.91,165.88a19.9,19.9,0,0,1,14.65,10.64,22,22,0,1,0-34.39,20.34,20.08,20.08,0,0,1,19.74-31Z"></path></g><path d="M413.06,174.26a28.54,28.54,0,0,1-.42,17.19,33.59,33.59,0,0,1-9.82,14.67c-4.56,3.92-10.66,6.54-16.74,6.19A26.15,26.15,0,0,1,370,206.07a35.09,35.09,0,0,0,16,2.84,32.83,32.83,0,0,0,3.85-.61,21.67,21.67,0,0,0,3.62-1.3,24.5,24.5,0,0,0,6.49-4.16c1-.87,2-1.79,2.87-2.74s1.79-2,2.54-3a34.92,34.92,0,0,0,4.11-6.82A40.21,40.21,0,0,0,413.06,174.26Z" style="opacity:0.1"></path><path d="M265,97.59A8.72,8.72,0,0,1,271,102.7a9.65,9.65,0,1,0-15.65,7.81A8.79,8.79,0,0,1,265,97.59Z" style="opacity:0.1"></path><path d="M274.81,102a12,12,0,0,1-.49,7.61,14.54,14.54,0,0,1-4.77,6.25,10.74,10.74,0,0,1-7.72,2.18,11.07,11.07,0,0,1-6.81-3.48,16.25,16.25,0,0,0,6.91,1.48,10.47,10.47,0,0,0,6.08-2.22A17.47,17.47,0,0,0,274.81,102Z" style="opacity:0.1"></path><path d="M302.62,233.39a12.39,12.39,0,0,1,9.74,5.65,13.7,13.7,0,1,0-20,14.78,12.49,12.49,0,0,1,10.24-20.43Z" style="opacity:0.1"></path><path d="M317.48,237.1a18,18,0,0,1,.78,10.65,20.91,20.91,0,0,1-5.14,9.67,15.07,15.07,0,0,1-9.92,4.89,16.43,16.43,0,0,1-10.34-2.78,21.45,21.45,0,0,0,10.09.8,14.91,14.91,0,0,0,8.3-4.65,23.27,23.27,0,0,0,5.09-8.45A24.5,24.5,0,0,0,317.48,237.1Z" style="opacity:0.1"></path></g><g id="freepik--Hill--inject-184"><path d="M361.49,500H26.39C36,461.1,43.7,431,44,429.94v0s38.21-18.66,36.84-30.25A58.14,58.14,0,0,0,79,391.14a202.87,202.87,0,0,0-8.22-22.46s0,0,0,0L70.06,367l0,0a0,0,0,0,1,0,0h0l235.77-8.61v0c.49,1.12,16.49,37.52,32.37,77.75,2.43,6.14,4.85,12.37,7.22,18.57,4.89,12.86,9.54,25.61,13.45,37.28C359.78,494.72,360.65,497.39,361.49,500Z" style="fill:#37474f"></path><path d="M500,460.18V500H289.09c-11.36-2.59-23.68-5.15-36.56-7.73,1.52.51,2.36.81,2.36.81s-.57,3.06-1.46,6.92H239.27c-1.71-4.47-3.19-8.24-4-8.59-2-.9-7.71,1.14-10.51,3.75-.26.24-.66,2.07-1.18,4.84H205.18c-1.22-7-2.29-12.2-3.11-12.2-1.24,0-1.54,6-2,12.2H187.68c-4.78-10-9.45-22-9.45-22,.42,0,.85,0,1.26,0-32.64-6.55-64.14-13.52-88.64-21.31l.64.32a34.32,34.32,0,0,0-5.74.28c-1.15.38-2.27,20.58-4.28,20.58s-4.22-13.91-4.92-17-6.25-7.3-10.08-5.57,3.14,36.17,0,36.17-15.65-50.08-19.24-56.58A18.91,18.91,0,0,1,44,429.94a12.31,12.31,0,0,1-1.08-5c0-12.63,21.39-24.53,36.09-33.82,7.68-4.87,13.54-9,13.54-12.19,0-3.58-17.62-3.75-21.76-10.27,0,0,0,0,0,0a5.26,5.26,0,0,1-.71-1.65l0,0v0c-1.9-8.22,36.52-31.14,154.29-29.62,6.52.09,81.22,4.37,81.49,21v0c.1,8.09-12.43,8.58-29.9,17.71l.43-.21s-2,14.91-3.4,14.72-2.2-8.37-3-8.37-2,1.59-3,2.47S265,399,262.79,399s-4.33-14.25-4.52-14.25c-40.12,11.45-87.15,19.08-87.15,29.71,0,9,71.95,11.64,167.07,21.72C388.1,441.42,444.38,448.77,500,460.18Z" style="fill:#455a64"></path><path d="M500,482.27V500H387.05c-7.34-2.78-15.36-5.45-23.9-8C261,461.24,83.75,444.57,83.75,420.32c0-16.29,91.73-46.07,91.73-46.07h35.94s-76.1,30.32-76.1,37.92c0,15.52,70.62,26.4,214.38,42.53q11.88,1.33,24.45,2.72C420,462.47,461.25,471.89,500,482.27Z" style="fill:#37474f;opacity:0.6000000000000001"></path></g><g id="freepik--House--inject-184"><polygon points="77.96 192.75 145.99 190.4 145.99 355.19 84.78 355.19 77.96 192.75" style="fill:#37474f"></polygon><path d="M78.84,198c5.59-.36,11.18-.64,16.78-.9l16.78-.68,16.79-.49c5.6-.14,11.2-.26,16.8-.29-5.59.37-11.18.64-16.78.9l-16.78.68-16.79.49C90,197.87,84.44,198,78.84,198Z" style="fill:#263238"></path><path d="M79,202.11c5.57-.36,11.15-.64,16.73-.9l16.73-.68,16.74-.49c5.58-.14,11.17-.26,16.75-.29-5.57.37-11.15.64-16.73.9l-16.73.68-16.74.49C90.21,202,84.62,202.08,79,202.11Z" style="fill:#263238"></path><path d="M79.14,208.51c5.56-.36,11.13-.62,16.7-.88l16.71-.67,16.72-.49c5.57-.13,11.14-.24,16.72-.27-5.56.36-11.13.63-16.7.88l-16.71.67-16.72.49C90.29,208.37,84.71,208.48,79.14,208.51Z" style="fill:#263238"></path><path d="M82.78,213.65c5.26-.34,10.53-.6,15.79-.85l15.8-.64,15.81-.45c5.27-.12,10.54-.23,15.81-.24-5.26.34-10.52.6-15.79.85l-15.8.64-15.8.45C93.33,213.53,88.06,213.63,82.78,213.65Z" style="fill:#263238"></path><path d="M83.85,220.07c5.17-.35,10.35-.6,15.53-.84l15.53-.63,15.54-.45c5.18-.12,10.36-.22,15.54-.23-5.17.34-10.35.6-15.52.84l-15.53.63-15.54.45C94.22,220,89,220.05,83.85,220.07Z" style="fill:#263238"></path><path d="M80.08,224.35c5.49-.36,11-.63,16.47-.89l16.47-.68,16.48-.5c5.5-.13,11-.25,16.49-.28-5.48.36-11,.63-16.47.9l-16.47.67-16.48.5C91.07,224.2,85.58,224.32,80.08,224.35Z" style="fill:#263238"></path><path d="M80.36,229.62c5.47-.36,10.93-.63,16.4-.89l16.4-.68,16.41-.5c5.48-.13,11-.25,16.42-.28-5.46.36-10.93.63-16.39.89l-16.41.68-16.41.5C91.31,229.47,85.84,229.59,80.36,229.62Z" style="fill:#263238"></path><path d="M82,234.89c5.32-.36,10.65-.63,16-.89l16-.69,16-.49c5.33-.13,10.66-.25,16-.28-5.32.36-10.65.63-16,.89l-16,.68-16,.5C92.69,234.74,87.35,234.86,82,234.89Z" style="fill:#263238"></path><path d="M82,240.16c5.32-.36,10.65-.64,16-.9l16-.68,16-.49c5.33-.14,10.66-.26,16-.29-5.32.36-10.65.64-16,.9l-16,.68-16,.49C92.69,240,87.35,240.12,82,240.16Z" style="fill:#263238"></path><path d="M81.08,245.42c5.4-.35,10.81-.61,16.22-.86l16.22-.66,16.23-.47c5.41-.12,10.83-.23,16.24-.25-5.4.35-10.81.61-16.22.87l-16.22.65-16.23.47C91.9,245.29,86.49,245.4,81.08,245.42Z" style="fill:#263238"></path><path d="M92.55,250.19c4.45-.32,8.9-.55,13.35-.77l13.36-.56,13.36-.37c4.46-.09,8.91-.16,13.37-.15-4.45.32-8.9.55-13.35.77l-13.35.55-13.37.37C101.47,250.12,97,250.2,92.55,250.19Z" style="fill:#263238"></path><path d="M82,255.82c5.32-.35,10.65-.61,16-.86l16-.65,16-.46c5.33-.12,10.66-.23,16-.25-5.32.35-10.65.62-16,.86l-16,.65-16,.46C92.69,255.69,87.35,255.8,82,255.82Z" style="fill:#263238"></path><path d="M82.79,261.06c5.26-.35,10.52-.61,15.79-.85l15.8-.64,15.8-.46c5.27-.12,10.54-.22,15.81-.24-5.26.35-10.52.61-15.79.86l-15.8.63-15.8.46C93.33,260.94,88.06,261,82.79,261.06Z" style="fill:#263238"></path><path d="M82.79,266.33c5.26-.35,10.52-.61,15.79-.85l15.8-.64,15.8-.46c5.27-.12,10.54-.22,15.81-.24-5.26.35-10.52.61-15.79.85l-15.8.64-15.8.45C93.33,266.2,88.06,266.31,82.79,266.33Z" style="fill:#263238"></path><path d="M87,270c4.91-.34,9.83-.58,14.75-.82l14.75-.6,14.76-.42c4.92-.11,9.85-.2,14.77-.21-4.91.34-9.83.59-14.75.82l-14.75.6-14.76.42C96.81,269.94,91.88,270,87,270Z" style="fill:#263238"></path><path d="M84,276.82c5.16-.34,10.32-.6,15.48-.84l15.49-.63,15.5-.45c5.16-.11,10.33-.21,15.5-.23-5.16.35-10.32.6-15.48.85l-15.49.62-15.5.45C94.36,276.7,89.19,276.8,84,276.82Z" style="fill:#263238"></path><path d="M82,282.62c5.32-.34,10.65-.61,16-.85l16-.65,16-.46c5.33-.12,10.66-.23,16-.25-5.32.35-10.65.61-16,.86l-16,.65-16,.46C92.69,282.5,87.35,282.6,82,282.62Z" style="fill:#263238"></path><path d="M83.6,287.37c5.19-.35,10.39-.6,15.59-.85l15.59-.63,15.6-.45c5.2-.11,10.41-.22,15.61-.23-5.19.34-10.39.6-15.59.84l-15.59.64-15.6.44C94,287.25,88.81,287.35,83.6,287.37Z" style="fill:#263238"></path><path d="M83.25,292.65c5.23-.35,10.45-.61,15.68-.85l15.68-.64,15.69-.45c5.23-.11,10.46-.22,15.69-.23-5.22.34-10.45.6-15.67.85l-15.68.63L99,292.41C93.72,292.53,88.49,292.63,83.25,292.65Z" style="fill:#263238"></path><path d="M83.6,296.35c5.19-.34,10.39-.6,15.59-.84l15.59-.63,15.6-.45c5.2-.12,10.41-.22,15.61-.23-5.19.34-10.39.6-15.59.84l-15.59.63-15.6.45C94,296.24,88.81,296.34,83.6,296.35Z" style="fill:#263238"></path><path d="M83.6,303.17c5.19-.34,10.39-.6,15.59-.84l15.59-.64,15.6-.45c5.2-.11,10.41-.21,15.61-.23-5.19.35-10.39.6-15.59.85l-15.59.63-15.6.45C94,303.05,88.81,303.15,83.6,303.17Z" style="fill:#263238"></path><path d="M84,307.41c5.16-.34,10.32-.59,15.48-.84l15.49-.63,15.5-.44c5.16-.11,10.33-.22,15.5-.23-5.16.34-10.32.6-15.48.84l-15.49.63-15.5.44C94.36,307.3,89.19,307.4,84,307.41Z" style="fill:#263238"></path><path d="M86.85,313.59c4.92-.33,9.85-.58,14.77-.81l14.79-.61,14.79-.42c4.93-.1,9.86-.2,14.79-.2-4.92.33-9.85.58-14.77.81l-14.79.61-14.78.42C96.71,313.49,91.78,313.59,86.85,313.59Z" style="fill:#263238"></path><path d="M84.73,320c5.1-.34,10.2-.59,15.31-.83l15.31-.62,15.32-.44c5.1-.12,10.21-.22,15.32-.23-5.1.35-10.2.6-15.3.84l-15.31.62-15.32.44C95,319.88,89.84,320,84.73,320Z" style="fill:#263238"></path><path d="M86.38,324.14c5-.33,9.93-.58,14.89-.82l14.9-.61,14.91-.42c5-.11,9.94-.2,14.91-.21-5,.34-9.93.59-14.89.82l-14.9.61-14.91.42C96.32,324,91.35,324.14,86.38,324.14Z" style="fill:#263238"></path><path d="M85.2,329.45c5.06-.34,10.12-.59,15.19-.83l15.19-.62,15.2-.43c5.07-.11,10.14-.21,15.21-.22-5.06.34-10.12.59-15.19.83l-15.19.62-15.2.43C95.34,329.34,90.27,329.44,85.2,329.45Z" style="fill:#263238"></path><path d="M86.61,334.67c4.94-.33,9.88-.58,14.83-.82l14.84-.6,14.85-.43c5-.1,9.91-.2,14.86-.2-4.94.33-9.89.58-14.83.82l-14.85.6-14.85.42C96.51,334.57,91.56,334.66,86.61,334.67Z" style="fill:#263238"></path><path d="M85.66,340c5-.34,10-.59,15.08-.83l15.07-.61,15.09-.43c5-.11,10.06-.21,15.09-.22-5,.34-10,.59-15.07.83l-15.08.61-15.08.43C95.73,339.86,90.7,340,85.66,340Z" style="fill:#263238"></path><path d="M85.66,345.24c5-.34,10-.59,15.08-.83l15.07-.61,15.09-.43c5-.11,10.06-.21,15.09-.22-5,.34-10,.59-15.07.83l-15.08.61-15.08.43C95.73,345.13,90.7,345.23,85.66,345.24Z" style="fill:#263238"></path><path d="M86.38,348.73c5-.34,9.93-.59,14.89-.83l14.9-.6,14.91-.43c5-.11,9.94-.2,14.91-.21-5,.34-9.93.59-14.89.82l-14.9.61-14.91.42C96.32,348.62,91.35,348.72,86.38,348.73Z" style="fill:#263238"></path><path d="M86.85,355.19H82.79l-6.34-162.4,3.85-.1Z" style="fill:#455a64"></path><polygon points="61.96 234.63 62.68 238.42 78.22 237.8 78.05 233.81 61.96 234.63" style="fill:#455a64"></polygon><polygon points="78.93 256.19 79.03 258.73 64.89 258.87 64.48 256.14 78.93 256.19" style="fill:#455a64"></polygon><polygon points="66.55 258.86 68.54 263.02 79.35 267.14 79.03 258.73 66.55 258.86" style="fill:#455a64"></polygon><polygon points="79.13 261.3 67.24 260.31 66.55 258.86 79.03 258.73 79.13 261.3" style="fill:#37474f"></polygon><polygon points="66.42 256.14 65.48 238.31 66.98 238.25 67.48 256.15 66.42 256.14" style="fill:#455a64"></polygon><polygon points="69.65 256.15 68.9 238.17 70.43 238.11 70.71 256.16 69.65 256.15" style="fill:#455a64"></polygon><polygon points="72.9 256.17 72.15 238.04 73.69 237.98 73.96 256.17 72.9 256.17" style="fill:#455a64"></polygon><polygon points="76.14 256.18 75.35 237.92 76.8 237.86 77.19 256.19 76.14 256.18" style="fill:#455a64"></polygon><polygon points="66.98 238.25 67 239.01 65.52 239.1 65.48 238.31 66.98 238.25" style="fill:#37474f"></polygon><polygon points="70.43 238.11 70.44 238.81 68.93 238.9 68.9 238.17 70.43 238.11" style="fill:#37474f"></polygon><polygon points="73.69 237.98 73.7 238.62 72.18 238.71 72.15 238.04 73.69 237.98" style="fill:#37474f"></polygon><polygon points="76.81 238.44 75.37 238.52 75.34 237.92 76.8 237.86 76.81 238.44" style="fill:#37474f"></polygon><polygon points="145.99 190.4 145.99 355.19 140.17 355.19 127.69 191.03 145.99 190.4" style="fill:#263238;opacity:0.4"></polygon><path d="M146,190.4l-81.92,2.82-.71-5.65s16-22.13,16.25-44l70.17-3.92Z" style="fill:#263238"></path><polygon points="77.75 143.66 149.78 139.63 149.78 134.84 77.38 139.25 77.75 143.66" style="fill:#263238"></polygon><polygon points="71.45 192.97 72.37 195.95 78.22 199.08 77.96 192.74 71.45 192.97" style="fill:#263238"></polygon><polygon points="79.86 192.68 81.24 196.84 82.78 196.84 82.24 192.59 79.86 192.68" style="fill:#263238"></polygon><polygon points="85.29 192.49 86.08 196.63 87.51 196.63 87.51 192.41 85.29 192.49" style="fill:#263238"></polygon><path d="M90.21,192.32c0,.06.42,4.11.42,4.11l1.58-.07.29-4.12Z" style="fill:#263238"></path><polygon points="94.92 192.16 97 192.09 97 196.02 95.53 196.02 94.92 192.16" style="fill:#263238"></polygon><polygon points="99.35 192 101.15 191.94 101.15 195.76 99.92 195.82 99.35 192" style="fill:#263238"></polygon><polygon points="103.85 191.85 105.92 191.77 105.55 195.59 104.22 195.59 103.85 191.85" style="fill:#263238"></polygon><polygon points="108.15 191.7 110.02 191.64 109.87 195.59 108.55 195.59 108.15 191.7" style="fill:#263238"></polygon><polygon points="112.3 191.56 114.16 191.49 114.16 195.59 112.81 195.59 112.3 191.56" style="fill:#263238"></polygon><polygon points="116.59 191.41 118.44 191.35 118.26 195.52 117.12 195.59 116.59 191.41" style="fill:#263238"></polygon><polygon points="121.13 191.25 122.96 191.19 122.96 194.87 121.52 194.96 121.13 191.25" style="fill:#263238"></polygon><polygon points="125.7 191.1 127.48 191.03 127.48 194.67 126.27 194.78 125.7 191.1" style="fill:#263238"></polygon><polygon points="129.84 190.95 131.81 190.88 131.65 194.52 130.35 194.52 129.84 190.95" style="fill:#263238"></polygon><polygon points="134.24 190.8 135.96 190.74 135.72 194.29 134.46 194.38 134.24 190.8" style="fill:#263238"></polygon><polygon points="138.63 190.65 140.62 190.58 140.33 194.29 139.2 194.38 138.63 190.65" style="fill:#263238"></polygon><polygon points="142.84 190.5 144.72 190.46 144.39 194.05 143.13 194.14 142.84 190.5" style="fill:#263238"></polygon><path d="M79.61,143.55c5.83-.53,11.67-1,17.52-1.36s11.69-.73,17.53-1.1,11.7-.61,17.55-.86l8.78-.35c2.93-.08,5.86-.2,8.79-.25-2.92.28-5.84.49-8.76.74l-8.77.63c-5.84.4-11.69.73-17.53,1.09s-11.7.62-17.55.86S85.46,143.43,79.61,143.55Z" style="fill:#455a64"></path><path d="M82,147a8.21,8.21,0,0,0-.18,3.07,1.78,1.78,0,0,0,.64,1.21,1.19,1.19,0,0,0,1.25.06,7.25,7.25,0,0,0,2.21-2,21.08,21.08,0,0,0,1.72-2.55l.67-1.16,0,1.36a8.44,8.44,0,0,0,.52,3.09,2.29,2.29,0,0,0,.89,1.12,2,2,0,0,0,1.38.16,5.34,5.34,0,0,0,2.59-1.73,15.09,15.09,0,0,0,2-2.65A12.81,12.81,0,0,1,94,149.92,5.74,5.74,0,0,1,91.28,152a2.45,2.45,0,0,1-1.85-.16,3.06,3.06,0,0,1-1.19-1.41,8.43,8.43,0,0,1-.63-3.39l.69.19a20.77,20.77,0,0,1-1.84,2.61,6.74,6.74,0,0,1-2.52,2.07,1.74,1.74,0,0,1-1.74-.21,2.14,2.14,0,0,1-.71-1.53A7.63,7.63,0,0,1,82,147Z" style="fill:#455a64"></path><path d="M104.73,154.57a10.51,10.51,0,0,0,.54,3.58,3.56,3.56,0,0,0,.93,1.47,2.12,2.12,0,0,0,1.55.52,4.48,4.48,0,0,0,2.76-1.95,16.74,16.74,0,0,0,1.82-3.08l.47-1,.15,1.1a7.83,7.83,0,0,0,1.27,3.47,3.26,3.26,0,0,0,1.33,1.12,2.23,2.23,0,0,0,1.64.12,6.7,6.7,0,0,0,2.83-2.28,20.43,20.43,0,0,0,2.07-3.21l.47-.89.16,1a12,12,0,0,0,1.15,3.61,3.25,3.25,0,0,0,2.78,2,5.08,5.08,0,0,0,3.21-1.79,16.14,16.14,0,0,0,2.3-3.14,14.62,14.62,0,0,1-2.11,3.31,5.14,5.14,0,0,1-3.38,2.07,3.09,3.09,0,0,1-2-.63,5.38,5.38,0,0,1-1.33-1.57,11.69,11.69,0,0,1-1.29-3.81l.63.1a20.23,20.23,0,0,1-2.12,3.36,7,7,0,0,1-3.16,2.55,3.47,3.47,0,0,1-3.76-1.54,8.57,8.57,0,0,1-1.35-3.81l.62.1a14.65,14.65,0,0,1-2,3.17,7.35,7.35,0,0,1-1.36,1.31,3.32,3.32,0,0,1-1.8.71,2.4,2.4,0,0,1-1.81-.68,3.84,3.84,0,0,1-.93-1.65A9.88,9.88,0,0,1,104.73,154.57Z" style="fill:#455a64"></path><path d="M79.46,175.29A6.69,6.69,0,0,0,80,178.5a2.22,2.22,0,0,0,1.1,1.06,2.31,2.31,0,0,0,1.51.08,5.94,5.94,0,0,0,2.55-1.86,17,17,0,0,0,1.89-2.65l.45-.77.16.88a8.33,8.33,0,0,0,1.1,3,2.51,2.51,0,0,0,2.4,1.35,4.24,4.24,0,0,0,2.46-1.66,12.86,12.86,0,0,0,1.7-2.73l.76-1.62L96,175.32a5.29,5.29,0,0,0,.7,3.21,2.92,2.92,0,0,0,2.88,1.15,5.82,5.82,0,0,0,3-1.62,13.76,13.76,0,0,0,2.2-2.77,12.07,12.07,0,0,1-2,3,5.72,5.72,0,0,1-3.09,1.89,3.87,3.87,0,0,1-1.88-.13,3.15,3.15,0,0,1-1.56-1.13,5.57,5.57,0,0,1-.87-3.61l.63.16a13.34,13.34,0,0,1-1.76,2.92,4.79,4.79,0,0,1-2.92,1.95,2.94,2.94,0,0,1-1.82-.41,4.11,4.11,0,0,1-1.26-1.3A8.86,8.86,0,0,1,87,175.34l.6.11a14.69,14.69,0,0,1-2,2.71,6.34,6.34,0,0,1-2.86,1.89,2.6,2.6,0,0,1-1.76-.16,2.53,2.53,0,0,1-1.18-1.28A6.38,6.38,0,0,1,79.46,175.29Z" style="fill:#455a64"></path><path d="M124.89,180.43a9.07,9.07,0,0,0,1.22,3.11,3.21,3.21,0,0,0,1.12,1.11,2.15,2.15,0,0,0,1.47.22,4.79,4.79,0,0,0,2.55-1.79,13.9,13.9,0,0,0,1.73-2.8l.54-1.14.17,1.25a6.26,6.26,0,0,0,1,2.76,2.52,2.52,0,0,0,2.43,1.1,4.14,4.14,0,0,0,2.42-1.61,12.48,12.48,0,0,0,1.65-2.66,10.38,10.38,0,0,1-1.37,2.87,4.49,4.49,0,0,1-2.61,2,2.91,2.91,0,0,1-1.72-.17,3.31,3.31,0,0,1-1.34-1.08,6.88,6.88,0,0,1-1.2-3.09l.71.11a13.13,13.13,0,0,1-1.88,2.94,5.06,5.06,0,0,1-3,1.93,2.69,2.69,0,0,1-1.8-.38,3.63,3.63,0,0,1-1.2-1.33A8.52,8.52,0,0,1,124.89,180.43Z" style="fill:#455a64"></path><path d="M120,149.1a9.07,9.07,0,0,0,1.22,3.11,3.3,3.3,0,0,0,1.12,1.11,2.15,2.15,0,0,0,1.47.21,4.72,4.72,0,0,0,2.55-1.78,13.9,13.9,0,0,0,1.73-2.8l.54-1.14.17,1.24a6.25,6.25,0,0,0,1,2.77,2.52,2.52,0,0,0,2.43,1.1,4.11,4.11,0,0,0,2.42-1.62,12.16,12.16,0,0,0,1.65-2.65,10.82,10.82,0,0,1-1.37,2.87,4.53,4.53,0,0,1-2.61,2,3,3,0,0,1-1.72-.17,3.34,3.34,0,0,1-1.34-1.09,6.73,6.73,0,0,1-1.2-3.08l.71.11a13.13,13.13,0,0,1-1.88,2.94,5.11,5.11,0,0,1-3,1.93,2.73,2.73,0,0,1-1.81-.38,3.77,3.77,0,0,1-1.19-1.33A8.35,8.35,0,0,1,120,149.1Z" style="fill:#455a64"></path><path d="M93,169.09a9.31,9.31,0,0,0,1.21,3.12,3.33,3.33,0,0,0,1.13,1.11,2.15,2.15,0,0,0,1.47.21,4.77,4.77,0,0,0,2.55-1.78,14.25,14.25,0,0,0,1.73-2.81l.54-1.13.16,1.24a6.25,6.25,0,0,0,1,2.77,2.55,2.55,0,0,0,2.43,1.1,4.05,4.05,0,0,0,2.42-1.62,11.79,11.79,0,0,0,1.65-2.65,10.49,10.49,0,0,1-1.36,2.87,4.51,4.51,0,0,1-2.61,1.95,2.9,2.9,0,0,1-1.72-.16,3.44,3.44,0,0,1-1.35-1.09,6.82,6.82,0,0,1-1.19-3.09l.7.11a12.63,12.63,0,0,1-1.88,2.95,5.05,5.05,0,0,1-3,1.92,2.62,2.62,0,0,1-1.81-.38,3.64,3.64,0,0,1-1.2-1.33A8.42,8.42,0,0,1,93,169.09Z" style="fill:#455a64"></path><polygon points="100.36 240.25 123.59 240.25 122.98 245.38 101 245.38 100.36 240.25" style="fill:#455a64"></polygon><polygon points="104.53 240.25 118.39 240.25 119.45 209.88 102.23 210.41 104.53 240.25" style="fill:#263238"></polygon><polygon points="102.23 210.41 93.67 207.14 97.95 242.28 104.53 240.25 102.23 210.41" style="fill:#455a64"></polygon><polygon points="119.45 209.88 127.31 206.34 125.58 242.1 118.39 240.25 119.45 209.88" style="fill:#455a64"></polygon><polygon points="109.5 210.18 111.5 210.12 111.97 240.25 110.74 240.25 109.5 210.18" style="fill:#37474f"></polygon><polygon points="103.09 221.48 103.19 222.77 118.99 223.05 119.06 221.11 103.09 221.48" style="fill:#37474f"></polygon><polygon points="103.95 232.76 103.81 230.82 118.71 231.13 118.67 232.3 103.95 232.76" style="fill:#37474f"></polygon><polygon points="100.36 312.75 123.59 312.75 122.98 317.89 101 317.89 100.36 312.75" style="fill:#455a64"></polygon><polygon points="104.53 312.75 118.39 312.75 119.45 282.38 102.23 282.91 104.53 312.75" style="fill:#FF81AE"></polygon><polygon points="102.23 282.91 93.67 279.65 97.95 314.78 104.53 312.75 102.23 282.91" style="fill:#455a64"></polygon><polygon points="119.45 282.38 127.31 278.85 125.58 314.61 118.39 312.75 119.45 282.38" style="fill:#455a64"></polygon><polygon points="109.86 282.69 111.64 282.62 111.97 312.75 110.74 312.75 109.86 282.69" style="fill:#263238"></polygon><polygon points="103.09 293.99 103.19 295.27 119.01 295.02 119.06 293.62 103.09 293.99" style="fill:#263238"></polygon><polygon points="103.95 305.27 103.85 303.9 118.71 303.63 118.67 304.81 103.95 305.27" style="fill:#263238"></polygon><polygon points="79.78 256.96 145.99 253.6 145.99 258.08 80.08 260.43 79.78 256.96" style="fill:#455a64"></polygon><polygon points="114.2 137 113.03 53.53 125.63 36.82 142.93 41.65 148.46 60.6 146.81 135.02 114.2 137" style="fill:#37474f"></polygon><path d="M123.12,40.57c2.69-.17,5.37-.13,8.06-.11s5.37.14,8,.41c-2.69.17-5.38.14-8.06.12S125.8,40.84,123.12,40.57Z" style="fill:#263238"></path><path d="M120.81,43.65c3.73-.3,7.46-.39,11.2-.51s7.47-.11,11.21,0c-3.73.3-7.46.39-11.2.5S124.55,43.79,120.81,43.65Z" style="fill:#263238"></path><path d="M118.53,46.69c4.26-.29,8.53-.38,12.79-.48s8.53-.1,12.8,0c-4.26.29-8.53.37-12.79.48S122.8,46.84,118.53,46.69Z" style="fill:#263238"></path><path d="M115.71,50q3.66-.24,7.32-.39l7.31-.24,7.32-.12q3.66,0,7.32,0-3.64.24-7.31.38l-7.31.25L123,50Q119.38,50,115.71,50Z" style="fill:#263238"></path><path d="M113,52.78c2.75-.15,5.5-.26,8.25-.35l8.24-.2,8.25-.07c2.75,0,5.5,0,8.25.06-2.75.14-5.5.26-8.24.34l-8.25.2-8.25.08Q117.16,52.86,113,52.78Z" style="fill:#263238"></path><path d="M113,55.89q4.22-.22,8.42-.36l8.42-.23,8.43-.1c2.8,0,5.61,0,8.42,0q-4.2.24-8.42.37l-8.42.22-8.42.1C118.65,56,115.84,55.93,113,55.89Z" style="fill:#263238"></path><path d="M113.11,58.83c2.87-.14,5.74-.26,8.62-.34l8.62-.21,8.62-.09c2.87,0,5.75,0,8.62.06q-4.31.22-8.61.35l-8.62.21-8.63.08C118.86,58.9,116,58.88,113.11,58.83Z" style="fill:#263238"></path><path d="M113.32,61.05q4.37-.22,8.73-.35l8.72-.21,8.73-.09q4.37,0,8.73.06c-2.9.15-5.81.26-8.72.35l-8.73.21-8.73.08Q117.69,61.13,113.32,61.05Z" style="fill:#263238"></path><path d="M113.32,64.89q4.37-.23,8.73-.35l8.72-.21,8.73-.09q4.37,0,8.73.06-4.35.23-8.72.35l-8.73.21-8.73.08Q117.69,65,113.32,64.89Z" style="fill:#263238"></path><path d="M113.32,68.31c2.91-.16,5.83-.28,8.74-.38l8.75-.24,8.75-.12q4.37,0,8.75,0-4.38.24-8.74.38l-8.75.24-8.75.12Q117.71,68.37,113.32,68.31Z" style="fill:#263238"></path><path d="M113.41,71q4.35-.23,8.7-.35l8.71-.21,8.7-.09q4.36,0,8.71.06-4.35.21-8.7.35l-8.71.21-8.7.08C119.21,71,116.31,71,113.41,71Z" style="fill:#263238"></path><path d="M113.32,74c2.89-.15,5.79-.27,8.68-.35l8.68-.21,8.69-.09c2.89,0,5.79,0,8.68.06q-4.34.23-8.68.35l-8.68.21L122,74C119.11,74.05,116.22,74,113.32,74Z" style="fill:#263238"></path><path d="M113.58,76.11c2.87-.15,5.74-.26,8.61-.35l8.62-.21,8.62-.08c2.87,0,5.75,0,8.62.06q-4.31.21-8.61.35l-8.62.2-8.62.09Q117.88,76.19,113.58,76.11Z" style="fill:#263238"></path><path d="M113.41,80c2.88-.14,5.77-.26,8.65-.35l8.66-.2,8.66-.09q4.34,0,8.67.06-4.34.21-8.66.35l-8.66.21-8.66.08Q117.74,80.1,113.41,80Z" style="fill:#263238"></path><path d="M113.62,82.5c2.87-.13,5.73-.23,8.6-.3l8.61-.17,8.61,0c2.87,0,5.74,0,8.61.1-2.87.13-5.74.24-8.6.31l-8.61.16-8.61,0C119.36,82.6,116.49,82.56,113.62,82.5Z" style="fill:#263238"></path><path d="M113.62,86.09c2.87-.15,5.73-.27,8.6-.35l8.61-.21,8.6-.08c2.87,0,5.74,0,8.62.06q-4.31.21-8.61.35l-8.6.2-8.61.09Q117.93,86.17,113.62,86.09Z" style="fill:#263238"></path><path d="M113.62,89.73c2.84-.15,5.67-.27,8.51-.35l8.52-.21,8.52-.08q4.26,0,8.52.06c-2.83.15-5.67.26-8.51.35l-8.52.2-8.52.09Q117.88,89.81,113.62,89.73Z" style="fill:#263238"></path><path d="M113.58,92.16q4.28-.19,8.55-.32l8.56-.18,8.55,0q4.29,0,8.56.09c-2.85.14-5.7.24-8.55.32l-8.56.18-8.55,0Q117.85,92.25,113.58,92.16Z" style="fill:#263238"></path><path d="M113.62,95.17c2.84-.14,5.67-.26,8.51-.34l8.52-.21,8.52-.08q4.26,0,8.52.06c-2.83.15-5.67.26-8.51.35l-8.52.2-8.52.08C119.3,95.25,116.46,95.22,113.62,95.17Z" style="fill:#263238"></path><path d="M113.77,98.2c2.81-.14,5.63-.26,8.44-.34l8.43-.21,8.44-.08q4.21,0,8.44.06c-2.81.15-5.62.26-8.43.35l-8.44.2-8.44.08Q118,98.28,113.77,98.2Z" style="fill:#263238"></path><path d="M113.77,101.23c2.83-.14,5.65-.26,8.48-.35l8.48-.2,8.48-.08c2.83,0,5.66,0,8.48.06-2.82.14-5.65.26-8.47.34l-8.48.21-8.48.08Q118,101.31,113.77,101.23Z" style="fill:#263238"></path><path d="M113.77,104.26c2.81-.15,5.63-.26,8.44-.35l8.43-.2,8.44-.08q4.21,0,8.44.06c-2.81.15-5.62.26-8.43.35l-8.44.2-8.44.08Q118,104.34,113.77,104.26Z" style="fill:#263238"></path><path d="M114.05,109.05c2.78-.15,5.55-.28,8.33-.37l8.34-.23,8.34-.11q4.17,0,8.34,0c-2.78.16-5.55.29-8.33.38l-8.34.23-8.34.1Q118.22,109.11,114.05,109.05Z" style="fill:#263238"></path><path d="M114.05,112.24c2.76-.14,5.52-.26,8.28-.34l8.29-.2,8.29-.08c2.76,0,5.53,0,8.29.06-2.76.15-5.52.26-8.28.35l-8.29.2-8.29.07C119.58,112.32,116.81,112.29,114.05,112.24Z" style="fill:#263238"></path><path d="M114.18,115.55q4.11-.21,8.23-.33l8.22-.2,8.23-.06q4.11,0,8.23.07c-2.74.14-5.49.25-8.23.33l-8.22.19-8.23.07C119.67,115.63,116.93,115.6,114.18,115.55Z" style="fill:#263238"></path><path d="M114.05,117.89q4.14-.23,8.28-.35l8.29-.2,8.29-.08c2.76,0,5.53,0,8.29.07-2.76.14-5.52.26-8.28.34l-8.29.2-8.29.08C119.58,118,116.81,117.94,114.05,117.89Z" style="fill:#263238"></path><path d="M114.18,123.17c2.74-.14,5.48-.26,8.23-.34l8.22-.2,8.23-.08q4.11,0,8.23.07c-2.74.14-5.48.26-8.23.34l-8.22.2-8.23.08C119.67,123.25,116.93,123.22,114.18,123.17Z" style="fill:#263238"></path><path d="M114.05,125.79c2.75-.15,5.51-.26,8.27-.35l8.27-.2,8.27-.08c2.76,0,5.51,0,8.27.07-2.75.14-5.51.26-8.26.34l-8.28.2-8.27.08C119.56,125.86,116.81,125.84,114.05,125.79Z" style="fill:#263238"></path><path d="M114.18,128.78c2.73-.15,5.46-.26,8.19-.35l8.2-.2,8.19-.07q4.11,0,8.2.06-4.1.22-8.19.34l-8.19.2-8.2.08Q118.29,128.85,114.18,128.78Z" style="fill:#263238"></path><path d="M114.18,132.08c2.73-.14,5.45-.26,8.18-.34l8.17-.2,8.18-.08c2.72,0,5.45,0,8.18.07-2.73.14-5.45.26-8.17.34l-8.18.2-8.18.08C119.64,132.16,116.91,132.13,114.18,132.08Z" style="fill:#263238"></path><path d="M114.18,135.44q4.06-.16,8.13-.23l8.13-.1,8.13,0q4.06,0,8.13.17-4.06.16-8.13.24l-8.13.09-8.13,0Q118.24,135.58,114.18,135.44Z" style="fill:#263238"></path><path d="M113.77,106.28c2.81-.15,5.62-.26,8.42-.35l8.42-.2,8.43-.08q4.2,0,8.42.06c-2.8.15-5.61.26-8.42.35l-8.42.2-8.42.08Q118,106.35,113.77,106.28Z" style="fill:#263238"></path><polygon points="152.88 64.08 149.51 64.88 142.85 41.88 125.71 37.11 110.81 56.99 107.57 54.47 124.69 32.71 145.49 38.4 152.88 64.08" style="fill:#263238"></polygon><path d="M132.28,70.62c3.7,0,8-3.79,8-8.12a8.07,8.07,0,0,0-8.45-8.43c-4.28,0-8.45,3.31-8.45,7.86A8.84,8.84,0,0,0,132.28,70.62Z" style="fill:#FF81AE"></path><path d="M131.19,54.1c.2,0,.41,0,.62,0a2.23,2.23,0,0,1,.37,0l.33,6.87.07,1.44.4,8.18a5.58,5.58,0,0,1-.7,0c-.34,0-.67,0-1-.05,0-1.93,0-5-.06-8.12,0-.5,0-1,0-1.49C131.21,58.23,131.2,55.66,131.19,54.1Z" style="fill:#263238"></path><path d="M123.36,61.93a6.24,6.24,0,0,1,.07-1h16.7a7,7,0,0,1,.12,1.23l-7.67.21-1.35.05-7.84.21C123.37,62.41,123.36,62.17,123.36,61.93Z" style="fill:#263238"></path><path d="M131.34,92.57c-3.7,0-8,3.8-8,8.13a8.07,8.07,0,0,0,8.45,8.43c4.28,0,8.45-3.31,8.45-7.86A8.84,8.84,0,0,0,131.34,92.57Z" style="fill:#263238"></path><path d="M132.43,109.1c-.2,0-.41,0-.62,0a2.23,2.23,0,0,1-.37,0l-.33-6.87-.07-1.45-.4-8.17a4.2,4.2,0,0,1,.7-.05,8,8,0,0,1,1,.06c0,1.93,0,5,.06,8.12,0,.5,0,1,0,1.49C132.41,105,132.42,107.53,132.43,109.1Z" style="fill:#37474f"></path><path d="M140.26,101.27a6.24,6.24,0,0,1-.07,1h-16.7a7.14,7.14,0,0,1-.12-1.24l7.67-.21,1.35,0,7.84-.21C140.25,100.78,140.26,101,140.26,101.27Z" style="fill:#37474f"></path><polygon points="112.03 83.34 149.29 83.66 149.11 86.61 112.27 86.92 112.03 83.34" style="fill:#455a64"></polygon><polygon points="113.03 116.01 112.7 113 148.05 113.4 148.05 116.01 113.03 116.01" style="fill:#455a64"></polygon><polygon points="282.55 192.75 214.52 190.4 214.52 355.19 275.73 355.19 282.55 192.75" style="fill:#37474f"></polygon><path d="M281.67,198c-5.6,0-11.2-.15-16.8-.29l-16.79-.49-16.78-.68c-5.6-.26-11.19-.53-16.78-.9,5.6,0,11.2.15,16.8.29l16.79.49,16.79.68C270.49,197.38,276.08,197.66,281.67,198Z" style="fill:#263238"></path><path d="M281.47,202.11c-5.58,0-11.16-.15-16.75-.29L248,201.33l-16.73-.68c-5.58-.26-11.16-.53-16.73-.9,5.58,0,11.17.15,16.75.29l16.74.49,16.74.68C270.32,201.47,275.9,201.75,281.47,202.11Z" style="fill:#263238"></path><path d="M281.37,208.51c-5.57,0-11.15-.14-16.72-.27l-16.72-.49-16.71-.67c-5.57-.25-11.13-.52-16.7-.88,5.58,0,11.15.14,16.72.27L248,207l16.71.67C270.24,207.89,275.81,208.15,281.37,208.51Z" style="fill:#263238"></path><path d="M277.73,213.65c-5.27,0-10.54-.12-15.81-.24L246.11,213l-15.8-.64c-5.26-.25-10.53-.51-15.79-.85,5.27,0,10.54.12,15.81.24l15.81.45,15.8.64C267.2,213.05,272.47,213.31,277.73,213.65Z" style="fill:#263238"></path><path d="M276.66,220.07c-5.18,0-10.36-.12-15.55-.23l-15.53-.45L230,218.76c-5.17-.24-10.35-.5-15.52-.84,5.18,0,10.36.11,15.55.23l15.53.45,15.54.63C266.31,219.47,271.49,219.72,276.66,220.07Z" style="fill:#263238"></path><path d="M280.43,224.35c-5.5,0-11-.15-16.49-.28l-16.48-.5L231,222.9c-5.49-.27-11-.54-16.47-.9,5.5,0,11,.15,16.49.28l16.48.5,16.47.68C269.46,223.72,275,224,280.43,224.35Z" style="fill:#263238"></path><path d="M280.15,229.62c-5.48,0-10.95-.15-16.42-.28l-16.41-.5-16.4-.68c-5.47-.26-10.94-.53-16.4-.89,5.47,0,10.95.15,16.42.28l16.41.5,16.4.68C269.22,229,274.68,229.26,280.15,229.62Z" style="fill:#263238"></path><path d="M278.5,234.89c-5.34,0-10.68-.15-16-.28l-16-.5-16-.68c-5.33-.26-10.66-.53-16-.89,5.34,0,10.67.15,16,.28l16,.49,16,.69C267.84,234.26,273.17,234.53,278.5,234.89Z" style="fill:#263238"></path><path d="M278.5,240.16c-5.34,0-10.68-.15-16-.29l-16-.49-16-.68c-5.33-.26-10.66-.54-16-.9,5.34,0,10.67.15,16,.29l16,.49,16,.68C267.84,239.52,273.17,239.8,278.5,240.16Z" style="fill:#263238"></path><path d="M279.43,245.42c-5.41,0-10.82-.13-16.23-.25L247,244.7l-16.22-.65c-5.41-.26-10.82-.52-16.22-.87,5.41,0,10.83.13,16.24.25l16.23.47,16.23.66C268.62,244.81,274,245.07,279.43,245.42Z" style="fill:#263238"></path><path d="M268,250.19c-4.46,0-8.92-.07-13.37-.16l-13.37-.37-13.35-.55c-4.45-.22-8.9-.45-13.35-.77,4.46,0,8.91.06,13.37.15l13.36.37,13.36.56C259.06,249.64,263.51,249.87,268,250.19Z" style="fill:#263238"></path><path d="M278.5,255.82c-5.34,0-10.67-.13-16-.25l-16-.46-16-.65c-5.33-.24-10.65-.51-16-.86,5.34,0,10.67.13,16,.25l16,.46,16,.65C267.84,255.21,273.17,255.47,278.5,255.82Z" style="fill:#263238"></path><path d="M277.73,261.06c-5.28,0-10.55-.12-15.82-.24l-15.8-.46-15.8-.63c-5.26-.25-10.53-.51-15.79-.86,5.27,0,10.54.12,15.81.24l15.81.46,15.79.64C267.2,260.45,272.46,260.71,277.73,261.06Z" style="fill:#263238"></path><path d="M277.73,266.33c-5.28,0-10.55-.13-15.82-.25l-15.8-.45-15.8-.64c-5.26-.24-10.53-.5-15.79-.85,5.27,0,10.54.12,15.81.24l15.81.46,15.79.64C267.2,265.72,272.46,266,277.73,266.33Z" style="fill:#263238"></path><path d="M273.55,270c-4.92,0-9.84-.1-14.77-.21L244,269.41l-14.75-.6c-4.92-.23-9.84-.48-14.75-.82,4.92,0,9.85.1,14.77.21l14.76.42,14.76.6C263.72,269.46,268.64,269.7,273.55,270Z" style="fill:#263238"></path><path d="M276.49,276.82c-5.17,0-10.33-.12-15.5-.23l-15.5-.45L230,275.52c-5.16-.25-10.32-.5-15.48-.85,5.17,0,10.34.12,15.5.23l15.5.45L261,276C266.17,276.22,271.33,276.48,276.49,276.82Z" style="fill:#263238"></path><path d="M278.5,282.62c-5.34,0-10.67-.12-16-.24l-16-.46-16-.65c-5.33-.25-10.65-.51-16-.86,5.34,0,10.67.13,16,.25l16,.46,16,.65C267.84,282,273.17,282.28,278.5,282.62Z" style="fill:#263238"></path><path d="M276.91,287.37c-5.2,0-10.41-.12-15.61-.24l-15.6-.44-15.59-.64c-5.2-.24-10.4-.5-15.59-.84,5.2,0,10.41.12,15.61.23l15.6.45,15.59.63C266.52,286.77,271.72,287,276.91,287.37Z" style="fill:#263238"></path><path d="M277.26,292.65c-5.24,0-10.47-.12-15.7-.24L245.87,292l-15.68-.63c-5.22-.25-10.45-.51-15.67-.85,5.23,0,10.46.12,15.69.23l15.69.45,15.68.64C266.81,292,272,292.3,277.26,292.65Z" style="fill:#263238"></path><path d="M276.91,296.35c-5.2,0-10.41-.11-15.61-.23l-15.6-.45L230.11,295c-5.2-.24-10.4-.5-15.59-.84,5.2,0,10.41.11,15.61.23l15.6.45,15.59.63C266.52,295.75,271.72,296,276.91,296.35Z" style="fill:#263238"></path><path d="M276.91,303.17c-5.2,0-10.41-.12-15.61-.23l-15.6-.45-15.59-.63c-5.2-.25-10.4-.5-15.59-.85,5.2,0,10.41.12,15.61.23l15.6.45,15.59.64C266.52,302.57,271.72,302.83,276.91,303.17Z" style="fill:#263238"></path><path d="M276.49,307.41c-5.17,0-10.33-.11-15.5-.23l-15.5-.44L230,306.11c-5.16-.24-10.32-.5-15.48-.84,5.17,0,10.34.12,15.5.23l15.5.44,15.49.63C266.17,306.82,271.33,307.07,276.49,307.41Z" style="fill:#263238"></path><path d="M273.66,313.59c-4.93,0-9.86-.1-14.79-.2L244.08,313l-14.79-.61c-4.92-.23-9.85-.48-14.77-.81,4.93,0,9.87.1,14.8.2l14.78.42,14.79.61C263.81,313,268.74,313.26,273.66,313.59Z" style="fill:#263238"></path><path d="M275.78,320c-5.11,0-10.22-.11-15.33-.22l-15.31-.44-15.32-.62c-5.1-.24-10.2-.49-15.3-.84,5.11,0,10.22.11,15.33.23l15.31.44,15.32.62C265.58,319.4,270.68,319.65,275.78,320Z" style="fill:#263238"></path><path d="M274.13,324.14c-5,0-9.94-.1-14.91-.21l-14.91-.42-14.9-.61c-5-.23-9.93-.48-14.89-.82,5,0,9.94.1,14.91.21l14.91.42,14.9.61C264.2,323.56,269.17,323.81,274.13,324.14Z" style="fill:#263238"></path><path d="M275.31,329.45c-5.07,0-10.14-.11-15.21-.22l-15.2-.43-15.19-.62c-5.07-.24-10.13-.49-15.19-.83,5.07,0,10.14.11,15.21.22l15.2.43,15.2.62C265.19,328.86,270.25,329.11,275.31,329.45Z" style="fill:#263238"></path><path d="M273.91,334.67c-5,0-9.91-.1-14.86-.21L244.2,334l-14.84-.6c-5-.24-9.9-.49-14.84-.82,4.95,0,9.91.1,14.86.2l14.85.43,14.84.6C264,334.09,269,334.34,273.91,334.67Z" style="fill:#263238"></path><path d="M274.85,340c-5,0-10.07-.11-15.1-.22l-15.08-.43-15.08-.61c-5-.24-10.05-.49-15.07-.83,5,0,10.06.11,15.09.22l15.09.43,15.08.61C264.8,339.38,269.83,339.63,274.85,340Z" style="fill:#263238"></path><path d="M274.85,345.24c-5,0-10.07-.11-15.1-.22l-15.08-.43L229.59,344c-5-.24-10.05-.49-15.07-.83,5,0,10.06.11,15.09.22l15.09.43,15.08.61C264.8,344.65,269.83,344.9,274.85,345.24Z" style="fill:#263238"></path><path d="M274.13,348.73c-5,0-9.94-.11-14.91-.22l-14.91-.42-14.9-.61c-5-.23-9.93-.48-14.89-.82,5,0,9.94.1,14.91.21l14.91.43,14.9.6C264.2,348.14,269.17,348.39,274.13,348.73Z" style="fill:#263238"></path><path d="M273.66,355.19h4.07l6.33-162.4-3.85-.1Z" style="fill:#455a64"></path><polygon points="214.52 190.4 214.52 355.19 220.34 355.19 232.83 191.03 214.52 190.4" style="fill:#263238;opacity:0.4"></polygon><path d="M214.52,190.4l81.92,2.82.71-5.65s-16-22.13-16.24-44l-70.17-3.92Z" style="fill:#263238"></path><polygon points="282.76 143.66 210.74 139.63 210.74 134.84 283.13 139.25 282.76 143.66" style="fill:#263238"></polygon><polygon points="289.07 192.97 288.14 195.95 282.29 199.08 282.55 192.74 289.07 192.97" style="fill:#263238"></polygon><polygon points="280.65 192.68 279.27 196.84 277.73 196.84 278.27 192.59 280.65 192.68" style="fill:#263238"></polygon><polygon points="275.23 192.49 274.43 196.63 273 196.63 273 192.41 275.23 192.49" style="fill:#263238"></polygon><path d="M270.31,192.32c0,.06-.43,4.11-.43,4.11l-1.58-.07-.29-4.12Z" style="fill:#263238"></path><polygon points="265.6 192.16 263.51 192.09 263.51 196.02 264.99 196.02 265.6 192.16" style="fill:#263238"></polygon><polygon points="261.16 192 259.36 191.94 259.36 195.76 260.59 195.82 261.16 192" style="fill:#263238"></polygon><polygon points="256.66 191.85 254.59 191.77 254.96 195.59 256.29 195.59 256.66 191.85" style="fill:#263238"></polygon><polygon points="252.36 191.7 250.5 191.64 250.64 195.59 251.96 195.59 252.36 191.7" style="fill:#263238"></polygon><polygon points="248.22 191.56 246.35 191.49 246.35 195.59 247.71 195.59 248.22 191.56" style="fill:#263238"></polygon><polygon points="243.92 191.41 242.07 191.35 242.25 195.52 243.39 195.59 243.92 191.41" style="fill:#263238"></polygon><polygon points="239.38 191.25 237.55 191.19 237.55 194.87 238.99 194.96 239.38 191.25" style="fill:#263238"></polygon><polygon points="234.81 191.1 233.03 191.03 233.03 194.67 234.24 194.78 234.81 191.1" style="fill:#263238"></polygon><polygon points="230.67 190.95 228.7 190.88 228.86 194.52 230.16 194.52 230.67 190.95" style="fill:#263238"></polygon><polygon points="226.28 190.8 224.55 190.74 224.8 194.29 226.06 194.38 226.28 190.8" style="fill:#263238"></polygon><polygon points="221.88 190.65 219.9 190.58 220.18 194.29 221.31 194.38 221.88 190.65" style="fill:#263238"></polygon><polygon points="217.67 190.5 215.79 190.46 216.12 194.05 217.38 194.14 217.67 190.5" style="fill:#263238"></polygon><path d="M210.74,139.63c5.85.12,11.71.35,17.56.6s11.7.58,17.55.86,11.69.69,17.54,1.1l8.76.62c2.92.25,5.84.46,8.76.74-2.93-.05-5.86-.17-8.79-.25l-8.78-.35c-5.85-.24-11.7-.57-17.55-.86s-11.69-.69-17.53-1.09S216.57,140.17,210.74,139.63Z" style="fill:#455a64"></path><path d="M242.78,158.6a7.73,7.73,0,0,1,.34,3.15,2.16,2.16,0,0,1-.81,1.49,1.75,1.75,0,0,1-1.74.1,6.72,6.72,0,0,1-2.39-2.22,21.56,21.56,0,0,1-1.69-2.71l.7-.15a8.23,8.23,0,0,1-.83,3.35,3,3,0,0,1-1.27,1.33,2.43,2.43,0,0,1-1.85.06,5.75,5.75,0,0,1-2.61-2.22,12.47,12.47,0,0,1-1.49-3,15,15,0,0,0,1.79,2.76,5.28,5.28,0,0,0,2.49,1.88,1.91,1.91,0,0,0,1.38-.08,2.25,2.25,0,0,0,.95-1.06,8.1,8.1,0,0,0,.7-3.06l.11-1.35.59,1.2a22.79,22.79,0,0,0,1.57,2.65,7.25,7.25,0,0,0,2.09,2.11,1.22,1.22,0,0,0,1.25,0,1.77,1.77,0,0,0,.71-1.17A8.39,8.39,0,0,0,242.78,158.6Z" style="fill:#455a64"></path><path d="M289.25,179.18a7.75,7.75,0,0,1,.34,3.15,2.16,2.16,0,0,1-.81,1.49,1.75,1.75,0,0,1-1.74.1,6.7,6.7,0,0,1-2.39-2.21A21.24,21.24,0,0,1,283,179l.7-.15a8.4,8.4,0,0,1-.83,3.35,3,3,0,0,1-1.27,1.33,2.43,2.43,0,0,1-1.85.06,5.69,5.69,0,0,1-2.61-2.22,12.47,12.47,0,0,1-1.49-3,15,15,0,0,0,1.79,2.76,5.24,5.24,0,0,0,2.48,1.88,2,2,0,0,0,1.39-.07,2.32,2.32,0,0,0,1-1.07,8.5,8.5,0,0,0,.7-3.06l.11-1.35.59,1.2a22.79,22.79,0,0,0,1.57,2.65,7.13,7.13,0,0,0,2.09,2.11,1.22,1.22,0,0,0,1.25,0,1.81,1.81,0,0,0,.71-1.17A8.39,8.39,0,0,0,289.25,179.18Z" style="fill:#455a64"></path><path d="M276.87,152.31a10,10,0,0,1-.53,3.64,3.92,3.92,0,0,1-1,1.59,2.44,2.44,0,0,1-1.85.58,3.42,3.42,0,0,1-1.76-.82,7.32,7.32,0,0,1-1.28-1.39,14.71,14.71,0,0,1-1.79-3.28l.62-.07a8.3,8.3,0,0,1-1.57,3.72,3.46,3.46,0,0,1-3.84,1.33,7.09,7.09,0,0,1-3-2.74,19.58,19.58,0,0,1-1.91-3.48l.63-.06a11.39,11.39,0,0,1-1.51,3.72,5.3,5.3,0,0,1-1.42,1.49,3,3,0,0,1-2,.51,5.18,5.18,0,0,1-3.26-2.26,14.5,14.5,0,0,1-1.91-3.44,17,17,0,0,0,2.11,3.28,5.16,5.16,0,0,0,3.1,2,3.25,3.25,0,0,0,2.9-1.87,12.08,12.08,0,0,0,1.36-3.54l.22-1,.41.92a20.62,20.62,0,0,0,1.88,3.33,6.73,6.73,0,0,0,2.69,2.44,2.27,2.27,0,0,0,1.64,0,3.33,3.33,0,0,0,1.4-1,7.69,7.69,0,0,0,1.47-3.38l.22-1.09.41,1a16.27,16.27,0,0,0,1.63,3.19,4.48,4.48,0,0,0,2.64,2.11,2.07,2.07,0,0,0,1.57-.43,3.47,3.47,0,0,0,1-1.41A10.63,10.63,0,0,0,276.87,152.31Z" style="fill:#455a64"></path><path d="M265.25,173.87a6.39,6.39,0,0,1-.52,3.3,2.52,2.52,0,0,1-1.25,1.2,2.6,2.6,0,0,1-1.76.06,6.36,6.36,0,0,1-2.75-2.06,15.46,15.46,0,0,1-1.88-2.83l.61-.07a8.87,8.87,0,0,1-1.34,3.17,4.22,4.22,0,0,1-1.33,1.22,3,3,0,0,1-1.85.3,4.77,4.77,0,0,1-2.8-2.12,13.57,13.57,0,0,1-1.58-3l.64-.12a5.56,5.56,0,0,1-1.09,3.55,3.07,3.07,0,0,1-1.62,1,3.86,3.86,0,0,1-1.88,0,5.73,5.73,0,0,1-3-2.06,12.12,12.12,0,0,1-1.83-3.07,13.41,13.41,0,0,0,2,2.89,5.77,5.77,0,0,0,2.88,1.8,2.9,2.9,0,0,0,2.94-1,5.26,5.26,0,0,0,.89-3.16l0-1.79.66,1.66a13.15,13.15,0,0,0,1.54,2.83,4.19,4.19,0,0,0,2.36,1.81,2.54,2.54,0,0,0,2.48-1.21,8.09,8.09,0,0,0,1.26-2.88l.21-.87.41.79a18,18,0,0,0,1.73,2.76,5.87,5.87,0,0,0,2.44,2,2.34,2.34,0,0,0,1.5,0,2.18,2.18,0,0,0,1.16-1A6.58,6.58,0,0,0,265.25,173.87Z" style="fill:#455a64"></path><path d="M238.82,179.54a8.38,8.38,0,0,1-1.08,3.25,3.77,3.77,0,0,1-1.28,1.26,2.69,2.69,0,0,1-1.83.27,5.1,5.1,0,0,1-2.86-2.1,12.86,12.86,0,0,1-1.7-3.05l.71-.07a6.84,6.84,0,0,1-1.38,3,3.28,3.28,0,0,1-1.4,1,2.92,2.92,0,0,1-1.73.07,4.46,4.46,0,0,1-2.49-2.11,10.38,10.38,0,0,1-1.19-2.94,11.86,11.86,0,0,0,1.48,2.74,4.15,4.15,0,0,0,2.33,1.76,2.52,2.52,0,0,0,2.49-1,6.3,6.3,0,0,0,1.16-2.7l.24-1.23.47,1.17a14,14,0,0,0,1.56,2.9,4.77,4.77,0,0,0,2.44,1.93,2.16,2.16,0,0,0,1.48-.12,3.31,3.31,0,0,0,1.19-1.05A9.21,9.21,0,0,0,238.82,179.54Z" style="fill:#455a64"></path><path d="M271.69,147a8.57,8.57,0,0,1-1.09,3.25,3.62,3.62,0,0,1-1.27,1.25,2.66,2.66,0,0,1-1.83.28,5.17,5.17,0,0,1-2.87-2.1,13.6,13.6,0,0,1-1.7-3l.72-.07a7.08,7.08,0,0,1-1.38,3,3.32,3.32,0,0,1-1.41,1,2.92,2.92,0,0,1-1.73.07,4.53,4.53,0,0,1-2.49-2.11,10.68,10.68,0,0,1-1.19-2.94,12.29,12.29,0,0,0,1.49,2.74,4.13,4.13,0,0,0,2.32,1.76,2.52,2.52,0,0,0,2.49-1,6.06,6.06,0,0,0,1.16-2.7l.25-1.23.47,1.17a13.1,13.1,0,0,0,1.56,2.9,4.73,4.73,0,0,0,2.44,1.93,2.16,2.16,0,0,0,1.48-.12,3.28,3.28,0,0,0,1.18-1A9,9,0,0,0,271.69,147Z" style="fill:#455a64"></path><path d="M281.12,166.72A8.51,8.51,0,0,1,280,170a3.68,3.68,0,0,1-1.28,1.26,2.67,2.67,0,0,1-1.82.27,5,5,0,0,1-2.87-2.1,13,13,0,0,1-1.7-3.05l.71-.07a6.79,6.79,0,0,1-1.38,3,3.39,3.39,0,0,1-1.4,1,2.84,2.84,0,0,1-1.73.06,4.52,4.52,0,0,1-2.49-2.1,10.75,10.75,0,0,1-1.19-2.95,12,12,0,0,0,1.49,2.75,4.13,4.13,0,0,0,2.32,1.76,2.56,2.56,0,0,0,2.49-1,6.16,6.16,0,0,0,1.16-2.7l.24-1.23.48,1.16a13.26,13.26,0,0,0,1.55,2.9,4.83,4.83,0,0,0,2.44,1.94,2.16,2.16,0,0,0,1.48-.13,3.28,3.28,0,0,0,1.19-1A9.28,9.28,0,0,0,281.12,166.72Z" style="fill:#455a64"></path><path d="M240,152.3a8.57,8.57,0,0,1-1.09,3.25,3.65,3.65,0,0,1-1.28,1.25,2.62,2.62,0,0,1-1.82.28A5.13,5.13,0,0,1,233,155a13.43,13.43,0,0,1-1.7-3l.71-.07a6.9,6.9,0,0,1-1.38,3,3.28,3.28,0,0,1-1.4,1,2.92,2.92,0,0,1-1.73.07,4.46,4.46,0,0,1-2.49-2.11,10.81,10.81,0,0,1-1.19-2.94,11.53,11.53,0,0,0,1.49,2.74,4.13,4.13,0,0,0,2.32,1.76,2.52,2.52,0,0,0,2.49-1,6.3,6.3,0,0,0,1.16-2.7l.24-1.23.47,1.17a14.24,14.24,0,0,0,1.56,2.9A4.77,4.77,0,0,0,236,156.5a2.16,2.16,0,0,0,1.48-.12,3.31,3.31,0,0,0,1.19-1A9.23,9.23,0,0,0,240,152.3Z" style="fill:#455a64"></path><polygon points="260.15 240.25 236.93 240.25 237.53 245.38 259.51 245.38 260.15 240.25" style="fill:#455a64"></polygon><polygon points="255.98 240.25 242.12 240.25 241.06 209.88 258.28 210.41 255.98 240.25" style="fill:#FF81AE"></polygon><polygon points="258.28 210.41 266.84 207.14 262.56 242.28 255.98 240.25 258.28 210.41" style="fill:#455a64"></polygon><polygon points="241.06 209.88 233.21 206.34 234.93 242.1 242.12 240.25 241.06 209.88" style="fill:#455a64"></polygon><polygon points="251.01 210.18 249.01 210.12 248.54 240.25 249.77 240.25 251.01 210.18" style="fill:#263238"></polygon><polygon points="257.43 221.48 257.33 222.77 241.52 223.05 241.45 221.11 257.43 221.48" style="fill:#263238"></polygon><polygon points="256.56 232.76 256.71 230.82 241.8 231.13 241.84 232.3 256.56 232.76" style="fill:#263238"></polygon><polygon points="260.15 312.75 236.93 312.75 237.53 317.89 259.51 317.89 260.15 312.75" style="fill:#455a64"></polygon><polygon points="255.98 312.75 242.12 312.75 241.06 282.38 258.28 282.91 255.98 312.75" style="fill:#263238"></polygon><polygon points="258.28 282.91 266.84 279.65 262.56 314.78 255.98 312.75 258.28 282.91" style="fill:#455a64"></polygon><polygon points="241.06 282.38 233.21 278.85 234.93 314.61 242.12 312.75 241.06 282.38" style="fill:#455a64"></polygon><polygon points="250.66 282.69 248.87 282.62 248.54 312.75 249.77 312.75 250.66 282.69" style="fill:#37474f"></polygon><polygon points="257.43 293.99 257.33 295.27 241.5 295.02 241.45 293.62 257.43 293.99" style="fill:#37474f"></polygon><polygon points="256.56 305.27 256.66 303.9 241.8 303.63 241.84 304.81 256.56 305.27" style="fill:#37474f"></polygon><polygon points="280.73 256.96 214.52 253.6 214.52 258.08 280.43 260.43 280.73 256.96" style="fill:#455a64"></polygon><polygon points="251.87 137.34 264.62 138.12 262.55 125.06 266.7 112.78 259.46 111.9 253.59 123.51 251.87 137.34" style="fill:#37474f"></polygon><polygon points="256.81 112.32 268.99 113.81 269.88 110.39 256.81 108.76 256.81 112.32" style="fill:#263238"></polygon><polygon points="139.89 371.31 134.6 181.36 158.25 108.4 202.79 100.85 225.68 179.35 219.64 371.31 139.89 371.31" style="fill:#37474f"></polygon><path d="M157.77,109.88c3.9-.38,7.8-.68,11.7-1s7.81-.5,11.72-.76l11.72-.57c3.91-.15,7.82-.3,11.74-.35-3.9.38-7.8.68-11.7,1l-11.72.75c-3.91.19-7.81.41-11.72.57S161.69,109.83,157.77,109.88Z" style="fill:#263238"></path><path d="M156,115.31c4.23-.25,8.45-.41,12.68-.55l12.69-.34,12.7-.16c4.23,0,8.46,0,12.69.06-4.22.25-8.45.41-12.68.55l-12.69.34-12.69.16C164.5,115.38,160.27,115.39,156,115.31Z" style="fill:#263238"></path><path d="M154,121.62c4.54-.25,9.08-.42,13.62-.57l13.63-.36,13.63-.17c4.54,0,9.09,0,13.63,0-4.54.25-9.08.42-13.62.57l-13.63.36-13.63.17C163.11,121.68,158.56,121.69,154,121.62Z" style="fill:#263238"></path><path d="M151.46,129.35c4.94-.26,9.88-.43,14.82-.59l14.82-.39,14.83-.19c4.94,0,9.89-.05,14.83,0-4.94.26-9.88.43-14.82.59l-14.82.38-14.83.2C161.35,129.4,156.41,129.42,151.46,129.35Z" style="fill:#263238"></path><path d="M149.85,134.32c5.19-.27,10.38-.46,15.58-.63l15.57-.41,15.59-.23c5.19,0,10.39-.07,15.58,0-5.19.27-10.38.45-15.57.62l-15.58.41-15.58.23C160.24,134.34,155.05,134.37,149.85,134.32Z" style="fill:#263238"></path><path d="M147.8,140.64c5.51-.28,11-.47,16.54-.65l16.55-.43,16.55-.25c5.51-.05,11-.09,16.55,0-5.51.28-11,.47-16.54.65l-16.55.43-16.54.25C158.84,140.65,153.32,140.69,147.8,140.64Z" style="fill:#263238"></path><polygon points="145.73 147.02 154.49 146.64 163.25 146.34 180.76 145.87 198.28 145.58 207.05 145.5 215.81 145.5 207.06 145.89 198.3 146.19 180.78 146.66 163.26 146.95 154.5 147.03 145.73 147.02" style="fill:#263238"></polygon><polygon points="143.69 153.34 152.93 152.94 162.17 152.63 180.65 152.14 199.14 151.83 208.38 151.74 217.63 151.74 208.39 152.13 199.15 152.44 180.67 152.93 162.18 153.24 152.93 153.33 143.69 153.34" style="fill:#263238"></polygon><polygon points="141.69 159.5 151.41 159.14 161.14 158.86 180.59 158.44 200.05 158.2 209.78 158.15 219.5 158.18 209.78 158.54 200.06 158.82 180.6 159.24 161.15 159.47 151.42 159.53 141.69 159.5" style="fill:#263238"></polygon><polygon points="139.69 166.33 149.87 165.88 160.06 165.52 180.45 164.91 200.83 164.5 211.03 164.35 221.23 164.29 211.04 164.74 200.85 165.11 180.47 165.71 160.08 166.13 149.88 166.27 139.69 166.33" style="fill:#263238"></polygon><polygon points="137.65 171.98 148.32 171.6 159.01 171.31 180.37 170.86 201.74 170.59 212.42 170.52 223.11 170.53 212.43 170.91 201.75 171.2 180.38 171.65 159.02 171.92 148.33 171.99 137.65 171.98" style="fill:#263238"></polygon><polygon points="135.79 178.48 146.93 178.07 158.07 177.75 180.35 177.22 202.64 176.89 213.78 176.78 224.93 176.77 213.79 177.18 202.65 177.5 180.37 178.02 158.08 178.35 146.94 178.46 135.79 178.48" style="fill:#263238"></polygon><polygon points="134.69 184.57 146.05 184.18 157.41 183.88 180.12 183.4 202.84 183.11 214.2 183.03 225.56 183.03 214.21 183.42 202.85 183.72 180.13 184.2 157.42 184.49 146.06 184.57 134.69 184.57" style="fill:#263238"></polygon><polygon points="134.82 189.16 146.14 188.77 157.47 188.47 180.11 187.99 202.76 187.7 214.09 187.62 225.42 187.63 214.1 188.01 202.78 188.31 180.13 188.79 157.47 189.08 146.15 189.16 134.82 189.16" style="fill:#263238"></polygon><polygon points="135.04 197.1 146.3 196.72 157.57 196.42 180.1 195.95 202.63 195.66 213.9 195.58 225.17 195.58 213.91 195.97 202.64 196.27 180.11 196.74 157.58 197.03 146.31 197.11 135.04 197.1" style="fill:#263238"></polygon><polygon points="135.24 204.22 146.45 203.8 157.66 203.46 180.09 202.91 202.52 202.55 213.74 202.43 224.96 202.4 213.75 202.82 202.53 203.16 180.1 203.71 157.68 204.07 146.46 204.19 135.24 204.22" style="fill:#263238"></polygon><polygon points="135.39 209.64 146.56 209.26 157.73 208.96 180.08 208.49 202.42 208.2 213.6 208.13 224.78 208.13 213.6 208.51 202.43 208.81 180.09 209.28 157.74 209.57 146.57 209.65 135.39 209.64" style="fill:#263238"></polygon><polygon points="135.56 215.91 146.69 215.53 157.81 215.23 180.06 214.76 202.32 214.47 213.45 214.4 224.58 214.41 213.45 214.79 202.33 215.09 180.08 215.56 157.82 215.84 146.69 215.91 135.56 215.91" style="fill:#263238"></polygon><polygon points="135.69 220.33 146.78 219.95 157.87 219.65 180.06 219.19 202.25 218.9 213.34 218.83 224.44 218.84 213.35 219.22 202.26 219.52 180.07 219.98 157.88 220.26 146.78 220.34 135.69 220.33" style="fill:#263238"></polygon><polygon points="135.91 228.44 146.93 228.06 157.95 227.77 180 227.3 202.05 227.02 213.07 226.95 224.1 226.96 213.08 227.34 202.06 227.63 180.01 228.1 157.97 228.38 146.94 228.45 135.91 228.44" style="fill:#263238"></polygon><polygon points="136.3 233.51 147.26 233.18 158.22 232.94 180.15 232.59 202.08 232.41 213.04 232.39 224.01 232.46 213.05 232.78 202.09 233.03 180.16 233.38 158.23 233.55 147.26 233.57 136.3 233.51" style="fill:#263238"></polygon><polygon points="136.26 240.98 147.2 240.6 158.14 240.31 180.02 239.84 201.9 239.57 212.84 239.49 223.79 239.5 212.85 239.88 201.91 240.18 180.03 240.64 158.15 240.92 147.21 240.99 136.26 240.98" style="fill:#263238"></polygon><polygon points="136.47 248.51 147.35 248.13 158.24 247.84 180 247.38 201.78 247.1 212.66 247.03 223.55 247.04 212.67 247.42 201.79 247.71 180.02 248.17 158.25 248.45 147.36 248.52 136.47 248.51" style="fill:#263238"></polygon><polygon points="136.78 253.51 147.61 253.17 158.43 252.91 180.08 252.53 201.73 252.33 212.56 252.29 223.38 252.34 212.56 252.68 201.74 252.94 180.09 253.32 158.44 253.53 147.61 253.56 136.78 253.51" style="fill:#263238"></polygon><polygon points="136.78 259.78 147.58 259.41 158.38 259.11 179.98 258.66 201.59 258.38 212.39 258.31 223.2 258.32 212.4 258.7 201.6 259 180 259.45 158.39 259.72 147.59 259.8 136.78 259.78" style="fill:#263238"></polygon><polygon points="137.13 266.05 147.86 265.67 158.59 265.38 180.06 264.93 201.53 264.65 212.26 264.58 223 264.6 212.27 264.98 201.54 265.27 180.07 265.72 158.6 265.99 147.87 266.06 137.13 266.05" style="fill:#263238"></polygon><polygon points="137.13 272.32 147.84 271.94 158.54 271.65 179.96 271.2 201.38 270.93 212.09 270.86 222.8 270.87 212.1 271.25 201.39 271.54 179.97 271.99 158.56 272.26 147.84 272.33 137.13 272.32" style="fill:#263238"></polygon><polygon points="137.31 278.59 147.97 278.21 158.63 277.92 179.95 277.47 201.28 277.2 211.94 277.13 222.6 277.15 211.95 277.52 201.28 277.81 179.96 278.26 158.64 278.53 147.97 278.6 137.31 278.59" style="fill:#263238"></polygon><polygon points="137.61 288.54 148.19 288.13 158.77 287.81 179.94 287.29 201.12 286.95 211.71 286.85 222.3 286.83 211.72 287.24 201.13 287.56 179.96 288.08 158.79 288.42 148.2 288.52 137.61 288.54" style="fill:#263238"></polygon><polygon points="137.77 295.11 148.3 294.74 158.84 294.45 179.92 294 201 293.74 211.54 293.67 222.08 293.69 211.55 294.06 201.01 294.35 179.93 294.8 158.85 295.06 148.31 295.13 137.77 295.11" style="fill:#263238"></polygon><polygon points="137.96 301.96 148.44 301.6 158.93 301.32 179.91 300.89 200.88 300.65 211.37 300.6 221.87 300.63 211.38 300.99 200.89 301.26 179.92 301.69 158.94 301.93 148.45 301.98 137.96 301.96" style="fill:#263238"></polygon><polygon points="138.4 306.79 148.81 306.42 159.22 306.13 180.05 305.69 200.88 305.43 211.3 305.36 221.72 305.38 211.31 305.75 200.89 306.04 180.06 306.48 159.23 306.74 148.82 306.81 138.4 306.79" style="fill:#263238"></polygon><polygon points="138.4 317.74 148.77 317.37 159.14 317.08 179.88 316.64 200.62 316.38 211 316.31 221.37 316.33 211 316.7 200.63 316.99 179.89 317.43 159.15 317.69 148.77 317.75 138.4 317.74" style="fill:#263238"></polygon><polygon points="138.55 323.14 148.88 322.77 159.21 322.49 179.87 322.05 200.53 321.79 210.87 321.73 221.2 321.75 210.87 322.12 200.54 322.4 179.88 322.84 159.22 323.1 148.88 323.16 138.55 323.14" style="fill:#263238"></polygon><polygon points="138.72 329.33 149 328.96 159.29 328.68 179.86 328.24 200.43 327.98 210.72 327.92 221.01 327.94 210.72 328.31 200.44 328.6 179.87 329.04 159.3 329.29 149.01 329.35 138.72 329.33" style="fill:#263238"></polygon><polygon points="138.91 336.18 149.14 335.81 159.38 335.52 179.84 335.09 200.32 334.83 210.55 334.77 220.79 334.79 210.56 335.16 200.33 335.44 179.86 335.88 159.38 336.13 149.15 336.2 138.91 336.18" style="fill:#263238"></polygon><polygon points="139.1 343.02 149.28 342.78 159.46 342.63 179.82 342.45 200.18 342.46 210.36 342.53 220.54 342.69 210.36 342.92 200.18 343.08 179.82 343.25 159.46 343.24 149.28 343.17 139.1 343.02" style="fill:#263238"></polygon><polygon points="139.29 349.86 149.37 349.67 159.44 349.56 179.59 349.46 199.74 349.56 209.81 349.67 219.89 349.86 209.81 350.06 199.74 350.17 179.59 350.26 159.44 350.17 149.37 350.06 139.29 349.86" style="fill:#263238"></polygon><polygon points="139.48 356.71 149.56 356.48 159.64 356.34 179.79 356.19 199.95 356.22 210.03 356.3 220.11 356.47 210.03 356.69 199.95 356.83 179.8 356.98 159.64 356.95 149.56 356.87 139.48 356.71" style="fill:#263238"></polygon><polygon points="139.71 364.94 149.73 364.57 159.75 364.29 179.79 363.86 199.84 363.61 209.86 363.56 219.89 363.58 209.87 363.95 199.85 364.23 179.8 364.66 159.76 364.9 149.74 364.96 139.71 364.94" style="fill:#263238"></polygon><polygon points="140.08 370.39 150.03 370.09 159.98 369.88 179.88 369.58 199.79 369.46 209.74 369.47 219.7 369.56 209.75 369.86 199.8 370.07 179.89 370.37 159.99 370.49 150.03 370.48 140.08 370.39" style="fill:#263238"></polygon><polygon points="137.42 282.77 148.05 282.39 158.68 282.1 179.94 281.65 201.21 281.38 211.84 281.32 222.47 281.33 211.84 281.7 201.22 282 179.96 282.45 158.69 282.71 148.06 282.78 137.42 282.77" style="fill:#263238"></polygon><path d="M191,188.74l-1.28,37.13H172.78L170,189.39c-.7-7.82,3-15.16,10.1-15.16S191.3,180.53,191,188.74Z" style="fill:#FF81AE"></path><path d="M182,225.86h-1.82l-.63-13.35,0-1.65-.37-12.52,0-1.56-.65-22.42a9.73,9.73,0,0,1,1.64-.13,10.31,10.31,0,0,1,1.58.11l.26,22.35v1.65l.15,12.52v1.61Z" style="fill:#263238"></path><polygon points="190.76 196.38 190.69 198.34 170.66 198.34 170.56 197.07 179.08 196.78 181.91 196.69 190.76 196.38" style="fill:#263238"></polygon><polygon points="190.25 210.86 190.19 212.36 182.08 212.47 179.52 212.51 171.75 212.61 171.61 210.86 190.25 210.86" style="fill:#263238"></polygon><polygon points="168.69 225.86 193.51 225.86 192.44 231.35 168.95 231.35 168.69 225.86" style="fill:#455a64"></polygon><path d="M180.49,126.53c-4,0-8.54,4.06-8.54,8.68a8.63,8.63,0,0,0,9,9c4.58,0,9-3.54,9-8.4A9.45,9.45,0,0,0,180.49,126.53Z" style="fill:#FF81AE"></path><path d="M181.65,144.19q-.33,0-.66,0a2.55,2.55,0,0,1-.4,0l-.35-7.35-.08-1.54-.42-8.74a6.28,6.28,0,0,1,.75,0c.36,0,.71,0,1,0,0,2.07,0,5.4.06,8.69,0,.53,0,1.06,0,1.58C181.62,139.77,181.63,142.52,181.65,144.19Z" style="fill:#263238"></path><path d="M190,135.82a5.88,5.88,0,0,1-.08,1H172.09a7.87,7.87,0,0,1-.12-1.31l8.19-.23,1.44,0L190,135Q190,135.43,190,135.82Z" style="fill:#263238"></path><polygon points="151.84 258.53 137.87 298.28 222.41 298.28 208.19 259.14 151.84 258.53" style="fill:#263238"></polygon><polygon points="150.08 258.53 149.57 254.7 210.71 254.7 209.83 259.16 150.08 258.53" style="fill:#455a64"></polygon><polygon points="144.63 254.99 144.04 250.46 216.25 250.46 215.21 255.73 144.63 254.99" style="fill:#455a64"></polygon><polygon points="144.73 298.28 155.11 298.28 156.24 371.31 147.81 371.31 144.73 298.28" style="fill:#455a64"></polygon><polygon points="216.62 298.28 206.25 298.28 205.11 371.31 213.54 371.31 216.62 298.28" style="fill:#455a64"></polygon><polygon points="165.86 371.31 196.69 371.31 198.89 302.25 162.66 303.05 165.86 371.31" style="fill:#FF81AE"></polygon><polygon points="165.86 371.31 192.75 370.11 194.96 304.66 162.66 303.05 165.86 371.31" style="fill:#263238"></polygon><polygon points="189.48 340.4 191.46 340.31 191.62 335.49 189.24 335.37 189.48 340.4" style="fill:#dbdbdb"></polygon><path d="M168.81,330.66l9.23-.55-.12.13.29-11.25.35-11.25.23.25-11.1-.57.24-.24c.18,3.89.32,7.78.46,11.68Zm0,0L168.12,319c-.22-3.91-.45-7.85-.64-11.78V307h.25l11.1.53h.24v.25L178.64,319l-.46,11.25v.12h-.11Z" style="fill:#455a64"></path><path d="M181.77,330l9.15-.19-.13.13c.15-7.12.37-14.25.58-21.37l.23.25-9.24-.72.24-.22c-.1,3.66-.24,7.32-.38,11Zm0,0,.17-11c.06-3.7.12-7.41.22-11.13v-.23h.24l9.24.68.24,0v.24c-.25,7.12-.5,14.24-.81,21.36v.13h-.13Z" style="fill:#455a64"></path><path d="M169.9,365.12l7.63-.51-.12.13.05-10.75.11-10.74.25.25-8.93.19.22-.24c.16,3.59.29,7.17.42,10.78Zm0,0-.65-10.76c-.21-3.61-.42-7.25-.59-10.88v-.23h.23l8.93-.24h.26v.25L177.89,354l-.23,10.74v.12h-.12Z" style="fill:#455a64"></path><path d="M181.14,364.56l9.17-.19-.13.13.13-10.63.19-10.62.25.25-9,0,.23-.21c-.11,3.52-.26,7.05-.4,10.59Zm0,0,.18-10.6c.07-3.56.13-7.14.23-10.72V343h.21l9,0H191v.26l-.24,10.62-.3,10.63v.13h-.13Z" style="fill:#455a64"></path><polygon points="132.03 190.23 158.25 108.4 202.79 100.85 227.94 187.12 232.94 185.3 206.62 94.03 153.79 104.31 126.87 188.94 132.03 190.23" style="fill:#263238"></polygon><path d="M144.45,133.68c-1.29,4.66-2.66,9.29-4.06,13.92s-2.85,9.24-4.27,13.85-3,9.2-4.45,13.8-3,9.18-4.64,13.74l-.12-.22c1.71.48,3.41,1,5.11,1.46-1.73-.36-3.46-.74-5.19-1.12l-.18,0,0-.18c1.34-4.65,2.74-9.28,4.15-13.9s2.85-9.23,4.35-13.83,2.94-9.21,4.51-13.78S142.8,138.23,144.45,133.68Z" style="fill:#455a64"></path><path d="M218.55,135.37c1.37,4.11,2.67,8.25,3.94,12.39s2.48,8.29,3.72,12.44,2.37,8.33,3.55,12.5,2.28,8.35,3.37,12.55l0,.17-.16.06c-1.69.55-3.37,1.11-5.07,1.64,1.64-.68,3.29-1.33,4.94-2l-.11.23q-2-6.19-3.84-12.41c-1.21-4.16-2.49-8.3-3.65-12.47s-2.38-8.32-3.48-12.52S219.57,139.59,218.55,135.37Z" style="fill:#455a64"></path><polygon points="228.08 386.61 129.54 386.61 128.34 377.69 229.27 377.69 228.08 386.61" style="fill:#37474f"></polygon><polygon points="222.51 377.69 135.1 377.69 134.04 368.77 223.57 368.77 222.51 377.69" style="fill:#37474f"></polygon><polygon points="223.1 372.66 222.51 377.7 135.1 377.7 134.82 375.37 223.1 372.66" style="fill:#263238"></polygon></g></svg>