<svg xmlns="http://www.w3.org/2000/svg" viewBox="0 0 500 500"><g id="freepik--Tree--inject-278"><path d="M338.74,298.27a1.48,1.48,0,1,1-1.47-1.48A1.47,1.47,0,0,1,338.74,298.27Z" style="fill:#92E3A9"></path><path d="M338.74,298.27a1.48,1.48,0,1,1-1.47-1.48A1.47,1.47,0,0,1,338.74,298.27Z" style="fill:#fff;opacity:0.6000000000000001"></path><path d="M337.92,298.27a.65.65,0,0,1-.65.65.65.65,0,1,1,0-1.3A.65.65,0,0,1,337.92,298.27Z" style="fill:#92E3A9"></path><circle cx="327.62" cy="237.49" r="0.65" style="fill:#fff"></circle><path d="M323.23,263.3a1.48,1.48,0,1,1-1.47-1.47A1.47,1.47,0,0,1,323.23,263.3Z" style="fill:#92E3A9"></path><path d="M323.23,263.3a1.48,1.48,0,1,1-1.47-1.47A1.47,1.47,0,0,1,323.23,263.3Z" style="fill:#fff;opacity:0.6000000000000001"></path><path d="M189.4,265.32a1.76,1.76,0,1,1-1.76-1.75A1.76,1.76,0,0,1,189.4,265.32Z" style="fill:#92E3A9"></path><path d="M189.4,265.32a1.76,1.76,0,1,1-1.76-1.75A1.76,1.76,0,0,1,189.4,265.32Z" style="fill:#fff;opacity:0.6000000000000001"></path><path d="M188.42,265.32a.78.78,0,0,1-.78.78.77.77,0,0,1-.77-.78.76.76,0,0,1,.77-.77A.77.77,0,0,1,188.42,265.32Z" style="fill:#92E3A9"></path><path d="M231.94,240.39a4.54,4.54,0,1,1-4.54-4.54A4.54,4.54,0,0,1,231.94,240.39Z" style="fill:#92E3A9"></path><path d="M231.94,240.39a4.54,4.54,0,1,1-4.54-4.54A4.54,4.54,0,0,1,231.94,240.39Z" style="fill:#fff;opacity:0.6000000000000001"></path><path d="M229.41,240.39a2,2,0,1,1-2-2A2,2,0,0,1,229.41,240.39Z" style="fill:#92E3A9"></path><circle cx="219.93" cy="229.89" r="1.3" style="fill:#92E3A9"></circle><circle cx="219.93" cy="229.89" r="1.3" style="fill:#fff;opacity:0.6000000000000001"></circle><circle cx="219.93" cy="229.89" r="0.58" style="fill:#92E3A9"></circle><path d="M265.7,328.92a9.61,9.61,0,0,1-.82-2,32.4,32.4,0,0,1-1.29-5,34,34,0,0,1-.53-5.15,8.56,8.56,0,0,1,.1-2.14,16.59,16.59,0,0,1,.2,2.13c.1,1.31.28,3.11.63,5.08s.81,3.73,1.16,5A13.94,13.94,0,0,1,265.7,328.92Z" style="fill:#263238"></path><path d="M263.65,327.12a2.05,2.05,0,1,0,2.05-2.05A2.05,2.05,0,0,0,263.65,327.12Z" style="fill:#263238"></path><path d="M263.65,327.12a2.05,2.05,0,1,0,2.05-2.05A2.05,2.05,0,0,0,263.65,327.12Z" style="fill:#263238;opacity:0.6000000000000001"></path><path d="M264.8,327.12a.91.91,0,0,0,1.81,0,.91.91,0,1,0-1.81,0Z" style="fill:#263238"></path><path d="M262.41,338.53a9.3,9.3,0,0,1-.82-2,33.58,33.58,0,0,1-1.29-5,32.56,32.56,0,0,1-.52-5.14,8.87,8.87,0,0,1,.09-2.14,16.27,16.27,0,0,1,.2,2.12c.1,1.31.28,3.12.63,5.09s.81,3.72,1.17,5A14.54,14.54,0,0,1,262.41,338.53Z" style="fill:#263238"></path><circle cx="262.41" cy="336.73" r="2.05" style="fill:#263238"></circle><circle cx="262.41" cy="336.73" r="2.05" style="fill:#263238;opacity:0.6000000000000001"></circle><path d="M261.51,336.73a.91.91,0,1,0,.9-.9A.9.9,0,0,0,261.51,336.73Z" style="fill:#263238"></path><path d="M253.64,333a18.42,18.42,0,0,1,.55-2.07,50.82,50.82,0,0,0,1.16-5c.35-2,.54-3.77.64-5.08a14.6,14.6,0,0,1,.2-2.13,8.94,8.94,0,0,1,.09,2.14,34,34,0,0,1-.52,5.15,33.58,33.58,0,0,1-1.29,5A8.66,8.66,0,0,1,253.64,333Z" style="fill:#263238"></path><path d="M275,314.38c-2.58-1.49-8.29-4.35-9.94-7.51l-8.59-2.33c-2.59,1.35-7.07,7.19-12.91,8.28a1.11,1.11,0,0,0-.79.71c-.23.69.6,1.24,1.31,1.42a9.36,9.36,0,0,0,6.67-.78c-2.12,3.59-1.89,8.05-1.6,12.21a1.1,1.1,0,0,0,.19.64c.33.36.93.1,1.33-.2a13.87,13.87,0,0,0,5.05-7.79,19.28,19.28,0,0,0,2.85,10.1c.13.21.3.45.55.44a.72.72,0,0,0,.52-.35,17.32,17.32,0,0,0,3.61-11.32,20.22,20.22,0,0,0,9.47,6,13.75,13.75,0,0,0-3.94-8.61A27.75,27.75,0,0,0,275,314.38Z" style="fill:#263238"></path><path d="M257.88,165.75V307.63c0,2,2,2,2,0V165.75c0-2-2-2-2,0Z" style="fill:#263238"></path><path d="M258,296.16c-1.59.72-2.41,2.5-2.8,4.2a22,22,0,0,1-1.28,5.07c-1.08,2.19-3.78,4.36-5.87,5.63,3.4,1.09,7.57,0,9.07-3.25-.26,3.8.46,5.55,2.79,8.57a11.8,11.8,0,0,0,1.63-8.65c1.55,3.17,5.35,4.35,8.86,4-4-3.12-7.07-6.82-8.22-11.77a8,8,0,0,0-.89-2.65,2.2,2.2,0,0,0-2.38-1.07" style="fill:#263238"></path><path d="M255.69,333.27a2,2,0,1,1-2.05-2A2,2,0,0,1,255.69,333.27Z" style="fill:#263238"></path><path d="M255.69,333.27a2,2,0,1,1-2.05-2A2,2,0,0,1,255.69,333.27Z" style="fill:#263238;opacity:0.6000000000000001"></path><path d="M254.55,333.27a.91.91,0,1,1-.91-.91A.9.9,0,0,1,254.55,333.27Z" style="fill:#263238"></path><path d="M350.39,208.71a8.66,8.66,0,0,1-.83-2,34.08,34.08,0,0,1-1.81-10.15,8.94,8.94,0,0,1,.09-2.14,14.6,14.6,0,0,1,.2,2.13c.1,1.31.29,3.11.64,5.09s.8,3.72,1.16,5A13.94,13.94,0,0,1,350.39,208.71Z" style="fill:#263238"></path><path d="M348.34,206.91a2.05,2.05,0,1,0,2.05-2A2.05,2.05,0,0,0,348.34,206.91Z" style="fill:#263238"></path><path d="M348.34,206.91a2.05,2.05,0,1,0,2.05-2A2.05,2.05,0,0,0,348.34,206.91Z" style="fill:#263238;opacity:0.6000000000000001"></path><path d="M349.48,206.91a.91.91,0,1,0,.91-.91A.9.9,0,0,0,349.48,206.91Z" style="fill:#263238"></path><path d="M347.1,218.32a9,9,0,0,1-.83-2,34.23,34.23,0,0,1-1.81-10.15,8.87,8.87,0,0,1,.09-2.14,12.81,12.81,0,0,1,.2,2.12c.1,1.31.29,3.12.64,5.09s.8,3.72,1.16,5A13.94,13.94,0,0,1,347.1,218.32Z" style="fill:#263238"></path><circle cx="347.1" cy="216.52" r="2.05" style="fill:#263238"></circle><circle cx="347.1" cy="216.52" r="2.05" style="fill:#263238;opacity:0.6000000000000001"></circle><path d="M346.2,216.52a.91.91,0,1,0,.9-.9A.9.9,0,0,0,346.2,216.52Z" style="fill:#263238"></path><path d="M338.33,212.81a13.94,13.94,0,0,1,.55-2.06c.36-1.27.81-3,1.16-5s.54-3.77.64-5.08a14.6,14.6,0,0,1,.2-2.13,8.94,8.94,0,0,1,.09,2.14,35.25,35.25,0,0,1-.52,5.15,34.87,34.87,0,0,1-1.29,5A8.66,8.66,0,0,1,338.33,212.81Z" style="fill:#263238"></path><path d="M359.69,194.17c-2.59-1.49-8.3-4.35-9.95-7.51l-8.58-2.33c-2.59,1.35-7.08,7.19-12.92,8.29a1.08,1.08,0,0,0-.78.7c-.23.69.6,1.24,1.3,1.42a9.44,9.44,0,0,0,6.68-.77c-2.12,3.59-1.89,8-1.6,12.2a1.1,1.1,0,0,0,.19.64c.33.36.93.1,1.32-.2a13.94,13.94,0,0,0,5.06-7.79,19.24,19.24,0,0,0,2.84,10.1c.13.21.31.45.56.45a.81.81,0,0,0,.52-.36,17.31,17.31,0,0,0,3.6-11.32,20.25,20.25,0,0,0,9.48,5.95,13.8,13.8,0,0,0-3.94-8.61A27.75,27.75,0,0,0,359.69,194.17Z" style="fill:#263238"></path><path d="M342.56,96.3v91.64a1,1,0,0,0,2,0V96.3a1,1,0,0,0-2,0Z" style="fill:#263238"></path><path d="M342.66,176c-1.59.72-2.42,2.5-2.81,4.2a22.56,22.56,0,0,1-1.27,5.07c-1.09,2.19-3.78,4.36-5.87,5.63,3.39,1.09,7.56,0,9.07-3.25-.27,3.8.46,5.55,2.79,8.57a11.8,11.8,0,0,0,1.63-8.65c1.54,3.17,5.35,4.35,8.86,4-4-3.12-7.08-6.82-8.23-11.77a8,8,0,0,0-.88-2.65,2.24,2.24,0,0,0-2.39-1.07" style="fill:#263238"></path><circle cx="338.33" cy="213.06" r="2.05" style="fill:#263238"></circle><circle cx="338.33" cy="213.06" r="2.05" style="fill:#263238;opacity:0.6000000000000001"></circle><path d="M339.24,213.06a.91.91,0,1,1-.91-.91A.9.9,0,0,1,339.24,213.06Z" style="fill:#263238"></path><path d="M149.13,447.22a1.07,1.07,0,0,1,.45-1c.29-.24.64-.39.93-.62a4.71,4.71,0,0,0,1.37-2.44,5.13,5.13,0,0,1,1.31-2.49,2.74,2.74,0,0,1,2.1-.59,3,3,0,0,1,1.89,1.12c.68.85.88,2,1.5,2.89a19.07,19.07,0,0,0,2,2,1.84,1.84,0,0,1,.38.57.68.68,0,0,1-.07.65Z" style="fill:#ebebeb"></path><path d="M149.12,447.27c0,.5,2.66.91,5.94.91s5.94-.41,5.94-.91-2.66-.91-5.94-.91S149.12,446.77,149.12,447.27Z" style="fill:#e0e0e0"></path><path d="M158.14,452.42a10.93,10.93,0,0,1-1.86-3.08,12.19,12.19,0,0,1-.64-3h-1.27a74,74,0,0,0,2.65,9Z" style="fill:#ebebeb"></path><path d="M151.63,446.52h.08l.24,0c.2,0,.5-.05.87-.08s.81-.05,1.29-.06,1,0,1.59,0c1.13,0,2.15.12,2.88.2l.87.11.23,0h.09l-.08,0-.24,0c-.2,0-.5-.08-.87-.12a27.47,27.47,0,0,0-2.88-.22c-.56,0-1.1,0-1.59,0s-.93,0-1.29.07l-.88.1-.23,0Z" style="fill:#263238"></path><path d="M159,446.54a6.66,6.66,0,0,1,.2.68c.09.38.11.7.13.7a1.16,1.16,0,0,0,0-.21,3.94,3.94,0,0,0-.07-.5,3.53,3.53,0,0,0-.16-.49C159.06,446.6,159,446.53,159,446.54Z" style="fill:#455a64"></path><path d="M157.13,446.46a.79.79,0,0,0,.05.24c0,.17.1.37.16.58s.11.41.16.58a.74.74,0,0,0,.07.24,1.07,1.07,0,0,0,0-.25c0-.15-.07-.36-.13-.58s-.13-.43-.18-.58S157.13,446.46,157.13,446.46Z" style="fill:#455a64"></path><path d="M153.34,448.23a1.52,1.52,0,0,0,0-.27c0-.17,0-.4,0-.66s0-.49,0-.66a1.38,1.38,0,0,0,0-.27.94.94,0,0,0-.05.27c0,.17,0,.4,0,.66a5,5,0,0,0,0,.66A.85.85,0,0,0,153.34,448.23Z" style="fill:#455a64"></path><path d="M151.32,447.93a4.32,4.32,0,0,1,.07-.7,5.55,5.55,0,0,1,.21-.67.83.83,0,0,0-.11.18,2.75,2.75,0,0,0-.15.48,2.54,2.54,0,0,0-.05.5A.65.65,0,0,0,151.32,447.93Z" style="fill:#455a64"></path><path d="M154.48,435.7a1.1,1.1,0,0,1,.46-1c.28-.24.63-.4.93-.62a4.7,4.7,0,0,0,1.36-2.44,5.21,5.21,0,0,1,1.31-2.49,2.66,2.66,0,0,1,2.1-.59,3.05,3.05,0,0,1,1.9,1.11c.68.86.88,2,1.5,2.9a20,20,0,0,0,2,2,1.59,1.59,0,0,1,.38.56.73.73,0,0,1-.06.66Z" style="fill:#ebebeb"></path><path d="M154.47,435.76c0,.5,2.66.9,5.94.9s6-.4,6-.9-2.66-.91-6-.91S154.47,435.25,154.47,435.76Z" style="fill:#e0e0e0"></path><path d="M167.53,456.13s-5.35-16.71-5.9-18.31a12.65,12.65,0,0,1-.64-3h-1.26s4.53,16.77,5.73,19.52Z" style="fill:#ebebeb"></path><path d="M157,435h.08l.24,0,.87-.07c.37,0,.81-.05,1.3-.07h1.59c1.12,0,2.14.12,2.87.2l.87.11.24,0h.08l-.08,0-.23,0-.87-.13c-.74-.09-1.75-.18-2.88-.21-.57,0-1.1,0-1.59,0s-.93,0-1.3.08l-.87.09-.24,0Z" style="fill:#263238"></path><path d="M164.37,435s.11.3.2.68.1.7.12.7a.61.61,0,0,0,0-.21,2.19,2.19,0,0,0-.07-.51,2.75,2.75,0,0,0-.15-.48C164.42,435.09,164.38,435,164.37,435Z" style="fill:#455a64"></path><path d="M162.48,435a1.3,1.3,0,0,0,.06.24c0,.17.1.36.16.58s.11.41.15.58.07.24.07.24a.77.77,0,0,0,0-.25c0-.15-.08-.36-.14-.59s-.12-.42-.17-.57A.72.72,0,0,0,162.48,435Z" style="fill:#455a64"></path><path d="M158.7,436.72s0-.11,0-.28,0-.4,0-.65,0-.49,0-.66a1.38,1.38,0,0,0,0-.27s0,.1,0,.27a5,5,0,0,0-.06.65c0,.26,0,.5,0,.66A1.17,1.17,0,0,0,158.7,436.72Z" style="fill:#455a64"></path><path d="M156.67,436.42s0-.32.07-.7.23-.66.21-.67a.49.49,0,0,0-.1.18,2.07,2.07,0,0,0-.16.48,1.85,1.85,0,0,0,0,.5A.53.53,0,0,0,156.67,436.42Z" style="fill:#455a64"></path><path d="M164.48,443.44a1.07,1.07,0,0,1,.46-1c.28-.24.63-.4.93-.63a4.7,4.7,0,0,0,1.37-2.44,5.13,5.13,0,0,1,1.3-2.48,2.66,2.66,0,0,1,2.1-.59,3,3,0,0,1,1.9,1.11c.68.86.88,2,1.5,2.9a20,20,0,0,0,2,2,1.77,1.77,0,0,1,.39.56.71.71,0,0,1-.07.65Z" style="fill:#ebebeb"></path><path d="M164.47,443.49c0,.51,2.66.91,5.94.91s6-.4,6-.91-2.66-.9-6-.9S164.47,443,164.47,443.49Z" style="fill:#e0e0e0"></path><path d="M177.54,463.87s-5.36-16.71-5.91-18.31a12.31,12.31,0,0,1-.63-3h-1.27s4.53,16.76,5.73,19.51Z" style="fill:#ebebeb"></path><path d="M167,442.75h.09l.23,0,.87-.07c.37,0,.81,0,1.3-.07h1.59c1.12,0,2.14.12,2.88.2l.86.11.24,0h0l-.23,0-.87-.13a27.83,27.83,0,0,0-2.88-.21c-.57,0-1.1,0-1.59,0s-.93.05-1.3.08l-.87.09-.24,0Z" style="fill:#263238"></path><path d="M174.37,442.76s.11.3.2.68.1.7.12.7a.72.72,0,0,0,0-.21,3,3,0,0,0-.08-.5,2.75,2.75,0,0,0-.15-.48A.61.61,0,0,0,174.37,442.76Z" style="fill:#455a64"></path><path d="M172.48,442.69l.06.24c.05.17.1.36.16.58s.11.41.15.58.07.24.07.24a.76.76,0,0,0,0-.25c0-.15-.08-.36-.14-.59s-.12-.43-.17-.57S172.49,442.68,172.48,442.69Z" style="fill:#455a64"></path><path d="M168.7,444.46a1.3,1.3,0,0,0,0-.28c0-.17,0-.4,0-.65s0-.49,0-.66a.8.8,0,0,0,0-.27s0,.1,0,.26-.05.4-.06.66,0,.49,0,.66A1.17,1.17,0,0,0,168.7,444.46Z" style="fill:#455a64"></path><path d="M166.67,444.16s0-.32.08-.7a6.94,6.94,0,0,1,.2-.67.49.49,0,0,0-.1.18,2.07,2.07,0,0,0-.16.48,1.85,1.85,0,0,0,0,.5A1,1,0,0,0,166.67,444.16Z" style="fill:#455a64"></path><path d="M407.05,240.69a9.75,9.75,0,0,1-1-2.35,40.4,40.4,0,0,1-2.17-12.12,10.57,10.57,0,0,1,.12-2.56,16.48,16.48,0,0,1,.25,2.54c.12,1.56.35,3.72.76,6.07s1,4.45,1.39,6A15.6,15.6,0,0,1,407.05,240.69Z" style="fill:#ffbf9d"></path><circle cx="407.05" cy="238.54" r="2.45" style="fill:#92E3A9"></circle><circle cx="407.05" cy="238.54" r="2.45" style="fill:#fff;opacity:0.6000000000000001"></circle><circle cx="407.05" cy="238.54" r="1.08" style="fill:#92E3A9"></circle><path d="M403.13,252.17a9.73,9.73,0,0,1-1-2.35A41.24,41.24,0,0,1,400,237.69a10.45,10.45,0,0,1,.12-2.55,15,15,0,0,1,.25,2.54c.12,1.56.35,3.71.77,6.07s.95,4.45,1.38,6A17.44,17.44,0,0,1,403.13,252.17Z" style="fill:#ffbf9d"></path><circle cx="403.13" cy="250.02" r="2.45" style="fill:#92E3A9"></circle><circle cx="403.13" cy="250.02" r="2.45" style="fill:#fff;opacity:0.6000000000000001"></circle><circle cx="403.13" cy="250.02" r="1.08" style="fill:#92E3A9"></circle><path d="M392.65,245.59a16.11,16.11,0,0,1,.65-2.47c.43-1.51,1-3.61,1.38-6s.65-4.5.77-6.07a15,15,0,0,1,.25-2.53,10.38,10.38,0,0,1,.12,2.55,41.25,41.25,0,0,1-2.17,12.12A10.21,10.21,0,0,1,392.65,245.59Z" style="fill:#ffbf9d"></path><path d="M418.16,223.33c-3.09-1.77-9.91-5.19-11.88-9L396,211.58c-3.09,1.62-8.45,8.59-15.42,9.9a1.29,1.29,0,0,0-.94.84c-.28.82.72,1.48,1.56,1.7a11.25,11.25,0,0,0,8-.93c-2.53,4.29-2.26,9.6-1.91,14.57a1.24,1.24,0,0,0,.23.76c.39.44,1.11.13,1.58-.23a16.62,16.62,0,0,0,6-9.31A22.93,22.93,0,0,0,398.53,241c.15.25.37.53.66.53a.87.87,0,0,0,.62-.43,20.67,20.67,0,0,0,4.31-13.52,24.11,24.11,0,0,0,11.31,7.11,16.39,16.39,0,0,0-4.7-10.28A33.34,33.34,0,0,0,418.16,223.33Z" style="fill:#92E3A9"></path><path d="M384,242.1a1.33,1.33,0,1,1-1.32-1.33A1.32,1.32,0,0,1,384,242.1Z" style="fill:#92E3A9"></path><path d="M384,242.1a1.33,1.33,0,1,1-1.32-1.33A1.32,1.32,0,0,1,384,242.1Z" style="fill:#fff;opacity:0.6000000000000001"></path><path d="M383.27,242.1a.59.59,0,1,1-.58-.59A.58.58,0,0,1,383.27,242.1Z" style="fill:#92E3A9"></path><path d="M421.45,230.21a1.33,1.33,0,1,1-1.32-1.32A1.33,1.33,0,0,1,421.45,230.21Z" style="fill:#92E3A9"></path><path d="M421.45,230.21a1.33,1.33,0,1,1-1.32-1.32A1.33,1.33,0,0,1,421.45,230.21Z" style="fill:#fff;opacity:0.6000000000000001"></path><path d="M420.71,230.21a.59.59,0,1,1-.58-.58A.58.58,0,0,1,420.71,230.21Z" style="fill:#92E3A9"></path><path d="M389.67,209.19a1.33,1.33,0,1,1-1.33-1.33A1.33,1.33,0,0,1,389.67,209.19Z" style="fill:#92E3A9"></path><path d="M389.67,209.19a1.33,1.33,0,1,1-1.33-1.33A1.33,1.33,0,0,1,389.67,209.19Z" style="fill:#fff;opacity:0.6000000000000001"></path><circle cx="388.34" cy="209.19" r="0.59" style="fill:#92E3A9"></circle><path d="M397.64,106.47V215.89a1.25,1.25,0,0,0,2.5,0V106.47a1.25,1.25,0,0,0-2.5,0Z" style="fill:#455a64"></path><path d="M397.82,201.58c-1.9.85-2.88,3-3.35,5s-.59,4.18-1.52,6.05c-1.3,2.61-4.51,5.21-7,6.71,4.05,1.31,9,0,10.83-3.88-.32,4.55.55,6.63,3.33,10.24,1.66-2.37,2.62-5.88,1.95-10.33,1.84,3.79,6.39,5.2,10.58,4.74-4.8-3.72-8.45-8.14-9.82-14.06a9.91,9.91,0,0,0-1.06-3.16,2.66,2.66,0,0,0-2.85-1.27" style="fill:#455a64"></path><circle cx="392.65" cy="245.89" r="2.45" style="fill:#92E3A9"></circle><circle cx="392.65" cy="245.89" r="2.45" style="fill:#fff;opacity:0.6000000000000001"></circle><circle cx="392.65" cy="245.89" r="1.08" style="fill:#92E3A9"></circle><path d="M287.86,430.69a.87.87,0,0,1,.37-.77c.22-.19.5-.32.74-.5a3.82,3.82,0,0,0,1.09-1.94,4,4,0,0,1,1-2,2.1,2.1,0,0,1,1.67-.47,2.34,2.34,0,0,1,1.5.88c.54.68.7,1.59,1.2,2.3a16.1,16.1,0,0,0,1.59,1.61,1.35,1.35,0,0,1,.31.44.56.56,0,0,1-.06.52Z" style="fill:#ebebeb"></path><ellipse cx="292.58" cy="430.73" rx="4.73" ry="0.72" style="fill:#e0e0e0"></ellipse><path d="M298.25,446.94s-4.26-13.3-4.7-14.57a9.65,9.65,0,0,1-.5-2.36h-1s3.6,13.33,4.56,15.52Z" style="fill:#ebebeb"></path><path d="M289.85,430.13h.07l.19,0,.69-.06,1-.05h1.26c.9,0,1.71.09,2.29.16l.69.08.19,0h0l-.18,0-.69-.1a21.24,21.24,0,0,0-2.29-.17h-1.27l-1,.06c-.29,0-.53.05-.69.08l-.19,0Z" style="fill:#263238"></path><path d="M295.73,430.15s.09.23.16.54.08.55.1.55v-.16a2.29,2.29,0,0,0-.06-.4,3.11,3.11,0,0,0-.12-.39C295.77,430.2,295.74,430.14,295.73,430.15Z" style="fill:#455a64"></path><path d="M294.23,430.09a.67.67,0,0,0,0,.19l.13.46c.05.17.09.33.12.46a.62.62,0,0,0,.06.19.5.5,0,0,0,0-.2c0-.12-.06-.28-.11-.46s-.1-.35-.14-.46A.92.92,0,0,0,294.23,430.09Z" style="fill:#455a64"></path><path d="M291.22,431.49a1.87,1.87,0,0,0,0-.21c0-.14,0-.32,0-.53s0-.39,0-.52,0-.22,0-.22a.86.86,0,0,0,0,.22,3.55,3.55,0,0,0,0,.52c0,.21,0,.39,0,.53A.53.53,0,0,0,291.22,431.49Z" style="fill:#455a64"></path><path d="M289.61,431.25a3.13,3.13,0,0,1,.06-.55,4.29,4.29,0,0,1,.16-.53s0,.05-.08.14a1.4,1.4,0,0,0-.13.38,1.48,1.48,0,0,0,0,.4C289.59,431.19,289.6,431.25,289.61,431.25Z" style="fill:#455a64"></path><path d="M275.83,423.8a1.19,1.19,0,0,1,.51-1.09c.32-.26.71-.44,1-.69a5.29,5.29,0,0,0,1.53-2.74,5.77,5.77,0,0,1,1.47-2.78,3,3,0,0,1,2.35-.66,3.36,3.36,0,0,1,2.12,1.25c.76,1,1,2.24,1.68,3.24a20.78,20.78,0,0,0,2.25,2.25,1.88,1.88,0,0,1,.42.63.78.78,0,0,1-.07.73Z" style="fill:#ebebeb"></path><path d="M275.81,423.85c0,.57,3,1,6.66,1s6.66-.45,6.66-1-3-1-6.66-1S275.81,423.29,275.81,423.85Z" style="fill:#e0e0e0"></path><path d="M290.45,446.68s-6-18.72-6.62-20.51a13.8,13.8,0,0,1-.71-3.33H281.7s5.08,18.78,6.42,21.86Z" style="fill:#ebebeb"></path><path d="M278.63,423h.09l.27,0,1-.08,1.45-.08h1.78c1.26,0,2.4.13,3.22.22l1,.12.26,0h.09s0,0-.09,0l-.26-.05-1-.14c-.82-.1-2-.21-3.23-.24-.63,0-1.23,0-1.78,0s-1,.05-1.45.08-.75.07-1,.11l-.26,0Z" style="fill:#263238"></path><path d="M286.9,423s.13.33.22.76.12.78.14.78a.88.88,0,0,0,0-.23,3.85,3.85,0,0,0-.09-.57,3.48,3.48,0,0,0-.17-.54C287,423.11,286.91,423,286.9,423Z" style="fill:#455a64"></path><path d="M284.79,423a1.44,1.44,0,0,0,.06.27c0,.19.11.41.18.65s.12.46.17.65a1.29,1.29,0,0,0,.08.27.81.81,0,0,0,0-.28c0-.17-.08-.4-.15-.66s-.14-.48-.2-.64A1,1,0,0,0,284.79,423Z" style="fill:#455a64"></path><path d="M280.55,424.93a2,2,0,0,0,0-.3c0-.19,0-.45,0-.74s0-.55,0-.74,0-.3,0-.3a1.39,1.39,0,0,0-.06.3c0,.19,0,.45-.06.74s0,.55,0,.74A1.36,1.36,0,0,0,280.55,424.93Z" style="fill:#455a64"></path><path d="M278.28,424.6a6.39,6.39,0,0,1,.08-.78c.09-.43.25-.75.23-.76a2.08,2.08,0,0,0-.11.21,3,3,0,0,0-.18.53,3.19,3.19,0,0,0-.05.56A.83.83,0,0,0,278.28,424.6Z" style="fill:#455a64"></path><path d="M298.45,436.19a.73.73,0,0,1,.3-.64c.19-.15.42-.26.62-.41a3.15,3.15,0,0,0,.9-1.6,3.3,3.3,0,0,1,.86-1.64,1.76,1.76,0,0,1,1.38-.39,2,2,0,0,1,1.25.73c.45.57.58,1.32,1,1.91a12.74,12.74,0,0,0,1.32,1.33,1.05,1.05,0,0,1,.25.37.47.47,0,0,1,0,.43Z" style="fill:#ebebeb"></path><path d="M298.45,436.22c0,.33,1.75.6,3.91.6s3.92-.27,3.92-.6-1.76-.6-3.92-.6S298.45,435.89,298.45,436.22Z" style="fill:#e0e0e0"></path><path d="M307.05,449.65s-3.52-11-3.89-12.06a8.56,8.56,0,0,1-.42-2h-.83s3,11,3.78,12.85Z" style="fill:#ebebeb"></path><path d="M300.1,435.73h.21a5.71,5.71,0,0,1,.58-.05l.85-.05h1c.75,0,1.42.08,1.9.13l.57.07.16,0h0l-.16,0-.57-.08a17.17,17.17,0,0,0-1.89-.14h-1.05l-.86.05-.57.06-.16,0Z" style="fill:#263238"></path><path d="M305,435.74s.07.2.13.45.07.46.08.46a.5.5,0,0,0,0-.14,1.65,1.65,0,0,0-.05-.33,3.12,3.12,0,0,0-.1-.32Z" style="fill:#455a64"></path><path d="M303.72,435.69a1.45,1.45,0,0,0,0,.16l.11.38c0,.14.07.27.1.38a1.47,1.47,0,0,0,0,.16s0-.06,0-.16-.05-.24-.09-.39-.08-.28-.11-.38A.69.69,0,0,0,303.72,435.69Z" style="fill:#455a64"></path><path d="M301.23,436.86a.54.54,0,0,0,0-.18c0-.11,0-.27,0-.44s0-.32,0-.43,0-.18,0-.18a.5.5,0,0,0,0,.18,4,4,0,0,0,0,.43,3.2,3.2,0,0,0,0,.44A1.41,1.41,0,0,0,301.23,436.86Z" style="fill:#455a64"></path><path d="M299.9,436.66a3.25,3.25,0,0,1,0-.46,3.16,3.16,0,0,1,.14-.44.86.86,0,0,0-.07.12,2.28,2.28,0,0,0-.1.31,1.43,1.43,0,0,0,0,.33C299.88,436.61,299.89,436.66,299.9,436.66Z" style="fill:#455a64"></path><path d="M273.18,433a.73.73,0,0,1,.3-.64c.19-.15.42-.26.61-.4a3.08,3.08,0,0,0,.9-1.61,3.39,3.39,0,0,1,.87-1.64,1.76,1.76,0,0,1,1.38-.39,2,2,0,0,1,1.25.74c.44.56.58,1.31,1,1.9a12.85,12.85,0,0,0,1.33,1.33,1.15,1.15,0,0,1,.25.37.47.47,0,0,1-.05.43Z" style="fill:#ebebeb"></path><path d="M273.17,433c0,.33,1.76.6,3.92.6s3.91-.27,3.91-.6-1.75-.59-3.91-.59S273.17,432.71,273.17,433Z" style="fill:#e0e0e0"></path><path d="M281.78,446.47s-3.53-11-3.89-12.06a7.87,7.87,0,0,1-.42-2h-.83s3,11,3.77,12.85Z" style="fill:#ebebeb"></path><path d="M274.83,432.55H275l.57-.05.86-.05h1c.74,0,1.41.08,1.9.13l.57.07.15,0h0l-.16,0-.57-.08c-.48-.06-1.15-.12-1.9-.14q-.56,0-1.05,0l-.85,0-.57.06-.16,0Z" style="fill:#263238"></path><path d="M279.69,432.56s.08.2.13.45.07.46.08.46,0-.05,0-.14a3,3,0,0,0-.05-.33,2.86,2.86,0,0,0-.1-.31C279.72,432.61,279.7,432.56,279.69,432.56Z" style="fill:#455a64"></path><path d="M278.45,432.51a1,1,0,0,0,0,.16l.1.38.1.39.05.15s0-.06,0-.16-.05-.24-.09-.39a2.7,2.7,0,0,0-.12-.37A1.1,1.1,0,0,0,278.45,432.51Z" style="fill:#455a64"></path><path d="M276,433.68s0-.07,0-.18,0-.27,0-.43,0-.33,0-.44,0-.18,0-.18l0,.18c0,.11,0,.26,0,.43s0,.33,0,.44A.72.72,0,0,0,276,433.68Z" style="fill:#455a64"></path><path d="M274.62,433.48s0-.21.05-.46a3.83,3.83,0,0,1,.14-.44s0,0-.07.12a1.13,1.13,0,0,0-.1.31,1,1,0,0,0,0,.33A.79.79,0,0,0,274.62,433.48Z" style="fill:#455a64"></path><path d="M274.15,148.86l5.6,51.51c17.79-10.69,54.78-66.28,54.78-66.28s22.81-2.17,21.18,0-19.55,34.21-19.55,34.21l42.35-20.09,6,11.94s-53.22,23.9-62.45,32.58-72.83,78.46-83.14,110.5l-9.67,30.52,20.05,61.52L258,422.42,270.5,438.6l49.91,5.54L373.13,480H347l-29.86-18.47-26.61.55L304,480H282.47l-15.81-16.3-8.73,16.21-47-.08-42.33-13.54-29,13.71H119.46l38.74-25.81a16.29,16.29,0,0,1,11.56-2.53l24.84,3.9s-25-100.44-25-103.23,10.69-36.23,10.69-36.23l-28.78-42.44-14.11-51.59s9.23-9.23,8.68-7.6,6.52,23.35,6.52,23.35l11.58-29.86,4.71,2.17-8.85,42.75,7.13,9.42L194,290.52l66.93-79.45s-5.86-62.93-6.16-59.89h0" style="fill:#ae7461"></path><path d="M274.52,402.77s39.26,0,44.9-3.65,27.82-26.49,27.82-26.49l2-41s-39.68-25.24-42.07-25.09-23.36,4.82-23.36,4.82l-3.39,26,6.69,1.06,5.4-16.82,18.74,1.25,20.47,13.89s-3.92,26.2-6.7,26.9-21.77,11.27-21.77,11.27L227,352.16l12.94,49.19Z" style="fill:#ae7461"></path><path d="M169.45,352.21a1.85,1.85,0,0,1,.15.33l.4,1,1.48,3.72a105.19,105.19,0,0,0,6.09,13.36,48.33,48.33,0,0,0,5.87,8.22,57.78,57.78,0,0,0,8.59,7.8,126.14,126.14,0,0,0,10.72,7.11c3.82,2.31,7.82,4.64,12,6.94,8.29,4.61,16.35,8.69,23.78,12.18a95.18,95.18,0,0,1,19,10.81c.3.25.61.49.89.77a2.73,2.73,0,0,1,.4.47,4.61,4.61,0,0,0,.29.43,13.46,13.46,0,0,0,1.51,1.51c1,.92,2,1.8,2.92,2.67a37.75,37.75,0,0,1,4.18,4.77,30,30,0,0,1,2.85,4.59l-.2-.3-.55-.88c-.48-.78-1.22-1.9-2.26-3.29a39.34,39.34,0,0,0-4.22-4.68c-.89-.85-1.89-1.71-2.94-2.64a12.47,12.47,0,0,1-1.56-1.53,4.26,4.26,0,0,1-.34-.49,2.83,2.83,0,0,0-.34-.38,10.61,10.61,0,0,0-.86-.73,96.12,96.12,0,0,0-18.94-10.67c-7.46-3.46-15.53-7.54-23.83-12.15q-6.22-3.47-12-7A123.69,123.69,0,0,1,191.74,387a57.92,57.92,0,0,1-8.62-7.89,48.63,48.63,0,0,1-5.87-8.33,99.11,99.11,0,0,1-6-13.47c-.6-1.61-1.06-2.87-1.39-3.75l-.35-1A1.86,1.86,0,0,1,169.45,352.21Z" style="fill:#6f4439"></path><path d="M296.65,470.19a4.27,4.27,0,0,1-.49-.57l-1.33-1.7c-1.14-1.49-2.75-3.68-4.73-6.43s-4.3-6-7-9.66a131.71,131.71,0,0,0-9.33-11.42l0,0a6,6,0,0,0-3.28-1.32,8.72,8.72,0,0,0-4,.61,10.53,10.53,0,0,0-3.33,2.19,28,28,0,0,0-4.57,6.16c-2.54,4.24-4.73,8.12-6.51,11.41s-3.17,6-4.13,7.83c-.46.9-.82,1.62-1.1,2.15a4,4,0,0,1-.41.73,7.84,7.84,0,0,1,.32-.78l1-2.19c.9-1.88,2.24-4.61,4-7.92s3.9-7.22,6.43-11.48a28.37,28.37,0,0,1,4.63-6.28,11.1,11.1,0,0,1,3.49-2.3,9.16,9.16,0,0,1,4.26-.65,6.63,6.63,0,0,1,3.57,1.44h0a127.4,127.4,0,0,1,9.32,11.5c2.67,3.65,5,7,6.91,9.74l4.6,6.52,1.25,1.75A4.76,4.76,0,0,1,296.65,470.19Z" style="fill:#6f4439"></path><path d="M230.44,466.27c0,.14-8.87-2.38-19.72-5.62s-19.62-6-19.58-6.11,8.87,2.37,19.72,5.62S230.48,466.13,230.44,466.27Z" style="fill:#6f4439"></path><path d="M194,290.52a4.57,4.57,0,0,1,.19.79c.11.58.26,1.34.44,2.3s.39,2.23.75,3.63c.17.7.34,1.45.53,2.25s.38,1.64.65,2.5c.51,1.75,1,3.67,1.74,5.68.36,1,.69,2.06,1.1,3.11s.87,2.14,1.33,3.25a90.33,90.33,0,0,0,7.36,13.73A95.33,95.33,0,0,0,217.77,340l2.45,2.51c.8.8,1.63,1.53,2.4,2.27,1.54,1.49,3.09,2.73,4.47,3.91s2.72,2.14,3.84,3.05,2.15,1.6,3,2.2l1.89,1.37a5.33,5.33,0,0,1,.64.51,4.27,4.27,0,0,1-.7-.42l-2-1.3c-.84-.56-1.89-1.25-3-2.13s-2.52-1.81-3.9-3-3-2.4-4.53-3.88c-.78-.73-1.62-1.46-2.43-2.26l-2.47-2.51a93.3,93.3,0,0,1-9.81-12.23,89.38,89.38,0,0,1-7.36-13.83c-.45-1.12-.89-2.21-1.31-3.27s-.73-2.13-1.09-3.15c-.72-2-1.2-4-1.69-5.71-.25-.88-.45-1.72-.62-2.52l-.48-2.27c-.33-1.41-.51-2.65-.67-3.65s-.26-1.74-.35-2.32A4.47,4.47,0,0,1,194,290.52Z" style="fill:#6f4439"></path><path d="M222.88,264.52a3.43,3.43,0,0,1,.27.68c.16.45.36,1.13.59,2a38,38,0,0,1,1,7.66,69.28,69.28,0,0,1-.69,11.42c-.56,4.27-1.45,8.92-2.12,13.83a64.4,64.4,0,0,0-.57,13.9,41.85,41.85,0,0,0,2.09,11.14,20.29,20.29,0,0,0,3.77,6.6,17,17,0,0,0,1.47,1.48,4.39,4.39,0,0,1,.52.51,5.52,5.52,0,0,1-.59-.43,13.85,13.85,0,0,1-1.55-1.42,19.62,19.62,0,0,1-4-6.62,41,41,0,0,1-2.23-11.22,62.78,62.78,0,0,1,.54-14c.67-4.93,1.57-9.57,2.16-13.82a73.11,73.11,0,0,0,.79-11.35,40.88,40.88,0,0,0-.85-7.62C223.16,265.49,222.83,264.53,222.88,264.52Z" style="fill:#6f4439"></path><path d="M266.67,257a2.3,2.3,0,0,1,.11-.59c.1-.43.24-1,.41-1.65.39-1.5.93-3.55,1.59-6.06l5.45-19.91c1-3.9,2.24-7.57,3.27-10.9a59.69,59.69,0,0,0,2.12-9,32.55,32.55,0,0,0,.27-6.22c-.08-1.47-.19-2.28-.14-2.29a2.41,2.41,0,0,1,.12.59,16.76,16.76,0,0,1,.22,1.69,28.68,28.68,0,0,1-.11,6.27,55.47,55.47,0,0,1-2,9.09c-1,3.35-2.19,7-3.23,10.9-2.17,7.73-4.14,14.72-5.59,19.87-.73,2.49-1.32,4.52-1.76,6l-.5,1.63A2.54,2.54,0,0,1,266.67,257Z" style="fill:#6f4439"></path><path d="M247.37,284a7,7,0,0,1-.29-.72,17.09,17.09,0,0,1-.65-2.14,24,24,0,0,1-.34-8.21,40.13,40.13,0,0,1,3.44-11.68c1.88-4.2,4.46-8.54,7-13.18,1.24-2.33,2.38-4.64,3.33-6.93a44,44,0,0,0,2.15-6.8,42.88,42.88,0,0,0-.33-20.08c-.47-1.88-.85-2.88-.79-2.9a3.47,3.47,0,0,1,.29.72c.19.48.43,1.19.7,2.12a40.39,40.39,0,0,1,1.45,8.09,41.43,41.43,0,0,1-.85,12.15,42.54,42.54,0,0,1-2.15,6.89,75,75,0,0,1-3.34,7c-2.5,4.66-5.09,9-7,13.14a40.54,40.54,0,0,0-3.5,11.53,24.55,24.55,0,0,0,.17,8.11C247,283,247.44,284,247.37,284Z" style="fill:#6f4439"></path><path d="M337.47,167.48a4.91,4.91,0,0,1-.75.36c-.5.23-1.25.51-2.18,1a66.76,66.76,0,0,0-18,12,66.09,66.09,0,0,0-10.22,12.07,101.24,101.24,0,0,0-7.49,14l-5.21,11.92c-1.52,3.38-2.87,6.06-3.88,7.87-.51.9-.91,1.6-1.2,2.06a4.17,4.17,0,0,1-.47.7,7.11,7.11,0,0,1,.37-.75l1.12-2.1c.95-1.84,2.25-4.53,3.72-7.93s3.12-7.48,5.11-12a97.86,97.86,0,0,1,7.49-14.08,65.05,65.05,0,0,1,10.34-12.15,65.93,65.93,0,0,1,10.41-7.82,60.29,60.29,0,0,1,7.82-4c.94-.42,1.71-.68,2.22-.88A4.09,4.09,0,0,1,337.47,167.48Z" style="fill:#6f4439"></path><path d="M321.81,396.64l-.48.09-1.43.22a39,39,0,0,1-5.55.28,48.52,48.52,0,0,1-8.72-1,66.89,66.89,0,0,1-11.13-3.37,122.47,122.47,0,0,1-12.76-6c-4.47-2.37-9.17-5.07-14.21-7.7a99.61,99.61,0,0,0-16.34-7,50.14,50.14,0,0,0-18.81-2.43c-6.54.48-12.49,3.16-18.57,4.51a24.37,24.37,0,0,1-9.14.54,16.45,16.45,0,0,1-8-3.66,26,26,0,0,1-5.39-6.39,49.25,49.25,0,0,1-3.54-7,89.23,89.23,0,0,1-4.31-13.42,173.94,173.94,0,0,1-3.31-20.13c-.26-2.38-.45-4.23-.59-5.51-.06-.62-.1-1.1-.13-1.44s0-.49,0-.49,0,.16.08.48.1.82.18,1.43c.16,1.28.39,3.13.69,5.5a183.82,183.82,0,0,0,3.47,20.07,88.1,88.1,0,0,0,4.35,13.34,48.46,48.46,0,0,0,3.53,7,25.62,25.62,0,0,0,5.31,6.26,15.94,15.94,0,0,0,7.73,3.54,23.87,23.87,0,0,0,8.95-.55c6-1.33,12-4,18.64-4.53a50.41,50.41,0,0,1,19,2.47,98.21,98.21,0,0,1,16.42,7.08c5,2.65,9.73,5.35,14.19,7.74a125.47,125.47,0,0,0,12.68,6.05,68.88,68.88,0,0,0,11.06,3.43,49.71,49.71,0,0,0,8.67,1.08,42.45,42.45,0,0,0,5.53-.17l1.43-.17Z" style="fill:#6f4439"></path><path d="M349.2,331.64a11.19,11.19,0,0,1-.14,1.62,11.44,11.44,0,0,1-.32,1.87,22.44,22.44,0,0,1-.64,2.45,26.62,26.62,0,0,1-1.07,2.87c-.22.5-.43,1-.69,1.55s-.56,1.06-.85,1.61a44.05,44.05,0,0,1-4.54,6.63,65.11,65.11,0,0,1-10.53,10.06c-1.48,1.15-2.72,2-3.59,2.59a10.37,10.37,0,0,1-1.38.85,9.62,9.62,0,0,1,1.27-1c.82-.63,2-1.53,3.47-2.7a73.52,73.52,0,0,0,10.35-10.11,45.17,45.17,0,0,0,4.53-6.54c.29-.54.58-1.06.86-1.57s.47-1,.71-1.53a27.13,27.13,0,0,0,1.11-2.81A57.18,57.18,0,0,0,349.2,331.64Z" style="fill:#6f4439"></path><path d="M307,306.79a9.75,9.75,0,0,1,1.43.65c.46.22,1,.5,1.64.87s1.35.76,2.1,1.27a47.09,47.09,0,0,1,5.13,3.8,52.34,52.34,0,0,1,5.54,5.52,48.35,48.35,0,0,1,4.52,6.39c.58,1.06,1.16,2,1.59,3,.22.48.45.95.64,1.4s.36.91.52,1.33a21.43,21.43,0,0,1,.79,2.33,14.8,14.8,0,0,1,.48,1.78,9.7,9.7,0,0,1,.3,1.55,8.09,8.09,0,0,1-.49-1.49c-.13-.49-.31-1.08-.56-1.75s-.49-1.46-.86-2.28c-.17-.42-.36-.85-.54-1.31l-.67-1.38c-.44-1-1-1.93-1.61-3a51.22,51.22,0,0,0-4.51-6.29,55.67,55.67,0,0,0-5.45-5.5,50.79,50.79,0,0,0-5-3.85c-.73-.53-1.44-.94-2-1.33s-1.14-.7-1.58-.94A7.72,7.72,0,0,1,307,306.79Z" style="fill:#6f4439"></path><g style="opacity:0.5"><path d="M205.52,352.73a96.17,96.17,0,0,0-4.45-15.42,11.4,11.4,0,0,0-2.08-3.55,4.55,4.55,0,0,0-3.69-1.53c-2.19.26-3.64,2.63-3.65,4.84s.56,3.45,1.27,6.27a47.08,47.08,0,0,0,6.58,14.82,4.7,4.7,0,0,0,2.52,2.22c1.64.41,3.29-1,3.77-2.63A10.1,10.1,0,0,0,205.52,352.73Z" style="fill:#6f4439"></path></g><g style="opacity:0.5"><path d="M194.87,318.89a2.93,2.93,0,0,0-3.94-.85l-.18-.1a5,5,0,0,0-1.17,6.7,3.42,3.42,0,0,0,3.06,1.62c1.79-.22,2.81-2.23,3-4A4.92,4.92,0,0,0,194.87,318.89Z" style="fill:#6f4439"></path></g><g style="opacity:0.5"><path d="M251.39,401.84l-.42.28a189.66,189.66,0,0,1-21.72-7.78c2.33,3.39,5.92,5.66,9.4,7.85,5.36,3.35,11.32,8.61,16.67,12Z" style="fill:#6f4439"></path></g><polygon points="158.35 471.11 154.22 479.98 159.46 479.98 170.4 464.85 158.35 471.11" style="fill:#ae7461"></polygon><path d="M295.07,471.59l10.15-2.16L324.29,480h-6L306,474s-4.28,1.52-5.12,1.84S295.07,471.59,295.07,471.59Z" style="fill:#ae7461"></path><g style="opacity:0.5"><path d="M336.56,368.78c-3.1,3.14-7.87,3.87-11.62,6.23-2.5,1.57-4.48,3.84-6.91,5.53a24.1,24.1,0,0,1-10.8,3.85,71.91,71.91,0,0,1-11.56.26c2.51,2.93,6.89,3.1,10.74,3,5-.16,10.17-.44,14.82-2.37a34,34,0,0,0,10-6.91,31.86,31.86,0,0,0,6.15-7.36,14.85,14.85,0,0,0,2-9.22l-3.36,7.71" style="fill:#6f4439"></path></g><g style="opacity:0.5"><path d="M250.5,238.46a5.29,5.29,0,0,0-1.32-2.45,3.11,3.11,0,0,0-3.41-.79h0a3.1,3.1,0,0,0-1.76,1.7,6,6,0,0,0-.36,3.53,3.5,3.5,0,0,0,4.88,2.63A4.23,4.23,0,0,0,250.5,238.46Z" style="fill:#6f4439"></path></g><g style="opacity:0.5"><path d="M225.5,438.9c-4.56-5.38-11.57-7.87-17.57-11.59-12.63-7.82-21.06-21.34-28.69-34.09l6.94,28.33c4.55,5.68,9.13,11.39,14.59,16.21s11.89,8.75,19,10.24c2.58.54,5.77.52,7.25-1.66S227.26,441,225.5,438.9Z" style="fill:#6f4439"></path></g><g style="opacity:0.5"><path d="M244.32,441.33a5.54,5.54,0,0,0-2.89,4.2,3.92,3.92,0,0,0,2.42,3.52,5.34,5.34,0,0,0,4.22-.15,4.89,4.89,0,0,0,2.93-3.16,4.11,4.11,0,0,0-1.89-4.28A5.08,5.08,0,0,0,244.32,441.33Z" style="fill:#6f4439"></path></g><path d="M271.55,439s5.32-.78,6.83.45S297,461.92,297,461.92l-6.49.14s-14.68-20.22-16.06-21.27a10.6,10.6,0,0,0-2.72-1.5" style="fill:#6f4439;opacity:0.5"></path><path d="M298.39,375.93c-.07.43-7.1-1.76-15.67-4.53l-11-3.53c-1.4-.44-2.55-.78-3.34-1s-1.27-.26-1.18-.15,0,0,0-.09.15-.06.26-.07a5.18,5.18,0,0,1,1,.11c.82.15,2,.43,3.41.83,2.85.78,6.75,2,11,3.38l11,3.61,3.32,1.09A5.46,5.46,0,0,0,298.39,375.93Z" style="fill:#fff"></path><path d="M318.9,368.6a69.5,69.5,0,0,1-7.49,4.31,69.21,69.21,0,0,1-7.73,3.85,73.74,73.74,0,0,1,7.49-4.31A73.67,73.67,0,0,1,318.9,368.6Z" style="fill:#fff"></path><path d="M321.24,367.13c.09.11-.1.4-.42.64s-.64.33-.72.22.1-.4.41-.64S321.15,367,321.24,367.13Z" style="fill:#fff"></path><path d="M333.54,339.13a50.63,50.63,0,0,1-1.36,7.13,50.08,50.08,0,0,1-1.87,7,51.19,51.19,0,0,1,1.36-7.13A50.58,50.58,0,0,1,333.54,339.13Z" style="fill:#fff"></path><path d="M323.93,330.13a21.83,21.83,0,0,1-3.94-2.51,21.27,21.27,0,0,1-3.64-2.93,21.44,21.44,0,0,1,3.94,2.51A20.33,20.33,0,0,1,323.93,330.13Z" style="fill:#fff"></path><path d="M303.8,320.92a6.43,6.43,0,0,1-2.53,0,6.24,6.24,0,0,1-2.48-.47,6.39,6.39,0,0,1,2.53,0A6.24,6.24,0,0,1,303.8,320.92Z" style="fill:#fff"></path><path d="M287.77,332.23c-.14,0,0-.81.25-1.72s.61-1.61.75-1.57,0,.82-.25,1.73S287.91,332.28,287.77,332.23Z" style="fill:#fff"></path><path d="M203.12,286.54a12.63,12.63,0,0,1-2,3,12.8,12.8,0,0,1-2.44,2.63,12.63,12.63,0,0,1,2-3A12.21,12.21,0,0,1,203.12,286.54Z" style="fill:#fff"></path><path d="M240,240a36.29,36.29,0,0,1-3.32,5.17,36,36,0,0,1-3.75,4.88,36.68,36.68,0,0,1,3.32-5.18A37.27,37.27,0,0,1,240,240Z" style="fill:#fff"></path><path d="M304.67,208a57,57,0,0,1-4.27,6.29,56.21,56.21,0,0,1-4.69,6A53.74,53.74,0,0,1,300,214,54.73,54.73,0,0,1,304.67,208Z" style="fill:#fff"></path><path d="M357.19,168.17a89.45,89.45,0,0,1-8.25,5.23,92.86,92.86,0,0,1-8.52,4.79,92,92,0,0,1,8.25-5.23A91.36,91.36,0,0,1,357.19,168.17Z" style="fill:#fff"></path><path d="M173.3,354.38a13,13,0,0,1,.17-2.68c.18-1.65.51-3.92,1-6.41s1.05-4.71,1.51-6.3a12.57,12.57,0,0,1,.86-2.54,13.59,13.59,0,0,1-.51,2.63c-.36,1.61-.86,3.84-1.35,6.31s-.87,4.73-1.15,6.36A13.78,13.78,0,0,1,173.3,354.38Z" style="fill:#fff"></path><path d="M180.4,392.59a58.26,58.26,0,0,1-2-7.58,60.52,60.52,0,0,1-1.51-7.71,58.72,58.72,0,0,1,2,7.59A60.21,60.21,0,0,1,180.4,392.59Z" style="fill:#fff"></path><path d="M177.71,332.33c.14,0,.12.58,0,1.23s-.41,1.15-.55,1.12-.12-.59,0-1.24S177.57,332.29,177.71,332.33Z" style="fill:#fff"></path><path d="M171.86,297a17.59,17.59,0,0,1-2.2-2.25c-1.29-1.45-3-3.5-4.82-5.85s-3.33-4.56-4.39-6.19a16.68,16.68,0,0,1-1.6-2.71,21.2,21.2,0,0,1,1.9,2.5c1.13,1.57,2.71,3.74,4.5,6.08s3.47,4.43,4.7,5.93A20.34,20.34,0,0,1,171.86,297Z" style="fill:#fff"></path><path d="M153.89,271.46c.12-.08.75.72,1.4,1.77s1.08,2,1,2-.74-.72-1.39-1.77A5.22,5.22,0,0,1,153.89,271.46Z" style="fill:#fff"></path><path d="M109.09,480,99.16,460.4l14.31-31.57s15.74-6.43,16.92-6.14,10,10.13,10,10.13l3-1.37L134.5,416s-27.16,2.92-28,2.92-22.77,27.74-22.77,27.74l-5.55,16.93L84.56,480Z" style="fill:#ae7461"></path><path d="M93.19,435.07a4,4,0,0,1,.25,1c.14.79.32,1.74.52,2.85.45,2.4,1.11,5.71,2,9.32s1.81,6.86,2.52,9.2l.84,2.76a4.52,4.52,0,0,1,.26,1,4.53,4.53,0,0,1-.45-1c-.26-.63-.6-1.56-1-2.72-.8-2.31-1.79-5.55-2.68-9.18s-1.49-7-1.84-9.39c-.18-1.21-.3-2.2-.36-2.88A4.26,4.26,0,0,1,93.19,435.07Z" style="fill:#6f4439"></path><path d="M133.35,416.44c0,.09-1.41.25-3.63.87a30.46,30.46,0,0,0-3.8,1.34,29.45,29.45,0,0,0-8.23,5.35,31.28,31.28,0,0,0-2.77,2.93c-1.46,1.77-2.18,3-2.27,3a3.81,3.81,0,0,1,.45-.91,19,19,0,0,1,1.54-2.28,24.61,24.61,0,0,1,2.73-3.05,29.44,29.44,0,0,1,3.93-3.11,29.78,29.78,0,0,1,4.44-2.33,25.83,25.83,0,0,1,3.89-1.26,19.83,19.83,0,0,1,2.71-.47A3.53,3.53,0,0,1,133.35,416.44Z" style="fill:#6f4439"></path><g style="opacity:0.5"><path d="M79.31,458.76a31.41,31.41,0,0,0,5.78,10.58,7.56,7.56,0,0,0,2.59,2.22,3.13,3.13,0,0,0,3.26-.25,3.28,3.28,0,0,0,.79-3.33A10.83,10.83,0,0,0,90,464.82a51.19,51.19,0,0,1-7.46-16.75" style="fill:#6f4439"></path></g><path d="M313.17,238.91V149a1.25,1.25,0,0,0-2.5,0v89.94a1.25,1.25,0,0,0,2.5,0Z" style="fill:#455a64"></path><path d="M323.34,277.54a14,14,0,0,1-1.17-2.86A50.76,50.76,0,0,1,319.55,260a15,15,0,0,1,.11-3.09,25.06,25.06,0,0,1,.26,3.07c.14,1.89.41,4.5.91,7.35s1.17,5.39,1.69,7.22A22.4,22.4,0,0,1,323.34,277.54Z" style="fill:#ffbf9d"></path><circle cx="323.34" cy="274.94" r="2.96" style="fill:#92E3A9"></circle><circle cx="323.34" cy="274.94" r="2.96" style="fill:#fff;opacity:0.6000000000000001"></circle><path d="M322,274.94a1.31,1.31,0,1,0,1.31-1.31A1.31,1.31,0,0,0,322,274.94Z" style="fill:#92E3A9"></path><path d="M318.59,291.43a14,14,0,0,1-1.17-2.86,49.83,49.83,0,0,1-1.85-7.23,51.55,51.55,0,0,1-.77-7.43,14.14,14.14,0,0,1,.11-3.09,25.06,25.06,0,0,1,.26,3.07,69.15,69.15,0,0,0,2.6,14.57A24.53,24.53,0,0,1,318.59,291.43Z" style="fill:#ffbf9d"></path><circle cx="318.59" cy="288.83" r="2.96" style="fill:#92E3A9"></circle><circle cx="318.59" cy="288.83" r="2.96" style="fill:#fff;opacity:0.6000000000000001"></circle><circle cx="318.59" cy="288.83" r="1.31" style="fill:#92E3A9"></circle><path d="M305.92,283.47a23.48,23.48,0,0,1,.81-3,71.13,71.13,0,0,0,1.69-7.21,72.87,72.87,0,0,0,.92-7.36,25.06,25.06,0,0,1,.26-3.07,14.64,14.64,0,0,1,.1,3.09,50,50,0,0,1-.76,7.43,52.2,52.2,0,0,1-1.85,7.23A14.68,14.68,0,0,1,305.92,283.47Z" style="fill:#ffbf9d"></path><path d="M336.78,256.53c-3.74-2.15-12-6.28-14.37-10.85L310,242.31c-3.74,2-10.22,10.39-18.66,12a1.55,1.55,0,0,0-1.13,1c-.34,1,.86,1.79,1.88,2.05a13.6,13.6,0,0,0,9.64-1.12c-3.06,5.18-2.73,11.62-2.3,17.63a1.45,1.45,0,0,0,.27.92c.48.53,1.35.15,1.91-.28a20.12,20.12,0,0,0,7.31-11.26,27.77,27.77,0,0,0,4.11,14.6c.18.31.44.64.8.64a1.06,1.06,0,0,0,.75-.52,24.93,24.93,0,0,0,5.21-16.35,29.38,29.38,0,0,0,13.69,8.6,19.84,19.84,0,0,0-5.69-12.44A40.75,40.75,0,0,0,336.78,256.53Z" style="fill:#92E3A9"></path><path d="M295.46,279.24a1.61,1.61,0,1,1-1.61-1.61A1.6,1.6,0,0,1,295.46,279.24Z" style="fill:#92E3A9"></path><path d="M295.46,279.24a1.61,1.61,0,1,1-1.61-1.61A1.6,1.6,0,0,1,295.46,279.24Z" style="fill:#fff;opacity:0.6000000000000001"></path><circle cx="293.85" cy="279.24" r="0.71" style="fill:#92E3A9"></circle><path d="M340.77,264.86a1.61,1.61,0,1,1-1.6-1.61A1.6,1.6,0,0,1,340.77,264.86Z" style="fill:#92E3A9"></path><path d="M340.77,264.86a1.61,1.61,0,1,1-1.6-1.61A1.6,1.6,0,0,1,340.77,264.86Z" style="fill:#fff;opacity:0.6000000000000001"></path><circle cx="339.17" cy="264.86" r="0.71" style="fill:#92E3A9"></circle><path d="M302.3,239.41a1.61,1.61,0,1,1-1.6-1.61A1.6,1.6,0,0,1,302.3,239.41Z" style="fill:#92E3A9"></path><path d="M302.3,239.41a1.61,1.61,0,1,1-1.6-1.61A1.6,1.6,0,0,1,302.3,239.41Z" style="fill:#fff;opacity:0.6000000000000001"></path><circle cx="300.7" cy="239.41" r="0.71" style="fill:#92E3A9"></circle><path d="M312.17,230.2c-2.3,1-3.49,3.61-4.06,6.08s-.72,5.06-1.84,7.32c-1.56,3.16-5.46,6.31-8.48,8.13,4.91,1.58,10.93,0,13.11-4.7-.38,5.5.66,8,4,12.39,2-2.86,3.16-7.11,2.35-12.5,2.24,4.59,7.74,6.29,12.81,5.74-5.81-4.51-10.22-9.85-11.89-17a11.49,11.49,0,0,0-1.28-3.82,3.23,3.23,0,0,0-3.45-1.55" style="fill:#455a64"></path><circle cx="305.92" cy="283.83" r="2.96" style="fill:#92E3A9"></circle><circle cx="305.92" cy="283.83" r="2.96" style="fill:#fff;opacity:0.6000000000000001"></circle><circle cx="305.92" cy="283.83" r="1.31" style="fill:#92E3A9"></circle><path d="M135,353.35a10.21,10.21,0,0,1-1-2.36,40.66,40.66,0,0,1-2.16-12.12,9.86,9.86,0,0,1,.12-2.55,16.43,16.43,0,0,1,.25,2.53c.12,1.57.35,3.72.76,6.07s1,4.45,1.39,6A16.68,16.68,0,0,1,135,353.35Z" style="fill:#ffbf9d"></path><circle cx="134.95" cy="351.2" r="2.45" style="fill:#92E3A9"></circle><circle cx="134.95" cy="351.2" r="2.45" style="fill:#fff;opacity:0.6000000000000001"></circle><circle cx="134.95" cy="351.2" r="1.08" style="fill:#92E3A9"></circle><path d="M131,364.83a10.81,10.81,0,0,1-1-2.36,40.4,40.4,0,0,1-2.17-12.12,10.57,10.57,0,0,1,.12-2.56,15.23,15.23,0,0,1,.25,2.54c.12,1.56.35,3.72.77,6.07s.95,4.45,1.38,6A15.24,15.24,0,0,1,131,364.83Z" style="fill:#ffbf9d"></path><circle cx="131.02" cy="362.68" r="2.45" style="fill:#92E3A9"></circle><circle cx="131.02" cy="362.68" r="2.45" style="fill:#fff;opacity:0.6000000000000001"></circle><circle cx="131.02" cy="362.68" r="1.08" style="fill:#92E3A9"></circle><path d="M120.55,358.24a16.54,16.54,0,0,1,.65-2.46c.43-1.51,1-3.61,1.38-6s.64-4.51.77-6.07a17.48,17.48,0,0,1,.24-2.54,10,10,0,0,1,.12,2.56,38.42,38.42,0,0,1-.62,6.14,39.52,39.52,0,0,1-1.54,6A10,10,0,0,1,120.55,358.24Z" style="fill:#ffbf9d"></path><path d="M146.06,336c-3.09-1.78-9.91-5.19-11.88-9l-10.25-2.79c-3.09,1.61-8.45,8.59-15.42,9.89a1.3,1.3,0,0,0-.94.85c-.28.82.72,1.48,1.56,1.69a11.19,11.19,0,0,0,8-.93c-2.53,4.29-2.26,9.61-1.91,14.58a1.24,1.24,0,0,0,.23.76c.39.43,1.11.12,1.58-.23a16.58,16.58,0,0,0,6-9.31,23,23,0,0,0,3.4,12.06c.15.26.37.53.66.53a.88.88,0,0,0,.62-.42A20.69,20.69,0,0,0,132,340.19a24.19,24.19,0,0,0,11.31,7.11,16.47,16.47,0,0,0-4.7-10.28A33.93,33.93,0,0,0,146.06,336Z" style="fill:#92E3A9"></path><path d="M111.91,354.75a1.33,1.33,0,1,1-1.32-1.32A1.33,1.33,0,0,1,111.91,354.75Z" style="fill:#92E3A9"></path><path d="M111.91,354.75a1.33,1.33,0,1,1-1.32-1.32A1.33,1.33,0,0,1,111.91,354.75Z" style="fill:#fff;opacity:0.6000000000000001"></path><path d="M111.17,354.75a.59.59,0,1,1-1.17,0,.59.59,0,0,1,1.17,0Z" style="fill:#92E3A9"></path><circle cx="148.03" cy="342.87" r="1.33" style="fill:#92E3A9"></circle><circle cx="148.03" cy="342.87" r="1.33" style="fill:#fff;opacity:0.6000000000000001"></circle><circle cx="148.03" cy="342.87" r="0.59" style="fill:#92E3A9"></circle><circle cx="116.24" cy="321.84" r="1.33" style="fill:#92E3A9"></circle><circle cx="116.24" cy="321.84" r="1.33" style="fill:#fff;opacity:0.6000000000000001"></circle><circle cx="116.24" cy="321.84" r="0.59" style="fill:#92E3A9"></circle><path d="M125.54,219.13V328.55a1.25,1.25,0,0,0,2.5,0V219.13a1.25,1.25,0,0,0-2.5,0Z" style="fill:#455a64"></path><path d="M125.72,314.23c-1.9.86-2.88,3-3.35,5s-.6,4.18-1.52,6.06c-1.3,2.61-4.51,5.2-7,6.71,4,1.3,9,0,10.83-3.88-.32,4.54.55,6.63,3.33,10.23,1.66-2.36,2.61-5.87,1.95-10.32,1.84,3.79,6.39,5.2,10.58,4.74-4.8-3.73-8.45-8.14-9.82-14.06a9.75,9.75,0,0,0-1.06-3.16,2.66,2.66,0,0,0-2.85-1.28" style="fill:#455a64"></path><path d="M123,358.54a2.45,2.45,0,1,1-2.45-2.45A2.45,2.45,0,0,1,123,358.54Z" style="fill:#92E3A9"></path><path d="M123,358.54a2.45,2.45,0,1,1-2.45-2.45A2.45,2.45,0,0,1,123,358.54Z" style="fill:#fff;opacity:0.6000000000000001"></path><circle cx="120.55" cy="358.54" r="1.08" style="fill:#92E3A9"></circle><path d="M209.92,232.78V153.3a1.25,1.25,0,0,0-2.5,0v79.48a1.25,1.25,0,0,0,2.5,0Z" style="fill:#455a64"></path><path d="M217,273.18a10.89,10.89,0,0,1-1.06-2.52,44.16,44.16,0,0,1-2.31-13,11.7,11.7,0,0,1,.11-2.73,17.8,17.8,0,0,1,.26,2.71,63.7,63.7,0,0,0,.81,6.5c.45,2.51,1,4.76,1.48,6.37A20.06,20.06,0,0,1,217,273.18Z" style="fill:#ffbf9d"></path><path d="M214.36,270.89a2.62,2.62,0,1,0,2.62-2.62A2.61,2.61,0,0,0,214.36,270.89Z" style="fill:#92E3A9"></path><path d="M214.36,270.89a2.62,2.62,0,1,0,2.62-2.62A2.61,2.61,0,0,0,214.36,270.89Z" style="fill:#fff;opacity:0.6000000000000001"></path><circle cx="216.98" cy="270.89" r="1.16" style="fill:#92E3A9"></circle><path d="M212.78,285.46a11.44,11.44,0,0,1-1.06-2.52,44.31,44.31,0,0,1-2.31-13,11.7,11.7,0,0,1,.11-2.73,17.85,17.85,0,0,1,.26,2.72,63.56,63.56,0,0,0,.81,6.49c.45,2.52,1,4.76,1.48,6.38A19.6,19.6,0,0,1,212.78,285.46Z" style="fill:#ffbf9d"></path><circle cx="212.78" cy="283.16" r="2.62" style="fill:#92E3A9"></circle><circle cx="212.78" cy="283.16" r="2.62" style="fill:#fff;opacity:0.6000000000000001"></circle><circle cx="212.78" cy="283.16" r="1.16" style="fill:#92E3A9"></circle><path d="M201.58,278.42a17.16,17.16,0,0,1,.7-2.64c.46-1.61,1-3.85,1.48-6.37s.69-4.82.82-6.49a18.87,18.87,0,0,1,.25-2.72,11.29,11.29,0,0,1,.12,2.73,44.8,44.8,0,0,1-.67,6.57,44.32,44.32,0,0,1-1.65,6.39A11.74,11.74,0,0,1,201.58,278.42Z" style="fill:#ffbf9d"></path><path d="M228.85,254.62c-3.3-1.9-10.59-5.56-12.7-9.59l-11-3c-3.31,1.73-9,9.18-16.5,10.58a1.42,1.42,0,0,0-1,.9c-.29.88.77,1.59,1.67,1.82a12.05,12.05,0,0,0,8.52-1c-2.71,4.58-2.41,10.27-2,15.58a1.26,1.26,0,0,0,.25.81c.42.47,1.18.14,1.68-.24a17.74,17.74,0,0,0,6.46-10,24.71,24.71,0,0,0,3.63,12.91c.17.27.39.56.71.56s.49-.24.66-.45a22.08,22.08,0,0,0,4.61-14.46,25.87,25.87,0,0,0,12.1,7.6,17.62,17.62,0,0,0-5-11A36,36,0,0,0,228.85,254.62Z" style="fill:#92E3A9"></path><path d="M207.11,231.35c-2,.91-3.09,3.19-3.59,5.37s-.64,4.47-1.63,6.47c-1.38,2.79-4.82,5.57-7.49,7.18,4.33,1.4,9.66,0,11.58-4.15-.34,4.86.59,7.09,3.56,11,1.78-2.53,2.8-6.28,2.08-11.05,2,4.06,6.84,5.56,11.32,5.08-5.13-4-9-8.71-10.5-15a10.08,10.08,0,0,0-1.14-3.38,2.84,2.84,0,0,0-3-1.37" style="fill:#455a64"></path><path d="M204.19,278.74a2.62,2.62,0,1,1-2.61-2.62A2.61,2.61,0,0,1,204.19,278.74Z" style="fill:#92E3A9"></path><path d="M204.19,278.74a2.62,2.62,0,1,1-2.61-2.62A2.61,2.61,0,0,1,204.19,278.74Z" style="fill:#fff;opacity:0.6000000000000001"></path><circle cx="201.58" cy="278.74" r="1.16" style="fill:#92E3A9"></circle><path d="M441.4,151.17A36.11,36.11,0,0,0,432,139.66a23,23,0,0,0,5.52,1.18c6.92.61,13.78-1.36,20.45-3.31a55.06,55.06,0,0,0-14.8-15.8,18,18,0,0,0,4.77-3.12c3.94-3.59,6.39-8.48,8.76-13.26a42.14,42.14,0,0,0-17.85.41c-.27.06-.53.14-.79.21a16.54,16.54,0,0,0,1.6-2.5c2.35-4.47,2.95-9.62,3.52-14.64a40.31,40.31,0,0,0-9.45,2.74c3.2-3.81,5.16-8.54,7-13.17a42.86,42.86,0,0,0-16.29,1.25,19.24,19.24,0,0,0,2.16-3.19c2.76-5.14,3.51-11.08,4.22-16.87a46.11,46.11,0,0,0-18.28,6.9,20.06,20.06,0,0,0-5.24,4.63,44.61,44.61,0,0,0-4.54-10.34,35.93,35.93,0,0,0-7.22,10c-.79-4.36-2.63-8.53-4.47-12.6a43.57,43.57,0,0,0-10.68,13.23,52.8,52.8,0,0,0,.5-8.54,33.75,33.75,0,0,0-11.69,5.85,47.81,47.81,0,0,0,4.53-9.52,35.92,35.92,0,0,0-13.45,1.2,58.88,58.88,0,0,0,.39-8.51A35.93,35.93,0,0,0,348,58.31a15.72,15.72,0,0,0,.22-3.05c-.15-4.55-2-8.85-3.74-13A35.84,35.84,0,0,0,334.83,54c-.22.43-.43.88-.62,1.33a81.6,81.6,0,0,0-.55-8.7,42.68,42.68,0,0,0-6.31,3.06c1-2.08,1.9-4.29,2.73-6.46A35.83,35.83,0,0,0,315,45l-.73.27c1.75-4,2.51-8.46,3.22-12.82a42.65,42.65,0,0,0-17.19,5.7c-.31.18-.61.37-.9.56-.05-4.85-1.56-9.62-3.07-14.26a42.65,42.65,0,0,0-12.67,13c-.24.38-.47.77-.69,1.16-2.05-4.87-5.75-8.86-9.38-12.71A42.9,42.9,0,0,0,268,40.42c-.24-.32-.48-.63-.74-.93-3-3.41-7.14-5.58-11.18-7.67a36.14,36.14,0,0,0-.71,9.62c-1.08-1.64-2.27-3.22-3.46-4.78a36,36,0,0,0-6.16,12.7,57.65,57.65,0,0,0-10.11-7.12,42.79,42.79,0,0,0-1.24,6.26A35.88,35.88,0,0,0,225,57.28q-.43.59-.84,1.2a83.62,83.62,0,0,0,.92-8.66,42.49,42.49,0,0,0-14.16,5.67c-.55-2.19-1.24-4.35-1.94-6.49a42.89,42.89,0,0,0-12.29,12.38l0-.25c.31-5.4-1.38-10.69-3-15.83A42.76,42.76,0,0,0,181,58.24q-.36.57-.69,1.17c-2.05-4.88-5.75-8.86-9.38-12.72A42.89,42.89,0,0,0,165,63.81c-.05.48-.1,1-.13,1.46l-.26-.22c-3.53-2.86-8-4.31-12.3-5.69a35.94,35.94,0,0,0,2,13.33c-3.52-2-7.6-3-11.6-3.89a36.15,36.15,0,0,0,3.6,14c-4.25-1.06-8.77-1.08-13.19-1.06a42.73,42.73,0,0,0,6.66,13.68,87.64,87.64,0,0,0-9.59-.34,46,46,0,0,0,7.37,15,62.51,62.51,0,0,0-7.48-2.76,35.88,35.88,0,0,0,.29,6.13,44.75,44.75,0,0,0-7.53-8.35,35.84,35.84,0,0,0-3.38,9.58c-.16-.21-.33-.42-.51-.62-3-3.44-7.08-5.65-11.1-7.77a36,36,0,0,0-.07,15.23c.55,2.54,1.45,5.16,3.4,6.88a6.26,6.26,0,0,0,2.58,1.34,93.49,93.49,0,0,0-5.68,8.4c-.31-.44-.64-.87-1-1.28-3-3.44-7.08-5.64-11.1-7.77a36,36,0,0,0-.07,15.23c0,.1.05.2.07.3a15.48,15.48,0,0,0-2.35-.88c-4.37-1.22-9-.79-13.55-.34a36,36,0,0,0,8.36,12.73l0,0a15,15,0,0,0-1.91.4c-4.38,1.23-8.12,4-11.75,6.75a35.83,35.83,0,0,0,13.76,6.53,16.82,16.82,0,0,0,4.4.52c-.36.95-.73,1.91-1.08,2.86-3.88-1.9-8.28-2.46-12.58-3a35.7,35.7,0,0,0,5,13.6c-4.26-1.24-8.81-.95-13.24-.64a36,36,0,0,0,8,13,14.61,14.61,0,0,0,4.86,3.57c-.11.47-.21.95-.31,1.42a53.87,53.87,0,0,0-9.33.1,36,36,0,0,0,6.32,11.07c-.34-.13-.67-.25-1-.36-4.34-1.35-9-1-13.54-.72a35.92,35.92,0,0,0,6.16,10.87c-1.76-.16-3.54-.23-5.3-.29a36.18,36.18,0,0,0,5.15,11.72,16.08,16.08,0,0,0-3.21,1c-4.18,1.79-7.52,5-10.77,8.23a36.06,36.06,0,0,0,13.59,4.57q-.06.48-.09,1a13.51,13.51,0,0,0-7.72,7.63c-1.77,4.18-1.93,8.85-2.06,13.39a35.9,35.9,0,0,0,12.11-5.49,15.34,15.34,0,0,0-.49,5c.3,4.53,2.26,8.77,4.19,12.89a36,36,0,0,0,9.22-12.12c.12-.26.24-.52.35-.79l.79,1.29c-3.2,4.25-3.3,10.41-1.39,15.46,2.07,5.44,6,9.9,10,14.22a45.94,45.94,0,0,0,6.76-18.29,27.32,27.32,0,0,0,.27-3.14,15.33,15.33,0,0,0,2.31,5.28c2.58,3.74,6.44,6.38,10.2,8.93a36,36,0,0,0,1.85-13.26c3.46,2.08,7.49,3.11,11.43,4.1A35.93,35.93,0,0,0,126.82,271a46.48,46.48,0,0,0,10.32,3.49,36,36,0,0,0-1.57-9.67,55.83,55.83,0,0,0,6.75,6.08,35.91,35.91,0,0,0,2.93-14.95,14.62,14.62,0,0,0-1.16-5.95c2.24-1.48,1.39-6.32.5-11.83a62.2,62.2,0,0,0,8.07,2.24A36,36,0,0,0,150.6,230a6.6,6.6,0,0,0,2.58-.16,7.16,7.16,0,0,0,3.87-2.81,15.16,15.16,0,0,0,.58,1.64c1.77,4.19,5,7.55,8.18,10.81A36.09,36.09,0,0,0,170.56,225a16.54,16.54,0,0,0-.14-5c.22-.12.44-.24.65-.37a14.38,14.38,0,0,0,4.41,7.55c3.35,3.07,7.7,4.78,11.94,6.42A36.06,36.06,0,0,0,185.85,219a15.29,15.29,0,0,0,3.91,2.73c4.1,2,8.75,2.36,13.28,2.72a35.91,35.91,0,0,0-5.73-13.62c.44,0,.87-.08,1.3-.14,4.49-.71,8.53-3,12.46-5.32a36.49,36.49,0,0,0-6.16-4.84,45.6,45.6,0,0,0,10.8,1.88,36,36,0,0,0-5.06-12.92c.55-.47,1.11-.95,1.65-1.43a15,15,0,0,0,2.08,6.21c2.34,3.9,6,6.77,9.61,9.55a35.81,35.81,0,0,0,2.66-15c0-.15,0-.31,0-.47.34.25.7.49,1.06.71,3.89,2.36,8.49,3.18,13,4a35.16,35.16,0,0,0-1.38-7c3.85,2.27,8.36,3.08,12.76,3.85a36,36,0,0,0-4.64-14.51,19.47,19.47,0,0,0-1.88-2.73l2.07-6.13a40.91,40.91,0,0,0,7.09,7.45,34.73,34.73,0,0,0,3.09-7.35c.44,2.09,1,4.17,1.65,6.22a35.9,35.9,0,0,0,6.72-5.44,60,60,0,0,0,5.43,11.21A43.79,43.79,0,0,0,281.51,163a27,27,0,0,0,.86-2.82,16.25,16.25,0,0,0,1.47,2.69c2.58,3.74,6.43,6.38,10.19,8.93a35.8,35.8,0,0,0,1.73-15.13,16.78,16.78,0,0,0-1.05-4.66,7.9,7.9,0,0,0,.52-2,15.42,15.42,0,0,0,1.29,2.27c2.57,3.74,6.43,6.38,10.19,8.93a35.79,35.79,0,0,0,1.72-15.13,17.33,17.33,0,0,0-.82-4.05l.15.24c2.58,3.74,6.43,6.38,10.19,8.93a36,36,0,0,0,1.89-12.44l.27-.17a19.2,19.2,0,0,0-.09,5.56c.73,5.69,3.53,10.88,6.27,15.91a45.36,45.36,0,0,0,10.68-16c.15-.4.3-.79.44-1.2a80.57,80.57,0,0,0,4.43,9.05,45.23,45.23,0,0,0,8.36-11c-.08,2.18,0,4.38.07,6.55a38.94,38.94,0,0,0,9.86-4.73,18.05,18.05,0,0,0-1.83,2.7c-2.69,4.82-3.48,10.44-4.23,15.92A43.73,43.73,0,0,0,371.48,155a26.83,26.83,0,0,0,2.41-1.7,15.69,15.69,0,0,0-.48,3c-.24,4.54,1.19,9,2.61,13.3a36,36,0,0,0,10.62-10.93,15.21,15.21,0,0,0,2.22-5.28l1.15.23c-3.06,3.57-4,8.86-3.26,13.61.93,5.71,3.93,10.85,6.87,15.84a45.75,45.75,0,0,0,10.23-16.49,19,19,0,0,0,1.32-7.3,22.79,22.79,0,0,0,7,8.44c5.59,4.12,12.47,6,19.18,7.82a55,55,0,0,0-5.06-22.72c-.16-.35-.33-.69-.5-1a16.84,16.84,0,0,0,2.07.5C432.38,153.06,437,152.11,441.4,151.17Z" style="fill:#455a64"></path><path d="M120,194.29c1.64-3,.21-7.95-2.12-10.45a12.81,12.81,0,0,0-9.24-3.68,28.84,28.84,0,0,0-10,2,2.3,2.3,0,0,0-1.18.73,2.21,2.21,0,0,0,.17,2.13A18,18,0,0,0,120,194.29" style="fill:#92E3A9"></path><path d="M130.75,172.6c-.35-1.16-.81-2.46-1.92-3-1.32-.6-2.83.25-4,1.11a46,46,0,0,0-5.21,4.55,10.77,10.77,0,0,0-3,4.66c-.6,2.41.34,4.94,1.6,7.08s2.85,4.11,3.75,6.42l2.09-1.64c3.22-2.37,6.64-5,7.76-8.87C132.77,179.57,131.76,176,130.75,172.6Z" style="fill:#92E3A9"></path><path d="M104.89,206.49c-.17,1.21-.28,2.58.52,3.5,1,1.09,2.67.94,4.09.63a45.1,45.1,0,0,0,6.63-2,10.64,10.64,0,0,0,4.68-3c1.55-1.94,1.74-4.63,1.48-7.1s-.9-4.92-.76-7.4l-2.58.63c-3.92.83-8.13,1.83-10.73,4.87C105.93,199.31,105.36,203,104.89,206.49Z" style="fill:#92E3A9"></path><path d="M129.8,211.36c1,.61,2.27,1.25,3.43.86,1.37-.47,1.89-2.12,2.15-3.55a46.62,46.62,0,0,0,.69-6.88,10.73,10.73,0,0,0-1-5.47c-1.21-2.17-3.63-3.37-6-4.07s-4.89-1.05-7.13-2.12l-.41,2.63c-.72,3.93-1.4,8.21.41,11.77C123.56,207.67,126.76,209.6,129.8,211.36Z" style="fill:#92E3A9"></path><path d="M140.19,183.12a10.51,10.51,0,0,0-8.51.41c-2.6,1.42-9.22,6.33-9.2,9.59h0c.93,1.37,8.1,2.67,9.62,2.87a16.24,16.24,0,0,0,15.59-7.87A21.51,21.51,0,0,0,140.19,183.12Z" style="fill:#92E3A9"></path><path d="M122.14,205.07a5.31,5.31,0,0,1-.72-1.82,17.41,17.41,0,0,1-.59-4.68,17.22,17.22,0,0,1,.71-4.68,5.28,5.28,0,0,1,.76-1.8,36,36,0,0,0-1,6.48A35.71,35.71,0,0,0,122.14,205.07Z" style="fill:#263238"></path><path d="M135.26,197a18.47,18.47,0,0,1-1.43-1.41,14.28,14.28,0,0,0-8.57-3.85,16.54,16.54,0,0,1-2-.14,5.38,5.38,0,0,1,2-.23,12.52,12.52,0,0,1,8.81,4A5.12,5.12,0,0,1,135.26,197Z" style="fill:#263238"></path><path d="M134.38,182.56a15.81,15.81,0,0,1-1.89.82,22.05,22.05,0,0,0-4.23,2.52,19.77,19.77,0,0,0-3.54,3.41c-.79,1-1.15,1.7-1.22,1.66a4.76,4.76,0,0,1,.92-1.88,16.07,16.07,0,0,1,3.52-3.6,17.1,17.1,0,0,1,4.41-2.45A5.52,5.52,0,0,1,134.38,182.56Z" style="fill:#263238"></path><path d="M121.25,190.81c-.16,0-.71-2.19-2.15-4.58s-3.09-4-3-4.08a10.61,10.61,0,0,1,3.43,3.82A10.48,10.48,0,0,1,121.25,190.81Z" style="fill:#263238"></path><path d="M121.49,191.91c0,.09-.74-.17-1.93-.23a11.31,11.31,0,0,0-4.53.78,26.47,26.47,0,0,0-4.17,2.14,7.42,7.42,0,0,1-1.72.93,6.88,6.88,0,0,1,1.52-1.24,19.59,19.59,0,0,1,4.18-2.32,10,10,0,0,1,4.75-.65A3.92,3.92,0,0,1,121.49,191.91Z" style="fill:#263238"></path><path d="M122.18,191.31c.09.13-2.19,1.78-4.58,4.27s-4,4.8-4.11,4.72a23.64,23.64,0,0,1,8.69-9Z" style="fill:#263238"></path><path d="M129.37,200.32a26.32,26.32,0,0,1-3.18-4.11,27,27,0,0,1-2.75-4.4,26.32,26.32,0,0,1,3.18,4.11A25.8,25.8,0,0,1,129.37,200.32Z" style="fill:#263238"></path><path d="M133.59,187.47c0,.16-2,.63-4.35,1.64s-4.1,2.16-4.19,2a15.17,15.17,0,0,1,8.54-3.68Z" style="fill:#263238"></path><path d="M122.44,180.79a17.16,17.16,0,0,1,.54,5,17.75,17.75,0,0,1-.41,5,40.88,40.88,0,0,1-.11-5A43.74,43.74,0,0,1,122.44,180.79Z" style="fill:#263238"></path><path d="M122,190.94a8,8,0,0,0-3-2.88c-.36-.21-.86-.37-1.17-.08s-.17.81,0,1.19a6.34,6.34,0,0,0,2.76,2.64,7.29,7.29,0,0,0-3.27,1.52c-.4.34-.8.89-.54,1.34s1,.35,1.53.12a11.65,11.65,0,0,0,3.07-2,7.35,7.35,0,0,0-.14,3.81c.11.5.41,1.08.92,1.06s.73-.58.84-1a10.86,10.86,0,0,0,.25-3.41,9.06,9.06,0,0,0,1.74,1.65,3.11,3.11,0,0,0,2.28.55c.52-.1,1.06-.48,1-1a1.47,1.47,0,0,0-.54-.93,13.15,13.15,0,0,0-2.39-1.87,5.92,5.92,0,0,0,2.72-1.81c.27-.32.52-.77.31-1.13s-.8-.39-1.25-.27a7.83,7.83,0,0,0-3,1.53,6.72,6.72,0,0,0,1.12-3.89.9.9,0,0,0-.3-.76c-.38-.23-.84.15-1.08.53a7.14,7.14,0,0,0-1.19,3.69,4.73,4.73,0,0,0-.71-3.6c-.25-.37-.7-.74-1.11-.56s-.43.75-.37,1.19a19,19,0,0,0,1.06,4.13" style="fill:#fff"></path><path d="M129.62,178.78a2.84,2.84,0,1,1-3.45-2.07A2.84,2.84,0,0,1,129.62,178.78Z" style="fill:#92E3A9"></path><path d="M129.62,178.78a2.84,2.84,0,1,1-3.45-2.07A2.84,2.84,0,0,1,129.62,178.78Z" style="fill:#fff;opacity:0.6000000000000001"></path><path d="M128.08,179.17a1.26,1.26,0,1,1-2.44.6,1.27,1.27,0,0,1,.92-1.52A1.25,1.25,0,0,1,128.08,179.17Z" style="fill:#92E3A9"></path><path d="M100.76,197.23a1.43,1.43,0,1,1-1.74-1A1.43,1.43,0,0,1,100.76,197.23Z" style="fill:#92E3A9"></path><path d="M100.76,197.23a1.43,1.43,0,1,1-1.74-1A1.43,1.43,0,0,1,100.76,197.23Z" style="fill:#fff;opacity:0.6000000000000001"></path><path d="M100,197.43a.64.64,0,0,1-.46.76.63.63,0,1,1-.31-1.23A.65.65,0,0,1,100,197.43Z" style="fill:#92E3A9"></path><path d="M124.4,213.9a2,2,0,1,1-3.86,1,2,2,0,0,1,3.86-1Z" style="fill:#92E3A9"></path><path d="M124.4,213.9a2,2,0,1,1-3.86,1,2,2,0,0,1,3.86-1Z" style="fill:#fff;opacity:0.6000000000000001"></path><path d="M123.33,214.17a.88.88,0,1,1-1.07-.64A.88.88,0,0,1,123.33,214.17Z" style="fill:#92E3A9"></path><path d="M261.63,91.29c2.53-1.74,3.37-6.32,2.5-9.26a11.56,11.56,0,0,0-6-6.7A26.12,26.12,0,0,0,249.32,73a2,2,0,0,0-1.24.12,2,2,0,0,0-.72,1.78,16.22,16.22,0,0,0,14.27,16.44" style="fill:#92E3A9"></path><path d="M279,78.16c.19-1.08.35-2.31-.34-3.16-.83-1-2.38-1-3.67-.72a40.8,40.8,0,0,0-6,1.57,9.67,9.67,0,0,0-4.32,2.52c-1.45,1.7-1.71,4.12-1.56,6.35s.64,4.45.43,6.68l2.34-.47c3.56-.62,7.38-1.38,9.83-4C277.86,84.58,278.49,81.28,279,78.16Z" style="fill:#92E3A9"></path><path d="M244.55,95a4,4,0,0,0-1,3c.33,1.26,1.77,1.84,3,2.16a40,40,0,0,0,6.14,1.07,9.6,9.6,0,0,0,5-.51c2-1,3.27-3,4.06-5.13a41.35,41.35,0,0,1,2.37-6.26l-2.34-.54c-3.49-.91-7.28-1.8-10.6-.4C248.28,89.67,246.34,92.42,244.55,95Z" style="fill:#92E3A9"></path><path d="M262.65,109c.6.92,1.33,1.92,2.42,2.07,1.29.18,2.37-.93,3.16-2a40.59,40.59,0,0,0,3.32-5.27A9.65,9.65,0,0,0,273,99c-.1-2.24-1.57-4.18-3.2-5.71s-3.52-2.81-4.88-4.58l-1.39,2c-2.17,2.88-4.44,6-4.42,9.65C259.11,103.5,260.91,106.35,262.65,109Z" style="fill:#92E3A9"></path><path d="M282.4,90.44a9.42,9.42,0,0,0-7-3.1c-2.67.1-10,1.39-11.27,4h0c.19,1.48,5.44,5.42,6.59,6.19a14.64,14.64,0,0,0,15.73-.05A19.31,19.31,0,0,0,282.4,90.44Z" style="fill:#92E3A9"></path><path d="M259,100.84a14.06,14.06,0,0,1,5.36-10.39A36.47,36.47,0,0,0,261,95.3,36.12,36.12,0,0,0,259,100.84Z" style="fill:#263238"></path><path d="M272.84,99.63a17.14,17.14,0,0,0-2.73-5.43,17.22,17.22,0,0,0-4.76-3.75,4.21,4.21,0,0,1,1.73.61,11.21,11.21,0,0,1,5.51,6.75A4.31,4.31,0,0,1,272.84,99.63Z" style="fill:#263238"></path><path d="M278,87.65a12.15,12.15,0,0,1-1.86-.09,20,20,0,0,0-4.42.34,17.32,17.32,0,0,0-4.22,1.31,18.14,18.14,0,0,1-1.66.82,4.13,4.13,0,0,1,1.49-1.15,14.18,14.18,0,0,1,4.3-1.5,15.35,15.35,0,0,1,4.54-.18A4.69,4.69,0,0,1,278,87.65Z" style="fill:#263238"></path><path d="M264.05,89c-.16,0,.28-2,.09-4.55S263.25,80,263.4,80a9,9,0,0,1,1.26,4.45A9.18,9.18,0,0,1,264.05,89Z" style="fill:#263238"></path><path d="M263.79,90c-.06.06-.53-.42-1.47-1a10.38,10.38,0,0,0-3.95-1.18,25.06,25.06,0,0,0-4.21,0,6.12,6.12,0,0,1-1.77,0,5.69,5.69,0,0,1,1.73-.41,17.24,17.24,0,0,1,4.3-.18,9,9,0,0,1,4.1,1.39C263.45,89.35,263.84,90,263.79,90Z" style="fill:#263238"></path><path d="M264.59,89.77c0,.16-2.47.58-5.39,1.62s-5.15,2.26-5.22,2.12a15.89,15.89,0,0,1,5-2.61A15.66,15.66,0,0,1,264.59,89.77Z" style="fill:#263238"></path><path d="M266.75,99.93a22,22,0,0,1-.93-4.58,21.28,21.28,0,0,1-.41-4.66,21.22,21.22,0,0,1,.93,4.58A20.53,20.53,0,0,1,266.75,99.93Z" style="fill:#263238"></path><path d="M275.33,91.28c0,.15-1.87-.28-4.17-.4S267,91,267,90.8a9.54,9.54,0,0,1,4.22-.44A9.8,9.8,0,0,1,275.33,91.28Z" style="fill:#263238"></path><path d="M269.05,81.41a14.61,14.61,0,0,1-1.56,4.26,14.73,14.73,0,0,1-2.38,3.86A30.36,30.36,0,0,1,267,85.44,30.41,30.41,0,0,1,269.05,81.41Z" style="fill:#263238"></path><path d="M264.62,89.41a7.41,7.41,0,0,0-1.23-3.52c-.21-.31-.55-.64-.92-.53s-.46.59-.44,1a5.65,5.65,0,0,0,1.16,3.24,6.62,6.62,0,0,0-3.25-.09c-.46.11-1,.39-1,.87s.67.69,1.17.71a10.53,10.53,0,0,0,3.3-.41,6.67,6.67,0,0,0-1.65,3c-.11.45-.1,1,.32,1.22s.82-.16,1.09-.49a9.5,9.5,0,0,0,1.58-2.65,8.1,8.1,0,0,0,.74,2,2.82,2.82,0,0,0,1.61,1.37,1.07,1.07,0,0,0,1.25-.4,1.31,1.31,0,0,0-.06-1,11.32,11.32,0,0,0-1.17-2.46,5.4,5.4,0,0,0,2.92-.36c.35-.15.73-.41.71-.79s-.49-.63-.9-.72a7,7,0,0,0-3.06,0,6,6,0,0,0,2.47-2.68.8.8,0,0,0,.07-.73c-.21-.34-.74-.22-1.09,0a6.44,6.44,0,0,0-2.44,2.5,4.31,4.31,0,0,0,.88-3.19c-.06-.4-.27-.88-.67-.89s-.65.43-.78.81a17.06,17.06,0,0,0-.81,3.75" style="fill:#fff"></path><path d="M275.64,82.68a2.56,2.56,0,1,1-5-1.11,2.56,2.56,0,0,1,5,1.11Z" style="fill:#92E3A9"></path><path d="M275.64,82.68a2.56,2.56,0,1,1-5-1.11,2.56,2.56,0,0,1,5,1.11Z" style="fill:#fff;opacity:0.6000000000000001"></path><path d="M274.24,82.37a1.13,1.13,0,1,1-2.21-.49,1.13,1.13,0,0,1,2.21.49Z" style="fill:#92E3A9"></path><path d="M245,85.91a1.29,1.29,0,1,1-1-1.54A1.29,1.29,0,0,1,245,85.91Z" style="fill:#92E3A9"></path><path d="M245,85.91a1.29,1.29,0,1,1-1-1.54A1.29,1.29,0,0,1,245,85.91Z" style="fill:#fff;opacity:0.6000000000000001"></path><path d="M244.26,85.76a.57.57,0,1,1-.44-.68A.58.58,0,0,1,244.26,85.76Z" style="fill:#92E3A9"></path><path d="M257.28,108.87a1.79,1.79,0,1,1-1.36-2.14A1.78,1.78,0,0,1,257.28,108.87Z" style="fill:#92E3A9"></path><path d="M257.28,108.87a1.79,1.79,0,1,1-1.36-2.14A1.78,1.78,0,0,1,257.28,108.87Z" style="fill:#fff;opacity:0.6000000000000001"></path><path d="M256.31,108.65a.79.79,0,1,1-.6-1A.81.81,0,0,1,256.31,108.65Z" style="fill:#92E3A9"></path><path d="M372.94,63.85c2.75-1.36,4.24-5.77,3.8-8.81a11.56,11.56,0,0,0-4.93-7.48,25.86,25.86,0,0,0-8.42-3.62,2,2,0,0,0-1.24-.07c-.63.24-.87,1-1,1.67a16.23,16.23,0,0,0,11.77,18.31" style="fill:#92E3A9"></path><path d="M392,53.36a3.91,3.91,0,0,0,.11-3.19c-.66-1.12-2.21-1.27-3.52-1.23a40.16,40.16,0,0,0-6.19.69,9.56,9.56,0,0,0-4.64,1.87c-1.68,1.48-2.29,3.83-2.46,6.06a42.48,42.48,0,0,1-.53,6.68l2.39-.14c3.6-.1,7.49-.3,10.3-2.57C390,59.54,391.06,56.36,392,53.36Z" style="fill:#92E3A9"></path><path d="M355.5,65.11A3.92,3.92,0,0,0,354.08,68c.15,1.3,1.49,2.07,2.7,2.58a40.93,40.93,0,0,0,5.92,1.93,9.56,9.56,0,0,0,5,.21c2.14-.64,3.67-2.54,4.75-4.5s1.86-4.09,3.24-5.85l-2.23-.87c-3.32-1.4-6.95-2.83-10.44-1.92C360,60.34,357.64,62.78,355.5,65.11Z" style="fill:#92E3A9"></path><path d="M371.41,81.52c.46,1,1,2.09,2.09,2.4,1.26.36,2.49-.59,3.41-1.52a39.65,39.65,0,0,0,4-4.73,9.61,9.61,0,0,0,2.1-4.54c.22-2.23-.95-4.36-2.35-6.1a42.68,42.68,0,0,1-4.18-5.24l-1.65,1.74c-2.56,2.53-5.26,5.34-5.75,8.91C368.7,75.58,370.07,78.65,371.41,81.52Z" style="fill:#92E3A9"></path><path d="M393.61,66a9.43,9.43,0,0,0-6.5-4.08c-2.65-.28-10.07,0-11.73,2.36h0c0,1.49,4.61,6.14,5.63,7.07a14.64,14.64,0,0,0,15.58,2.21A19.22,19.22,0,0,0,393.61,66Z" style="fill:#92E3A9"></path><path d="M369,72.93a11.72,11.72,0,0,1,2.36-5.5,11.82,11.82,0,0,1,4.43-4,34.93,34.93,0,0,0-4,4.32A34.86,34.86,0,0,0,369,72.93Z" style="fill:#263238"></path><path d="M382.84,73.71A17.47,17.47,0,0,0,380.91,68a17.25,17.25,0,0,0-4.17-4.4,4.25,4.25,0,0,1,1.62.86,11.16,11.16,0,0,1,4.48,7.46A4.48,4.48,0,0,1,382.84,73.71Z" style="fill:#263238"></path><path d="M389.61,62.59a13.12,13.12,0,0,1-1.83-.35,20.13,20.13,0,0,0-4.42-.31,18,18,0,0,0-4.36.69,15,15,0,0,1-1.76.58,4.12,4.12,0,0,1,1.64-.92,13.8,13.8,0,0,1,4.46-.87,15.31,15.31,0,0,1,4.52.47A4.73,4.73,0,0,1,389.61,62.59Z" style="fill:#263238"></path><path d="M375.66,61.93c-.15-.06.57-2,.74-4.49s-.24-4.52-.08-4.55a9.12,9.12,0,0,1,.6,4.59A9.13,9.13,0,0,1,375.66,61.93Z" style="fill:#263238"></path><path d="M375.27,62.87c-.07.05-.48-.5-1.32-1.15A10.16,10.16,0,0,0,370.2,60a23.39,23.39,0,0,0-4.17-.57,6.26,6.26,0,0,1-1.76-.22A5.91,5.91,0,0,1,366,59a17,17,0,0,1,4.29.43,8.91,8.91,0,0,1,3.85,2A3.47,3.47,0,0,1,375.27,62.87Z" style="fill:#263238"></path><path d="M376.09,62.78c0,.15-2.53.22-5.58.83S365.1,65.1,365,65a16,16,0,0,1,5.37-1.85A15.19,15.19,0,0,1,376.09,62.78Z" style="fill:#263238"></path><path d="M376.77,73.14a20.73,20.73,0,0,1-.26-4.67,21.87,21.87,0,0,1,.25-4.67,20.36,20.36,0,0,1,.27,4.67A21.46,21.46,0,0,1,376.77,73.14Z" style="fill:#263238"></path><path d="M386.5,65.81c-.07.14-1.82-.55-4.07-1s-4.14-.52-4.14-.68a13.19,13.19,0,0,1,8.21,1.68Z" style="fill:#263238"></path><path d="M381.7,55.14a14.91,14.91,0,0,1-2.16,4,14.52,14.52,0,0,1-2.91,3.48,31.76,31.76,0,0,1,2.48-3.78A29.33,29.33,0,0,1,381.7,55.14Z" style="fill:#263238"></path><path d="M376.16,62.42a7.24,7.24,0,0,0-.71-3.66c-.16-.34-.45-.71-.83-.66s-.54.52-.58.9a5.69,5.69,0,0,0,.69,3.38,6.57,6.57,0,0,0-3.21-.56c-.47,0-1,.24-1.08.72s.56.78,1.06.87a10.56,10.56,0,0,0,3.32.07,6.64,6.64,0,0,0-2.06,2.74c-.17.43-.25,1,.14,1.26s.83,0,1.15-.34A9.51,9.51,0,0,0,376,64.75a7.93,7.93,0,0,0,.44,2.11,2.79,2.79,0,0,0,1.4,1.59,1.06,1.06,0,0,0,1.29-.21,1.29,1.29,0,0,0,.09-1,12.13,12.13,0,0,0-.81-2.61,5.25,5.25,0,0,0,2.94.06c.37-.09.78-.3.82-.67s-.4-.7-.79-.85a7.14,7.14,0,0,0-3-.43,6,6,0,0,0,2.83-2.29.8.8,0,0,0,.17-.71c-.16-.37-.7-.33-1.07-.18a6.54,6.54,0,0,0-2.78,2.12,4.34,4.34,0,0,0,1.33-3c0-.4-.14-.9-.53-1s-.71.34-.89.7A16,16,0,0,0,376.06,62" style="fill:#fff"></path><path d="M388,57.34a2.56,2.56,0,1,1-1.48-3.3A2.56,2.56,0,0,1,388,57.34Z" style="fill:#92E3A9"></path><path d="M388,57.34a2.56,2.56,0,1,1-1.48-3.3A2.56,2.56,0,0,1,388,57.34Z" style="fill:#fff;opacity:0.6000000000000001"></path><path d="M386.7,56.84a1.13,1.13,0,1,1-.66-1.46A1.14,1.14,0,0,1,386.7,56.84Z" style="fill:#92E3A9"></path><path d="M357.21,56.14a1.29,1.29,0,1,1-2.41-.92,1.29,1.29,0,0,1,2.41.92Z" style="fill:#92E3A9"></path><path d="M357.21,56.14a1.29,1.29,0,1,1-2.41-.92,1.29,1.29,0,0,1,2.41.92Z" style="fill:#fff;opacity:0.6000000000000001"></path><path d="M356.54,55.88a.57.57,0,1,1-.33-.73A.57.57,0,0,1,356.54,55.88Z" style="fill:#92E3A9"></path><path d="M366.11,80.62a1.79,1.79,0,1,1-1-2.31A1.79,1.79,0,0,1,366.11,80.62Z" style="fill:#92E3A9"></path><path d="M366.11,80.62a1.79,1.79,0,1,1-1-2.31A1.79,1.79,0,0,1,366.11,80.62Z" style="fill:#fff;opacity:0.6000000000000001"></path><path d="M365.18,80.27a.79.79,0,0,1-1.48-.56.78.78,0,0,1,1-.46A.79.79,0,0,1,365.18,80.27Z" style="fill:#92E3A9"></path><path d="M166.66,99.13c.26-2.12-1.74-4.67-3.68-5.57a8.09,8.09,0,0,0-6.24,0,18,18,0,0,0-5.32,3.53,1.36,1.36,0,0,0-.51.7c-.1.45.25.88.6,1.2a11.3,11.3,0,0,0,15.15.11" style="fill:#92E3A9"></path><path d="M168,82.73a3,3,0,0,0-2-1.41c-1,0-1.75.89-2.27,1.75a31,31,0,0,0-2.16,4.26,7.44,7.44,0,0,0-.74,3.77,6.74,6.74,0,0,0,2.86,4.12,31.15,31.15,0,0,1,4.06,3.14l.92-1.59c1.45-2.36,3-4.94,2.67-7.69C171.06,86.66,169.48,84.62,168,82.73Z" style="fill:#92E3A9"></path><path d="M160.18,111.13a3,3,0,0,0,1.24,2.1c.9.45,2-.09,2.79-.65a31.51,31.51,0,0,0,3.73-3,7.47,7.47,0,0,0,2.23-3.12,6.79,6.79,0,0,0-.9-4.94,30.8,30.8,0,0,1-2.4-4.54l-1.49,1.07c-2.3,1.55-4.73,3.28-5.62,5.9C159,106.26,159.59,108.77,160.18,111.13Z" style="fill:#92E3A9"></path><path d="M177.4,107.8a3,3,0,0,0,2.41-.35c.76-.65.67-1.84.46-2.82a30.53,30.53,0,0,0-1.34-4.59,7.36,7.36,0,0,0-2-3.25,6.72,6.72,0,0,0-4.9-1.05,32.73,32.73,0,0,1-5.11.49L167.3,98c.55,2.7,1.22,5.62,3.31,7.43C172.44,107,175,107.45,177.4,107.8Z" style="fill:#92E3A9"></path><path d="M176.74,87a7.24,7.24,0,0,0-5.35,2.47c-1.29,1.58-4.26,6.44-3.41,8.52h0c1,.64,5.88-.39,6.91-.66a11.21,11.21,0,0,0,8-9.07A14.8,14.8,0,0,0,176.74,87Z" style="fill:#92E3A9"></path><path d="M170.86,105.75a10.26,10.26,0,0,1-3.26-8.35,39.59,39.59,0,0,0,1.15,4.36A40.29,40.29,0,0,0,170.86,105.75Z" style="fill:#263238"></path><path d="M177.17,97.18a15.28,15.28,0,0,0-4.5-1.12,15.93,15.93,0,0,0-4.58.77s.4-.39,1.22-.72a8.23,8.23,0,0,1,3.38-.57,8.45,8.45,0,0,1,3.33.82C176.8,96.76,177.21,97.13,177.17,97.18Z" style="fill:#263238"></path><path d="M172.87,88.16a26.42,26.42,0,0,0-3,3.77,14.4,14.4,0,0,0-1.4,3.08,8.43,8.43,0,0,1-.41,1.36,2.74,2.74,0,0,1,0-1.46,10.49,10.49,0,0,1,1.31-3.25,11.29,11.29,0,0,1,2.22-2.7C172.34,88.37,172.84,88.11,172.87,88.16Z" style="fill:#263238"></path><path d="M166.6,96.85c-.13.09-1.09-1.16-2.61-2.31s-3-1.76-2.92-1.91a8.13,8.13,0,0,1,5.53,4.22Z" style="fill:#263238"></path><path d="M167,97.49c0,.09-.52.13-1.28.41a8,8,0,0,0-2.66,1.68A19.5,19.5,0,0,0,161,102c-.52.66-.85,1.06-.91,1s.16-.51.6-1.23a13,13,0,0,1,2.07-2.59,6.84,6.84,0,0,1,2.91-1.64A2.24,2.24,0,0,1,167,97.49Z" style="fill:#263238"></path><path d="M167.32,96.93c.13.08-.86,1.74-1.75,3.95s-1.33,4.08-1.48,4.05a10.46,10.46,0,0,1,1-4.25A10.45,10.45,0,0,1,167.32,96.93Z" style="fill:#263238"></path><path d="M174.26,100.83a12,12,0,0,1-3.14-1.73,12.67,12.67,0,0,1-2.86-2.18,24.6,24.6,0,0,1,6,3.91Z" style="fill:#263238"></path><path d="M173.64,91.52a29.73,29.73,0,0,1-2.31,2.23,28,28,0,0,1-2.21,2.33,6.36,6.36,0,0,1,1.84-2.7A6.29,6.29,0,0,1,173.64,91.52Z" style="fill:#263238"></path><path d="M164.77,90.12a9.14,9.14,0,0,1,1.71,3,9,9,0,0,1,1,3.35A16.87,16.87,0,0,1,166,93.36,16.4,16.4,0,0,1,164.77,90.12Z" style="fill:#263238"></path><path d="M167.13,96.73a5.58,5.58,0,0,0-2.65-1.08c-.29,0-.65,0-.77.26s.1.56.33.75a4.33,4.33,0,0,0,2.46,1,5.06,5.06,0,0,0-1.7,1.83c-.18.32-.29.77,0,1s.74,0,1-.32a7.92,7.92,0,0,0,1.44-2.1,5.14,5.14,0,0,0,.9,2.47c.2.29.55.59.86.44s.32-.56.27-.88a7.31,7.31,0,0,0-.72-2.25,6.16,6.16,0,0,0,1.54.6,2.17,2.17,0,0,0,1.6-.23.8.8,0,0,0,.41-.92,1,1,0,0,0-.58-.46,9.51,9.51,0,0,0-2-.58,4.08,4.08,0,0,0,1.28-1.86c.09-.28.13-.63-.1-.81s-.61,0-.87.16a5.35,5.35,0,0,0-1.55,1.76A4.57,4.57,0,0,0,168,92.7a.64.64,0,0,0-.39-.41c-.3-.05-.5.32-.56.62a5,5,0,0,0,.2,2.67,3.29,3.29,0,0,0-1.39-2.12c-.26-.17-.64-.3-.85-.07s-.08.59.07.86a12.62,12.62,0,0,0,1.75,2.37" style="fill:#fff"></path><path d="M153.1,104a1,1,0,0,1,.85,1.12,1,1,0,0,1-1.12.84,1,1,0,0,1,.27-2Z" style="fill:#92E3A9"></path><path d="M153.1,104a1,1,0,0,1,.85,1.12,1,1,0,0,1-1.12.84,1,1,0,0,1,.27-2Z" style="fill:#fff;opacity:0.6000000000000001"></path><path d="M153,104.5a.43.43,0,0,1,.37.49.44.44,0,0,1-.49.38.45.45,0,0,1-.38-.5A.45.45,0,0,1,153,104.5Z" style="fill:#92E3A9"></path><path d="M184.33,97.93a1.37,1.37,0,1,1-1.55,1.17A1.38,1.38,0,0,1,184.33,97.93Z" style="fill:#92E3A9"></path><path d="M184.33,97.93a1.37,1.37,0,1,1-1.55,1.17A1.38,1.38,0,0,1,184.33,97.93Z" style="fill:#fff;opacity:0.6000000000000001"></path><path d="M184.22,98.69a.61.61,0,1,1-.17,1.2.61.61,0,0,1,.17-1.2Z" style="fill:#92E3A9"></path><path d="M153.64,113.08a2.59,2.59,0,0,1,.17.62,10.73,10.73,0,0,1,.25,1.81,19.34,19.34,0,0,1-.71,6.69,17.34,17.34,0,0,1-1.83,4.29,16.24,16.24,0,0,1-3.54,4,21.84,21.84,0,0,1-11.1,4.95l-.53.07-.25,0,0-.26a27.5,27.5,0,0,1-.1-6.27,25.61,25.61,0,0,1,1.36-5.66,20.69,20.69,0,0,1,5.45-8.13,15.91,15.91,0,0,1,5.7-3.3,5.21,5.21,0,0,1,1-.28l.75-.16a4,4,0,0,1,.61-.1,2.29,2.29,0,0,1-.59.2l-.73.21a5.46,5.46,0,0,0-1,.32,16.55,16.55,0,0,0-5.52,3.39,20.73,20.73,0,0,0-5.25,8,26.12,26.12,0,0,0-1.3,5.56,28.15,28.15,0,0,0,.11,6.14l-.28-.23.51-.07a21.51,21.51,0,0,0,10.86-4.8,15.78,15.78,0,0,0,5.33-8.06,20.15,20.15,0,0,0,.86-6.57C153.8,114,153.59,113.09,153.64,113.08Z" style="fill:#263238"></path><path d="M290.89,81.36a3.89,3.89,0,0,1,.49-.41,11,11,0,0,1,1.54-1,19,19,0,0,1,6.36-2.18,17.34,17.34,0,0,1,4.66-.16,15.88,15.88,0,0,1,5.15,1.51,21.91,21.91,0,0,1,9.18,8l.29.45.13.22-.21.14a27.85,27.85,0,0,1-5.64,2.73,25.44,25.44,0,0,1-5.71,1.17,20.71,20.71,0,0,1-9.66-1.51,15.87,15.87,0,0,1-5.41-3.77,6.4,6.4,0,0,1-.68-.78l-.45-.61a2.19,2.19,0,0,1-.35-.52,3.52,3.52,0,0,1,.43.46c.14.16.31.35.49.57a6,6,0,0,0,.71.74,16,16,0,0,0,5.4,3.57,20.53,20.53,0,0,0,9.48,1.37,25.58,25.58,0,0,0,5.59-1.17,27.75,27.75,0,0,0,5.51-2.69l-.08.35-.28-.43a21.63,21.63,0,0,0-8.94-7.82,15.85,15.85,0,0,0-9.56-1.42,20.19,20.19,0,0,0-6.31,2C291.62,80.86,290.93,81.41,290.89,81.36Z" style="fill:#263238"></path><path d="M287,75.92s-.08-.13-.18-.41a7.73,7.73,0,0,1-.34-1.25,12.53,12.53,0,0,1,.06-4.73c.54-4.09,5-8.74,11-10.16l.44-.11.24,0,.07.24a17.45,17.45,0,0,1,.51,4.38,16.41,16.41,0,0,1-.63,4,13.9,13.9,0,0,1-3.52,5.91,11.8,11.8,0,0,1-3.85,2.55,8.67,8.67,0,0,1-1.2.4c-.27.08-.42.11-.42.09s.56-.23,1.54-.67a12.31,12.31,0,0,0,3.67-2.63,13.8,13.8,0,0,0,3.32-5.78,16.07,16.07,0,0,0,.58-3.93,16.75,16.75,0,0,0-.51-4.23l.31.18-.43.1a16.6,16.6,0,0,0-7.34,3.92,10.75,10.75,0,0,0-3.41,5.82,13.3,13.3,0,0,0-.22,4.62C286.84,75.32,287.05,75.91,287,75.92Z" style="fill:#263238"></path><g style="opacity:0.2"><path d="M430.81,59.59a46.11,46.11,0,0,0-18.28,6.9l-.2.14a34,34,0,0,1,7.06-1.85c-.59,4.61-1.21,9.34-3.36,13.42a16.52,16.52,0,0,1-1.46,2.27l.7-.18a35.89,35.89,0,0,1,9.35-.89,20.38,20.38,0,0,0,2-2.94C429.35,71.32,430.1,65.38,430.81,59.59Z"></path></g><g style="opacity:0.2"><path d="M426.32,152.86c-.16-.35-.33-.69-.5-1a16.84,16.84,0,0,0,2.07.5c4.49.73,9.06-.22,13.51-1.16A36.11,36.11,0,0,0,432,139.66a23,23,0,0,0,5.52,1.18c6.92.61,13.78-1.36,20.45-3.31a55.06,55.06,0,0,0-14.8-15.8,18,18,0,0,0,4.77-3.12c3.94-3.59,6.39-8.48,8.76-13.26a42.14,42.14,0,0,0-17.85.41c-.27.06-.53.14-.79.21a16.54,16.54,0,0,0,1.6-2.5c2.35-4.47,2.95-9.62,3.52-14.64a40.31,40.31,0,0,0-9.45,2.74c3.2-3.81,5.16-8.54,7-13.17a42.9,42.9,0,0,0-15.39,1,35.6,35.6,0,0,1,5.72.78c-2.17,4.36-4.42,8.82-8,12.06a15.66,15.66,0,0,1-4.27,2.79,49.9,49.9,0,0,1,12.8,14.79c-5.92,1.69-12,3.39-18.12,2.71a20.15,20.15,0,0,1-4.86-1.17,33,33,0,0,1,8.15,10.75c-4,.79-8,1.59-12,.84a13.83,13.83,0,0,1-1.83-.5c.15.32.29.64.43,1a52.38,52.38,0,0,1,4.08,21c-5.9-1.77-11.94-3.63-16.81-7.51a20.78,20.78,0,0,1-6.07-7.89,18.06,18.06,0,0,1-1.29,6.7,42.37,42.37,0,0,1-9.32,15c-2.52-4.64-5.08-9.41-5.81-14.69-.6-4.38.36-9.24,3.12-12.48l-1-.23a14.43,14.43,0,0,1-2.06,4.83,32.58,32.58,0,0,1-9.56,9.89c-1.18-4-2.38-8.11-2.08-12.29a14.59,14.59,0,0,1,.47-2.77,24,24,0,0,1-2.15,1.52,37.59,37.59,0,0,1-15.5,5.5c.76-5,1.55-10.18,4-14.58a17.58,17.58,0,0,1,1.66-2.45,33.72,33.72,0,0,1-8.8,4.19c0-2-.05-4,.06-6a41.82,41.82,0,0,1-7.57,10,74.44,74.44,0,0,1-3.77-8.41c-.13.37-.27.74-.41,1.1a41.91,41.91,0,0,1-9.7,14.53c-2.35-4.67-4.73-9.49-5.28-14.74a18.33,18.33,0,0,1,.18-5.12l-.25.15a34.31,34.31,0,0,1-1.87,11.42c-3.28-2.41-6.64-4.9-8.86-8.39a2.53,2.53,0,0,0-.13-.22,16.85,16.85,0,0,1,.66,3.74,34.32,34.32,0,0,1-1.78,13.9c-3.28-2.41-6.64-4.9-8.86-8.39a14.05,14.05,0,0,1-1.1-2.11,7.38,7.38,0,0,1-.5,1.84,15.71,15.71,0,0,1,.86,4.32,34.32,34.32,0,0,1-1.78,13.9c-3.28-2.41-6.64-4.9-8.86-8.39a14.59,14.59,0,0,1-1.25-2.5,24.93,24.93,0,0,1-.81,2.58,40.48,40.48,0,0,1-9.06,14.21,55.8,55.8,0,0,1-4.6-10.41,31.42,31.42,0,0,1-6,4.89c-.5-1.89-1-3.81-1.35-5.75a32.57,32.57,0,0,1-2.86,6.72,36.6,36.6,0,0,1-6.13-7q-1,2.81-1.93,5.62a19,19,0,0,1,1.6,2.54,34.16,34.16,0,0,1,3.86,13.43c-3.88-.78-7.85-1.6-11.21-3.75a34.08,34.08,0,0,1,1.1,6.42c-3.94-.79-8-1.62-11.38-3.86a9.93,9.93,0,0,1-.93-.67c0,.14,0,.29,0,.44a34.27,34.27,0,0,1-2.6,13.76c-3.14-2.62-6.34-5.32-8.34-8.95a14.29,14.29,0,0,1-1.73-5.75c-.49.43-1,.86-1.49,1.29a33.75,33.75,0,0,1,4.26,12,39.15,39.15,0,0,1-9.51-1.91,31.81,31.81,0,0,1,5.36,4.55c-3.51,2-7.13,4.12-11.11,4.69a10.92,10.92,0,0,1-1.15.1,33.91,33.91,0,0,1,4.84,12.64c-4-.4-8.11-.83-11.69-2.72a13.65,13.65,0,0,1-3.41-2.57,34.46,34.46,0,0,1,1.13,13.52c-3.72-1.59-7.53-3.23-10.44-6.11a13.36,13.36,0,0,1-3.76-7l-.58.33a15.61,15.61,0,0,1,0,4.58,34.11,34.11,0,0,1-4.44,13.24c-2.75-3-5.55-6.2-7-10.08a12.83,12.83,0,0,1-.49-1.52,6.31,6.31,0,0,1-3.46,2.52,5.72,5.72,0,0,1-2.29.11,34.47,34.47,0,0,1,1.65,9.61,51.15,51.15,0,0,1-7.1-2.19c.69,5.09,1.36,9.56-.65,10.89a13.86,13.86,0,0,1,.93,5.49,34.3,34.3,0,0,1-2.85,13.71,50.11,50.11,0,0,1-5.86-5.7,34.33,34.33,0,0,1,1.22,8.92,39.66,39.66,0,0,1-9.06-3.38,34.44,34.44,0,0,1,2,11.43c-3.47-1-7-2-10-4a34.43,34.43,0,0,1-1.86,12.17c-3.29-2.41-6.65-4.9-8.86-8.38a14,14,0,0,1-2-4.9,27.27,27.27,0,0,1-.3,2.88,43.32,43.32,0,0,1-6.28,16.73c-3.38-4-6.82-8.21-8.55-13.25-1.61-4.68-1.42-10.35,1.49-14.21l-.68-1.2c-.1.24-.21.48-.32.72a33,33,0,0,1-8.36,11c-1.63-3.82-3.29-7.75-3.48-11.94a14.85,14.85,0,0,1,.52-4.54,31.15,31.15,0,0,1-10.8,4.86l-8.48-4.32c.44.61.9,1.21,1.38,1.79-1.76-.16-3.54-.23-5.3-.29a36.18,36.18,0,0,0,5.15,11.72,16.08,16.08,0,0,0-3.21,1c-4.18,1.79-7.52,5-10.77,8.23a36.06,36.06,0,0,0,13.59,4.57q-.06.48-.09,1a13.51,13.51,0,0,0-7.72,7.63c-1.77,4.18-1.93,8.85-2.06,13.39a35.9,35.9,0,0,0,12.11-5.49,15.34,15.34,0,0,0-.49,5c.3,4.53,2.26,8.77,4.19,12.89a36,36,0,0,0,9.22-12.12c.12-.26.24-.52.35-.79l.79,1.29c-3.2,4.25-3.3,10.41-1.39,15.46A29.14,29.14,0,0,0,89.4,291a70.53,70.53,0,0,0,7.13,8.79c3.67-5.2,6.45-14.22,6.76-18.29.08-1,.24-2.09.27-3.14a15.33,15.33,0,0,0,2.31,5.28c2.58,3.74,6.44,6.38,10.2,8.93a36,36,0,0,0,1.85-13.26c3.46,2.08,7.49,3.11,11.43,4.1A35.93,35.93,0,0,0,126.82,271a46.48,46.48,0,0,0,10.32,3.49,36,36,0,0,0-1.57-9.67,55.83,55.83,0,0,0,6.75,6.08,35.91,35.91,0,0,0,2.93-14.95,14.62,14.62,0,0,0-1.16-5.95c2.24-1.48,1.39-6.32.5-11.83a62.2,62.2,0,0,0,8.07,2.24A36,36,0,0,0,150.6,230a6.6,6.6,0,0,0,2.58-.16,7.16,7.16,0,0,0,3.87-2.81,15.16,15.16,0,0,0,.58,1.64c1.77,4.19,5,7.55,8.18,10.81A36.09,36.09,0,0,0,170.56,225a16.54,16.54,0,0,0-.14-5c.22-.12.44-.24.65-.37a14.38,14.38,0,0,0,4.41,7.55c3.35,3.07,7.7,4.78,11.94,6.42A36.06,36.06,0,0,0,185.85,219a15.29,15.29,0,0,0,3.91,2.73c4.1,2,8.75,2.36,13.28,2.72a35.91,35.91,0,0,0-5.73-13.62c.44,0,.87-.08,1.3-.14,4.49-.71,8.53-3,12.46-5.32a36.49,36.49,0,0,0-6.16-4.84,45.6,45.6,0,0,0,10.8,1.88,36,36,0,0,0-5.06-12.92c.55-.47,1.11-.95,1.65-1.43a15,15,0,0,0,2.08,6.21c2.32,3.88,6,6.74,9.56,9.51l.09-.05a35.9,35.9,0,0,0,2.62-14.91c0-.15,0-.31,0-.47.34.25.7.49,1.06.71,3.89,2.36,8.49,3.18,13,4a35.16,35.16,0,0,0-1.38-7c3.73,2.2,8.09,3,12.37,3.78l.36-.18a36.21,36.21,0,0,0-4.61-14.26,19.47,19.47,0,0,0-1.88-2.73l2.07-6.13a40.91,40.91,0,0,0,7.09,7.45,34.73,34.73,0,0,0,3.09-7.35c.44,2.09,1,4.17,1.65,6.22a35.9,35.9,0,0,0,6.72-5.44,60,60,0,0,0,5.43,11.21A43.79,43.79,0,0,0,281.51,163a27,27,0,0,0,.86-2.82,16.25,16.25,0,0,0,1.47,2.69,29.48,29.48,0,0,0,7.44,7L295.1,168a36.11,36.11,0,0,0,.66-11.31,16.78,16.78,0,0,0-1.05-4.66,7.9,7.9,0,0,0,.52-2,15.42,15.42,0,0,0,1.29,2.27c2.57,3.74,6.43,6.38,10.19,8.93a35.79,35.79,0,0,0,1.72-15.13,17.33,17.33,0,0,0-.82-4.05l.15.24c2.58,3.74,6.43,6.38,10.19,8.93a36,36,0,0,0,1.89-12.44l.27-.17a19.2,19.2,0,0,0-.09,5.56c.72,5.66,3.49,10.81,6.22,15.82l.1,0A45.49,45.49,0,0,0,337,144.05c.15-.4.3-.79.44-1.2a80.57,80.57,0,0,0,4.43,9.05,45.23,45.23,0,0,0,8.36-11c-.08,2.18,0,4.38.07,6.55a38.94,38.94,0,0,0,9.86-4.73,18.05,18.05,0,0,0-1.83,2.7c-2.69,4.82-3.48,10.44-4.23,15.92A43.73,43.73,0,0,0,371.48,155a26.83,26.83,0,0,0,2.41-1.7,15.69,15.69,0,0,0-.48,3c-.24,4.54,1.19,9,2.61,13.3a36,36,0,0,0,10.62-10.93,15.21,15.21,0,0,0,2.22-5.28l1.15.23c-3.06,3.57-4,8.86-3.26,13.61.93,5.71,3.93,10.85,6.87,15.84a45.75,45.75,0,0,0,10.23-16.49,19,19,0,0,0,1.32-7.3,22.79,22.79,0,0,0,7,8.44c5.59,4.12,12.47,6,19.18,7.82A55,55,0,0,0,426.32,152.86Z"></path></g><path d="M302.89,126.86c-3,7,.9,15.24,8.25,18.53a17.15,17.15,0,0,0,1.53-11.22,12.66,12.66,0,0,0-7.62-8.48" style="fill:#455a64"></path><path d="M402.14,52.89c7,3,16.08-1.23,18.19-9a17.09,17.09,0,0,0-11.32.23A12.64,12.64,0,0,0,401.82,53" style="fill:#455a64"></path><path d="M415.9,128.81c3.61,6.74,12.46,8.82,19.62,5.14a17.09,17.09,0,0,0-7.8-8.2,12.65,12.65,0,0,0-11.38.64" style="fill:#455a64"></path><path d="M111.48,80A17,17,0,0,0,113,91.25c1.76,3.33,7,5.26,11,4.54l.36-.13C125.42,88.07,119.45,81.22,111.48,80Z" style="fill:#455a64"></path><path d="M339.59,41.52c5.74-5.07,5.72-14.16.48-20.28a17.13,17.13,0,0,0-6.18,9.49c-.85,3.67,2.21,9.13,5.7,10.79" style="fill:#455a64"></path><path d="M226.88,41.65c10.29-5.28,8.17-14.29,2.93-20.41a17.08,17.08,0,0,0-6.18,9.49,12.64,12.64,0,0,0,3.25,10.92" style="fill:#455a64"></path><path d="M67.07,204.47c-2.23-7.32-10.51-11.08-18.25-8.86.89,3.81,3,6,6,8.35s8.92,2.34,12.3.51" style="fill:#455a64"></path><path d="M62.13,213.3c-4.57-2.55-9.32-2.16-13.31,1.91a11.08,11.08,0,0,0,6.89,2.53c2.44,0,5.66-1.84,6.42-4.44Z" style="fill:#455a64"></path><path d="M220.87,44.35c.21-5.37-4.42-9.78-10.07-10.09A12,12,0,0,0,212.62,42c1.45,2.22,5.5,3.69,8.25,2.34" style="fill:#455a64"></path><path d="M96.71,239.85l-2.33-.75c-7.16,2.7-10.38,11.2-7.66,18.78a17,17,0,0,0,9.15-6.67A12.63,12.63,0,0,0,96.71,239.85Z" style="fill:#455a64"></path><path d="M126,256.24a12.62,12.62,0,0,0-6.93-9l-2.24,1c-3.55,6.78-.29,15.27,6.78,19.12A17.07,17.07,0,0,0,126,256.24Z" style="fill:#455a64"></path><path d="M247.25,109.68c-7.68-3.84-17.53.38-22.18,8.85a18.56,18.56,0,0,0,12.64,2.27c4.31-.77,8.77-4.53,10.61-8.54" style="fill:#455a64"></path><path d="M248.32,112.26a2.64,2.64,0,0,1-.2.51,10.24,10.24,0,0,1-.75,1.37,16.49,16.49,0,0,1-3.92,4.22,15.26,15.26,0,0,1-3.46,2,13.76,13.76,0,0,1-4.5.94A18.71,18.71,0,0,1,225.34,119l-.4-.23-.22-.12.12-.22a23.82,23.82,0,0,1,3.16-4.34,22.63,22.63,0,0,1,3.85-3.19,17.79,17.79,0,0,1,7.91-2.74,13.44,13.44,0,0,1,5.61.68,9.65,9.65,0,0,1,1.41.6,1.81,1.81,0,0,1,.47.26s-.69-.28-1.95-.67a14,14,0,0,0-5.5-.51,17.63,17.63,0,0,0-7.69,2.79,22.44,22.44,0,0,0-3.74,3.12,23.92,23.92,0,0,0-3.07,4.25l-.09-.35.38.21a18.47,18.47,0,0,0,9.87,2.3,13.45,13.45,0,0,0,7.77-2.76,17.49,17.49,0,0,0,4-4C248,112.92,248.27,112.23,248.32,112.26Z" style="fill:#263238"></path><path d="M174.7,114.37a2.38,2.38,0,0,1,.47.28,10,10,0,0,1,1.22,1,16.27,16.27,0,0,1,3.5,4.57,14.68,14.68,0,0,1,1.39,3.75,13.44,13.44,0,0,1,.18,4.59,18.77,18.77,0,0,1-4,9.62l-.29.36-.16.2-.2-.17a23.82,23.82,0,0,1-3.75-3.84,22.36,22.36,0,0,1-2.49-4.33,17.62,17.62,0,0,1-1.38-8.26,13.4,13.4,0,0,1,1.62-5.4,9.53,9.53,0,0,1,.82-1.3A2.17,2.17,0,0,1,172,115s-.39.63-1,1.81a14,14,0,0,0-1.44,5.34,17.81,17.81,0,0,0,1.46,8,22.1,22.1,0,0,0,2.46,4.2,23.06,23.06,0,0,0,3.66,3.74l-.36,0,.28-.34a18.44,18.44,0,0,0,3.92-9.35,13.48,13.48,0,0,0-1.42-8.12,17.27,17.27,0,0,0-3.3-4.59C175.29,114.83,174.67,114.41,174.7,114.37Z" style="fill:#263238"></path><path d="M375.34,126.5c2-1.86,2.15-6,1-8.47a10.28,10.28,0,0,0-6.11-5.12,23,23,0,0,0-8.1-.94,1.87,1.87,0,0,0-1.07.26,1.78,1.78,0,0,0-.41,1.67,14.43,14.43,0,0,0,14.69,12.6" style="fill:#92E3A9"></path><path d="M389,112.69a3.48,3.48,0,0,0-.72-2.74c-.85-.78-2.21-.52-3.31-.15a35.78,35.78,0,0,0-5.1,2.16,8.52,8.52,0,0,0-3.48,2.78,7.86,7.86,0,0,0-.55,5.79,38.1,38.1,0,0,1,1.25,5.83l2-.73c3-1,6.31-2.16,8.12-4.81C388.75,118.5,388.88,115.51,389,112.69Z" style="fill:#92E3A9"></path><path d="M360.81,132a3.48,3.48,0,0,0-.48,2.79c.45,1.07,1.8,1.39,2.95,1.51a36.63,36.63,0,0,0,5.54.14,8.51,8.51,0,0,0,4.31-1.1,7.78,7.78,0,0,0,2.9-5,38.19,38.19,0,0,1,1.27-5.82l-2.12-.17c-3.19-.34-6.64-.63-9.38,1C363.39,126.82,362,129.49,360.81,132Z" style="fill:#92E3A9"></path><path d="M378.54,142a3.54,3.54,0,0,0,2.4,1.51c1.16,0,2-1.14,2.52-2.16a35.2,35.2,0,0,0,2.24-5.07,8.48,8.48,0,0,0,.63-4.4,7.83,7.83,0,0,0-3.55-4.6,36.43,36.43,0,0,1-4.89-3.4l-1,1.9c-1.54,2.82-3.12,5.9-2.63,9.07C374.72,137.58,376.67,139.85,378.54,142Z" style="fill:#92E3A9"></path><path d="M393.51,123.05a8.44,8.44,0,0,0-6.58-1.81c-2.33.43-8.6,2.52-9.4,5h0c.36,1.27,5.5,4.06,6.6,4.58A13,13,0,0,0,398,128.74,17.35,17.35,0,0,0,393.51,123.05Z" style="fill:#92E3A9"></path><path d="M374.29,135.25a9.93,9.93,0,0,1,.58-5.29,10.06,10.06,0,0,1,2.78-4.55,36.41,36.41,0,0,0-2.29,4.71A35.76,35.76,0,0,0,374.29,135.25Z" style="fill:#263238"></path><path d="M386.29,132.38a16.07,16.07,0,0,0-3.12-4.39,16.25,16.25,0,0,0-4.67-2.71,3.53,3.53,0,0,1,1.62.29,10,10,0,0,1,3.4,2,9.78,9.78,0,0,1,2.33,3.21A3.46,3.46,0,0,1,386.29,132.38Z" style="fill:#263238"></path><path d="M389.23,121.18a26.27,26.27,0,0,0-5.48,1.06,16.31,16.31,0,0,0-3.54,1.69,13.86,13.86,0,0,1-1.37.93s.33-.58,1.15-1.23a12.42,12.42,0,0,1,3.59-1.88,13.09,13.09,0,0,1,4-.75A4,4,0,0,1,389.23,121.18Z" style="fill:#263238"></path><path d="M377.17,124.17c-.15,0-.05-1.84-.54-4s-1.34-3.79-1.2-3.86a7.53,7.53,0,0,1,1.71,3.74A7.65,7.65,0,0,1,377.17,124.17Z" style="fill:#263238"></path><path d="M377.08,125.07c-.05.07-.54-.29-1.43-.62a9.18,9.18,0,0,0-3.62-.52,22.66,22.66,0,0,0-3.7.57,5.24,5.24,0,0,1-1.56.24,5.05,5.05,0,0,1,1.47-.6,14.88,14.88,0,0,1,3.76-.73,7.87,7.87,0,0,1,3.8.7C376.7,124.55,377.12,125,377.08,125.07Z" style="fill:#263238"></path><path d="M377.75,124.78c.05.15-2.08.87-4.52,2.16s-4.23,2.64-4.33,2.52a13,13,0,0,1,4.09-3A13.46,13.46,0,0,1,377.75,124.78Z" style="fill:#263238"></path><path d="M381,133.44a16.66,16.66,0,0,1-1.45-3.9,17.09,17.09,0,0,1-.94-4,16,16,0,0,1,1.44,3.9A17.33,17.33,0,0,1,381,133.44Z" style="fill:#263238"></path><path d="M387.4,124.72c0,.15-1.69,0-3.72.21s-3.65.6-3.7.45a7.94,7.94,0,0,1,3.65-1A8.15,8.15,0,0,1,387.4,124.72Z" style="fill:#263238"></path><path d="M380.59,116.85a12.13,12.13,0,0,1-.8,4,12.13,12.13,0,0,1-1.61,3.69,22.85,22.85,0,0,1,1.12-3.85A22.24,22.24,0,0,1,380.59,116.85Z" style="fill:#263238"></path><path d="M377.73,124.46a6.49,6.49,0,0,0-1.54-2.93c-.23-.25-.57-.5-.87-.35s-.33.58-.27.91a5.1,5.1,0,0,0,1.44,2.7,5.75,5.75,0,0,0-2.87.35c-.39.15-.83.47-.74.88s.68.52,1.13.47a9.09,9.09,0,0,0,2.84-.78,5.92,5.92,0,0,0-1.05,2.86c0,.41,0,.93.44,1s.69-.25.89-.58a8.5,8.5,0,0,0,1-2.53,7.47,7.47,0,0,0,.92,1.69,2.43,2.43,0,0,0,1.59,1,.93.93,0,0,0,1.05-.5,1.17,1.17,0,0,0-.17-.85,11,11,0,0,0-1.35-2,4.76,4.76,0,0,0,2.52-.69c.28-.18.58-.46.52-.79s-.52-.49-.89-.52a6.33,6.33,0,0,0-2.69.41,5.36,5.36,0,0,0,1.83-2.68.74.74,0,0,0,0-.65c-.23-.27-.68-.09-1,.13a5.77,5.77,0,0,0-1.82,2.51,3.86,3.86,0,0,0,.36-2.92c-.1-.34-.35-.73-.71-.7s-.51.47-.57.82a14.35,14.35,0,0,0-.23,3.4" style="fill:#fff"></path><path d="M386.55,117.11a2.28,2.28,0,1,1-2.11-2.43A2.28,2.28,0,0,1,386.55,117.11Z" style="fill:#92E3A9"></path><path d="M386.55,117.11a2.28,2.28,0,1,1-2.11-2.43A2.28,2.28,0,0,1,386.55,117.11Z" style="fill:#fff;opacity:0.6000000000000001"></path><path d="M385.28,117a1,1,0,0,1-2-.14,1,1,0,1,1,2,.14Z" style="fill:#fff"></path><path d="M360,123.94a1.15,1.15,0,1,1-2.29-.16,1.15,1.15,0,0,1,2.29.16Z" style="fill:#92E3A9"></path><path d="M360,123.94a1.15,1.15,0,1,1-2.29-.16,1.15,1.15,0,0,1,2.29.16Z" style="fill:#fff;opacity:0.6000000000000001"></path><path d="M359.34,123.9a.5.5,0,0,1-.54.47.51.51,0,0,1-.47-.55.5.5,0,0,1,.54-.47A.51.51,0,0,1,359.34,123.9Z" style="fill:#92E3A9"></path><path d="M373.8,142.53a1.59,1.59,0,1,1-1.47-1.7A1.59,1.59,0,0,1,373.8,142.53Z" style="fill:#92E3A9"></path><path d="M373.8,142.53a1.59,1.59,0,1,1-1.47-1.7A1.59,1.59,0,0,1,373.8,142.53Z" style="fill:#fff;opacity:0.6000000000000001"></path><path d="M372.92,142.47a.7.7,0,0,1-.75.65.72.72,0,0,1-.66-.75.71.71,0,0,1,.76-.65A.7.7,0,0,1,372.92,142.47Z" style="fill:#92E3A9"></path><path d="M270.19,128.5a13.33,13.33,0,0,1-4.84,8.56c-.11-.11,1.46-1.7,2.79-4.07S270,128.46,270.19,128.5Z" style="fill:#fff"></path><path d="M283.59,130.36a9.31,9.31,0,0,1-3.45-2.29,9.14,9.14,0,0,1-2.5-3.29c.12-.09,1.22,1.38,2.86,2.91S283.67,130.23,283.59,130.36Z" style="fill:#fff"></path><path d="M199.11,181.71a9.51,9.51,0,0,1-6.72-4.82c.13-.09,1.24,1.44,3.11,2.76S199.16,181.56,199.11,181.71Z" style="fill:#fff"></path><path d="M182.66,185.48c-.13.06-.65-.72-1.16-1.75s-.83-1.91-.7-2,.65.71,1.16,1.74S182.79,185.41,182.66,185.48Z" style="fill:#fff"></path><path d="M85.22,210.38c-.12.08-.8-.69-1.52-1.71a5.34,5.34,0,0,1-1.09-2c.12-.09.8.68,1.52,1.71S85.34,210.29,85.22,210.38Z" style="fill:#fff"></path><path d="M90.8,228.61a14.26,14.26,0,0,1,.37-9.67c.16,0-.42,2.15-.51,4.82S91,228.58,90.8,228.61Z" style="fill:#fff"></path><path d="M104.25,234.56a11.37,11.37,0,0,1,1.36-10.08,31.67,31.67,0,0,0-1.35,5A31.28,31.28,0,0,0,104.25,234.56Z" style="fill:#fff"></path><path d="M123.18,232a12.55,12.55,0,0,1-2.6-9.3c.16,0,.14,2.2.87,4.77S123.32,231.88,123.18,232Z" style="fill:#fff"></path><path d="M89.69,162.37a6,6,0,0,1-2.42.26,5.91,5.91,0,0,1-2.42-.26,5.72,5.72,0,0,1,2.42-.26A5.76,5.76,0,0,1,89.69,162.37Z" style="fill:#fff"></path><ellipse cx="91.55" cy="149.34" rx="0.26" ry="1.05" transform="translate(-78.79 108.47) rotate(-45)" style="fill:#fff"></ellipse><path d="M99.36,142.27c-.14,0-.34-.37-.44-.88s-.07-.95.07-1,.34.36.44.88S99.5,142.24,99.36,142.27Z" style="fill:#fff"></path><path d="M140.69,123.29a6.4,6.4,0,0,1,1.17-4.2,6.49,6.49,0,0,1,3.27-2.89,20,20,0,0,0-2.83,3.17A19.55,19.55,0,0,0,140.69,123.29Z" style="fill:#fff"></path><path d="M171.55,125.52a10.56,10.56,0,0,1,.77-8.93,44.54,44.54,0,0,0-.86,4.43A43.82,43.82,0,0,0,171.55,125.52Z" style="fill:#fff"></path><path d="M445.34,165.9c-5.52,5.3-5.12,14.38.36,20.28a15.23,15.23,0,0,0,5.42-9.2c.7-3.7-1.57-9.61-5.78-11.08" style="fill:#455a64"></path><path d="M178.85,245.72c-.51-3.73-4.56-8.41-8.5-8.41-3.55,6.77-.29,15.26,6.78,19.11C179.17,253.09,179.36,249.45,178.85,245.72Z" style="fill:#455a64"></path><path d="M241.11,208.27c-1.22-4.65-5.56-7.85-8.35-7.85-3.55,6.78-.29,15.27,6.78,19.12A14.88,14.88,0,0,0,241.11,208.27Z" style="fill:#455a64"></path></g><g id="freepik--Lights--inject-278"><path d="M295.4,268.73a2.39,2.39,0,1,1-2.39-2.4A2.39,2.39,0,0,1,295.4,268.73Z" style="fill:#92E3A9"></path><path d="M295.4,268.73a2.39,2.39,0,1,1-2.39-2.4A2.39,2.39,0,0,1,295.4,268.73Z" style="fill:#fff;opacity:0.6000000000000001"></path><path d="M294.06,268.73a1.06,1.06,0,1,1-1.05-1.06A1,1,0,0,1,294.06,268.73Z" style="fill:#92E3A9"></path><circle cx="88.28" cy="121.15" r="4.05" style="fill:#92E3A9"></circle><circle cx="88.28" cy="121.15" r="4.05" style="fill:#fff;opacity:0.6000000000000001"></circle><path d="M90.07,121.15a1.79,1.79,0,1,1-1.79-1.79A1.79,1.79,0,0,1,90.07,121.15Z" style="fill:#92E3A9"></path><circle cx="315.12" cy="18.85" r="4.05" style="fill:#92E3A9"></circle><circle cx="315.12" cy="18.85" r="4.05" style="fill:#fff;opacity:0.6000000000000001"></circle><circle cx="315.12" cy="18.85" r="1.79" style="fill:#92E3A9"></circle><circle cx="299.64" cy="14.06" r="2.15" style="fill:#92E3A9"></circle><circle cx="299.64" cy="14.06" r="2.15" style="fill:#fff;opacity:0.6000000000000001"></circle><circle cx="299.64" cy="14.06" r="0.95" style="fill:#92E3A9"></circle><path d="M168.39,162.87a2.92,2.92,0,1,1-2.92-2.92A2.92,2.92,0,0,1,168.39,162.87Z" style="fill:#92E3A9"></path><path d="M168.39,162.87a2.92,2.92,0,1,1-2.92-2.92A2.92,2.92,0,0,1,168.39,162.87Z" style="fill:#fff;opacity:0.6000000000000001"></path><path d="M166.76,162.87a1.29,1.29,0,1,1-1.29-1.28A1.28,1.28,0,0,1,166.76,162.87Z" style="fill:#92E3A9"></path><circle cx="150.37" cy="288.03" r="2.92" style="fill:#92E3A9"></circle><circle cx="150.37" cy="288.03" r="2.92" style="fill:#fff;opacity:0.6000000000000001"></circle><circle cx="150.37" cy="288.03" r="1.29" style="fill:#92E3A9"></circle><path d="M313.26,343.56A4.57,4.57,0,1,1,308.7,339,4.56,4.56,0,0,1,313.26,343.56Z" style="fill:#92E3A9"></path><path d="M313.26,343.56A4.57,4.57,0,1,1,308.7,339,4.56,4.56,0,0,1,313.26,343.56Z" style="fill:#fff;opacity:0.6000000000000001"></path><circle cx="308.7" cy="343.56" r="2.02" style="fill:#92E3A9"></circle><circle cx="374.2" cy="422.61" r="9.21" transform="translate(-189.23 388.38) rotate(-45)" style="fill:#92E3A9"></circle><circle cx="374.2" cy="422.61" r="9.21" transform="translate(-189.23 388.38) rotate(-45)" style="fill:#fff;opacity:0.6000000000000001"></circle><path d="M378.27,422.61a4.07,4.07,0,1,1-4.07-4.07A4.07,4.07,0,0,1,378.27,422.61Z" style="fill:#92E3A9"></path><circle cx="416.41" cy="292.68" r="9.21" transform="translate(-84.99 380.17) rotate(-45)" style="fill:#92E3A9"></circle><circle cx="416.41" cy="292.68" r="9.21" transform="translate(-84.99 380.17) rotate(-45)" style="fill:#fff;opacity:0.6000000000000001"></circle><path d="M420.48,292.68a4.07,4.07,0,1,1-4.07-4.07A4.07,4.07,0,0,1,420.48,292.68Z" style="fill:#92E3A9"></path><circle cx="76.96" cy="340.68" r="9.21" transform="translate(-218.36 154.21) rotate(-45)" style="fill:#92E3A9"></circle><circle cx="76.96" cy="340.68" r="9.21" transform="translate(-218.36 154.21) rotate(-45)" style="fill:#fff;opacity:0.6000000000000001"></circle><circle cx="76.96" cy="340.68" r="4.07" style="fill:#92E3A9"></circle><path d="M378.81,398.38a4.61,4.61,0,1,1-4.61-4.61A4.6,4.6,0,0,1,378.81,398.38Z" style="fill:#92E3A9"></path><path d="M378.81,398.38a4.61,4.61,0,1,1-4.61-4.61A4.6,4.6,0,0,1,378.81,398.38Z" style="fill:#fff;opacity:0.6000000000000001"></path><circle cx="374.2" cy="398.38" r="2.03" style="fill:#92E3A9"></circle><path d="M377.68,268.73a4.61,4.61,0,1,1-4.61-4.61A4.6,4.6,0,0,1,377.68,268.73Z" style="fill:#92E3A9"></path><path d="M377.68,268.73a4.61,4.61,0,1,1-4.61-4.61A4.6,4.6,0,0,1,377.68,268.73Z" style="fill:#fff;opacity:0.6000000000000001"></path><path d="M375.11,268.73a2,2,0,1,1-2-2A2,2,0,0,1,375.11,268.73Z" style="fill:#92E3A9"></path><path d="M165.64,386.38a4.61,4.61,0,1,1-4.61-4.6A4.6,4.6,0,0,1,165.64,386.38Z" style="fill:#92E3A9"></path><path d="M165.64,386.38a4.61,4.61,0,1,1-4.61-4.6A4.6,4.6,0,0,1,165.64,386.38Z" style="fill:#fff;opacity:0.6000000000000001"></path><circle cx="161.03" cy="386.38" r="2.03" style="fill:#92E3A9"></circle><circle cx="297.1" cy="358.03" r="1.7" style="fill:#92E3A9"></circle><circle cx="297.1" cy="358.03" r="1.7" style="fill:#fff;opacity:0.6000000000000001"></circle><circle cx="297.1" cy="358.03" r="0.75" style="fill:#92E3A9"></circle><circle cx="441.61" cy="250.62" r="1.7" style="fill:#92E3A9"></circle><circle cx="441.61" cy="250.62" r="1.7" style="fill:#fff;opacity:0.6000000000000001"></circle><circle cx="441.61" cy="250.62" r="0.75" style="fill:#92E3A9"></circle><path d="M321.75,339a1.7,1.7,0,1,1-1.7-1.7A1.7,1.7,0,0,1,321.75,339Z" style="fill:#92E3A9"></path><path d="M321.75,339a1.7,1.7,0,1,1-1.7-1.7A1.7,1.7,0,0,1,321.75,339Z" style="fill:#fff;opacity:0.6000000000000001"></path><circle cx="320.05" cy="339" r="0.75" style="fill:#92E3A9"></circle><path d="M130.29,445.91a4.57,4.57,0,1,1-4.56-4.56A4.56,4.56,0,0,1,130.29,445.91Z" style="fill:#92E3A9"></path><path d="M130.29,445.91a4.57,4.57,0,1,1-4.56-4.56A4.56,4.56,0,0,1,130.29,445.91Z" style="fill:#fff;opacity:0.6000000000000001"></path><path d="M127.74,445.91a2,2,0,1,1-2-2A2,2,0,0,1,127.74,445.91Z" style="fill:#92E3A9"></path><path d="M126.5,465.65a1.7,1.7,0,1,1-1.7-1.7A1.7,1.7,0,0,1,126.5,465.65Z" style="fill:#92E3A9"></path><path d="M126.5,465.65a1.7,1.7,0,1,1-1.7-1.7A1.7,1.7,0,0,1,126.5,465.65Z" style="fill:#fff;opacity:0.6000000000000001"></path><path d="M125.55,465.65a.75.75,0,1,1-.75-.75A.75.75,0,0,1,125.55,465.65Z" style="fill:#92E3A9"></path><circle cx="154.68" cy="414.95" r="1.7" style="fill:#92E3A9"></circle><circle cx="154.68" cy="414.95" r="1.7" style="fill:#fff;opacity:0.6000000000000001"></circle><circle cx="154.68" cy="414.95" r="0.75" style="fill:#92E3A9"></circle><circle cx="302.75" cy="422.61" r="1.7" style="fill:#92E3A9"></circle><circle cx="302.75" cy="422.61" r="1.7" style="fill:#fff;opacity:0.6000000000000001"></circle><circle cx="302.75" cy="422.61" r="0.75" style="fill:#92E3A9"></circle><path d="M182.11,419.56a3.14,3.14,0,1,1-3.14-3.14A3.15,3.15,0,0,1,182.11,419.56Z" style="fill:#92E3A9"></path><path d="M182.11,419.56a3.14,3.14,0,1,1-3.14-3.14A3.15,3.15,0,0,1,182.11,419.56Z" style="fill:#fff;opacity:0.6000000000000001"></path><path d="M180.36,419.56a1.39,1.39,0,1,1-1.39-1.39A1.39,1.39,0,0,1,180.36,419.56Z" style="fill:#92E3A9"></path><path d="M277.37,422.7a3.14,3.14,0,1,1-3.14-3.14A3.13,3.13,0,0,1,277.37,422.7Z" style="fill:#92E3A9"></path><path d="M277.37,422.7a3.14,3.14,0,1,1-3.14-3.14A3.13,3.13,0,0,1,277.37,422.7Z" style="fill:#fff;opacity:0.6000000000000001"></path><path d="M275.62,422.7a1.39,1.39,0,1,1-1.39-1.39A1.38,1.38,0,0,1,275.62,422.7Z" style="fill:#92E3A9"></path><path d="M63.74,232.55a2.93,2.93,0,1,1-2.92-2.92A2.92,2.92,0,0,1,63.74,232.55Z" style="fill:#92E3A9"></path><path d="M63.74,232.55a2.93,2.93,0,1,1-2.92-2.92A2.92,2.92,0,0,1,63.74,232.55Z" style="fill:#fff;opacity:0.6000000000000001"></path><path d="M62.1,232.55a1.29,1.29,0,1,1-1.28-1.29A1.28,1.28,0,0,1,62.1,232.55Z" style="fill:#92E3A9"></path><circle cx="194.9" cy="73.71" r="4.05" style="fill:#92E3A9"></circle><circle cx="194.9" cy="73.71" r="4.05" style="fill:#fff;opacity:0.6000000000000001"></circle><circle cx="194.9" cy="73.71" r="1.79" style="fill:#92E3A9"></circle><path d="M299.88,106a2.92,2.92,0,1,1-2.92-2.92A2.91,2.91,0,0,1,299.88,106Z" style="fill:#92E3A9"></path><path d="M299.88,106a2.92,2.92,0,1,1-2.92-2.92A2.91,2.91,0,0,1,299.88,106Z" style="fill:#fff;opacity:0.6000000000000001"></path><path d="M298.25,106A1.29,1.29,0,1,1,297,104.7,1.29,1.29,0,0,1,298.25,106Z" style="fill:#92E3A9"></path><path d="M407.36,95.35a4.06,4.06,0,1,1-4.06-4A4.05,4.05,0,0,1,407.36,95.35Z" style="fill:#92E3A9"></path><path d="M407.36,95.35a4.06,4.06,0,1,1-4.06-4A4.05,4.05,0,0,1,407.36,95.35Z" style="fill:#fff;opacity:0.6000000000000001"></path><path d="M405.09,95.35a1.79,1.79,0,1,1-1.79-1.79A1.79,1.79,0,0,1,405.09,95.35Z" style="fill:#92E3A9"></path></g></svg>
